%TF.GenerationSoftware,KiCad,Pcbnew,9.0.2*%
%TF.CreationDate,2026-03-23T23:45:13-04:00*%
%TF.ProjectId,MascotDesign,4d617363-6f74-4446-9573-69676e2e6b69,rev?*%
%TF.SameCoordinates,Original*%
%TF.FileFunction,Legend,Bot*%
%TF.FilePolarity,Positive*%
%FSLAX46Y46*%
G04 Gerber Fmt 4.6, Leading zero omitted, Abs format (unit mm)*
G04 Created by KiCad (PCBNEW 9.0.2) date 2026-03-23 23:45:13*
%MOMM*%
%LPD*%
G01*
G04 APERTURE LIST*
%ADD10C,0.300000*%
%ADD11C,0.100000*%
%ADD12C,0.000000*%
G04 APERTURE END LIST*
D10*
G36*
X124309274Y-64417495D02*
G01*
X121035964Y-64417495D01*
X121035964Y-63457971D01*
X121202631Y-63457971D01*
X121202631Y-63815114D01*
X121205513Y-63844378D01*
X121207576Y-63849358D01*
X121207958Y-63854733D01*
X121218467Y-63882196D01*
X121289896Y-64025053D01*
X121297823Y-64037646D01*
X121299339Y-64041306D01*
X121302720Y-64045425D01*
X121305561Y-64049939D01*
X121308554Y-64052535D01*
X121317994Y-64064037D01*
X121389423Y-64135466D01*
X121400927Y-64144907D01*
X121403522Y-64147899D01*
X121408031Y-64150737D01*
X121412154Y-64154121D01*
X121415815Y-64155637D01*
X121428407Y-64163564D01*
X121571265Y-64234992D01*
X121598728Y-64245502D01*
X121604103Y-64245883D01*
X121609082Y-64247946D01*
X121638346Y-64250828D01*
X121995489Y-64250828D01*
X122024753Y-64247946D01*
X122029731Y-64245883D01*
X122035107Y-64245502D01*
X122062571Y-64234992D01*
X122205428Y-64163564D01*
X122218023Y-64155635D01*
X122221682Y-64154120D01*
X122225799Y-64150740D01*
X122230314Y-64147899D01*
X122232910Y-64144904D01*
X122244413Y-64135465D01*
X122315841Y-64064036D01*
X122334495Y-64041306D01*
X122356892Y-63987233D01*
X122356891Y-63928707D01*
X122334494Y-63874635D01*
X122293108Y-63833250D01*
X122239036Y-63810853D01*
X122180510Y-63810854D01*
X122126438Y-63833251D01*
X122103707Y-63851906D01*
X122049490Y-63906122D01*
X121960079Y-63950828D01*
X121673756Y-63950828D01*
X121584342Y-63906121D01*
X121547338Y-63869117D01*
X121502631Y-63779703D01*
X121502631Y-63500136D01*
X122705514Y-63500136D01*
X122705514Y-63558664D01*
X122727912Y-63612736D01*
X122769296Y-63654120D01*
X122823368Y-63676518D01*
X122852632Y-63679400D01*
X123274060Y-63679400D01*
X123274060Y-64100828D01*
X123276942Y-64130092D01*
X123299340Y-64184164D01*
X123340724Y-64225548D01*
X123394796Y-64247946D01*
X123453324Y-64247946D01*
X123507396Y-64225548D01*
X123548780Y-64184164D01*
X123571178Y-64130092D01*
X123574060Y-64100828D01*
X123574060Y-63679400D01*
X123995489Y-63679400D01*
X124024753Y-63676518D01*
X124078825Y-63654120D01*
X124120209Y-63612736D01*
X124142607Y-63558664D01*
X124142607Y-63500136D01*
X124120209Y-63446064D01*
X124078825Y-63404680D01*
X124024753Y-63382282D01*
X123995489Y-63379400D01*
X123574060Y-63379400D01*
X123574060Y-62957971D01*
X123571178Y-62928707D01*
X123548780Y-62874635D01*
X123507396Y-62833251D01*
X123453324Y-62810853D01*
X123394796Y-62810853D01*
X123340724Y-62833251D01*
X123299340Y-62874635D01*
X123276942Y-62928707D01*
X123274060Y-62957971D01*
X123274060Y-63379400D01*
X122852632Y-63379400D01*
X122823368Y-63382282D01*
X122769296Y-63404680D01*
X122727912Y-63446064D01*
X122705514Y-63500136D01*
X121502631Y-63500136D01*
X121502631Y-63493381D01*
X121547338Y-63403967D01*
X121584342Y-63366963D01*
X121673756Y-63322257D01*
X121960079Y-63322257D01*
X122049490Y-63366962D01*
X122103707Y-63421179D01*
X122126438Y-63439834D01*
X122133416Y-63442724D01*
X122139262Y-63447507D01*
X122160253Y-63453840D01*
X122180510Y-63462231D01*
X122188062Y-63462231D01*
X122195294Y-63464413D01*
X122217110Y-63462231D01*
X122239036Y-63462232D01*
X122246014Y-63459341D01*
X122253531Y-63458590D01*
X122272850Y-63448225D01*
X122293108Y-63439835D01*
X122298450Y-63434492D01*
X122305106Y-63430922D01*
X122318986Y-63413956D01*
X122334494Y-63398450D01*
X122337384Y-63391470D01*
X122342167Y-63385626D01*
X122348501Y-63364631D01*
X122356891Y-63344378D01*
X122356891Y-63336828D01*
X122359074Y-63329594D01*
X122359030Y-63300188D01*
X122287602Y-62585903D01*
X122285464Y-62575238D01*
X122285464Y-62571564D01*
X122284036Y-62568118D01*
X122281822Y-62557071D01*
X122271457Y-62537749D01*
X122263066Y-62517492D01*
X122257725Y-62512151D01*
X122254155Y-62505496D01*
X122237187Y-62491613D01*
X122221682Y-62476108D01*
X122214702Y-62473216D01*
X122208858Y-62468435D01*
X122187869Y-62462101D01*
X122167610Y-62453710D01*
X122156398Y-62452605D01*
X122152826Y-62451528D01*
X122149168Y-62451893D01*
X122138346Y-62450828D01*
X121424060Y-62450828D01*
X121394796Y-62453710D01*
X121340724Y-62476108D01*
X121299340Y-62517492D01*
X121276942Y-62571564D01*
X121276942Y-62630092D01*
X121299340Y-62684164D01*
X121340724Y-62725548D01*
X121394796Y-62747946D01*
X121424060Y-62750828D01*
X122002597Y-62750828D01*
X122030238Y-63027237D01*
X122029731Y-63027201D01*
X122024753Y-63025139D01*
X121995489Y-63022257D01*
X121638346Y-63022257D01*
X121609082Y-63025139D01*
X121604103Y-63027201D01*
X121598728Y-63027583D01*
X121571265Y-63038093D01*
X121428407Y-63109521D01*
X121415815Y-63117447D01*
X121412154Y-63118964D01*
X121408031Y-63122347D01*
X121403522Y-63125186D01*
X121400927Y-63128177D01*
X121389423Y-63137619D01*
X121317994Y-63209048D01*
X121308554Y-63220549D01*
X121305561Y-63223146D01*
X121302720Y-63227659D01*
X121299339Y-63231779D01*
X121297823Y-63235438D01*
X121289896Y-63248032D01*
X121218467Y-63390889D01*
X121207958Y-63418352D01*
X121207576Y-63423726D01*
X121205513Y-63428707D01*
X121202631Y-63457971D01*
X121035964Y-63457971D01*
X121035964Y-62284161D01*
X124309274Y-62284161D01*
X124309274Y-64417495D01*
G37*
G36*
X113909274Y-64417495D02*
G01*
X109207393Y-64417495D01*
X109207393Y-62886542D01*
X109374060Y-62886542D01*
X109374060Y-63029400D01*
X109375518Y-63044211D01*
X109375238Y-63048161D01*
X109376419Y-63053355D01*
X109376942Y-63058664D01*
X109378458Y-63062325D01*
X109381758Y-63076835D01*
X109453187Y-63291119D01*
X109465175Y-63317970D01*
X109468705Y-63322040D01*
X109470768Y-63327020D01*
X109489423Y-63349751D01*
X110090500Y-63950828D01*
X109524060Y-63950828D01*
X109494796Y-63953710D01*
X109440724Y-63976108D01*
X109399340Y-64017492D01*
X109376942Y-64071564D01*
X109376942Y-64130092D01*
X109399340Y-64184164D01*
X109440724Y-64225548D01*
X109494796Y-64247946D01*
X109524060Y-64250828D01*
X110452632Y-64250828D01*
X110481896Y-64247946D01*
X110504293Y-64238668D01*
X110535967Y-64225549D01*
X110577353Y-64184163D01*
X110599750Y-64130091D01*
X110599750Y-64071565D01*
X110599750Y-64071564D01*
X110805513Y-64071564D01*
X110805513Y-64130092D01*
X110827911Y-64184164D01*
X110869295Y-64225548D01*
X110923367Y-64247946D01*
X110952631Y-64250828D01*
X111809774Y-64250828D01*
X111839038Y-64247946D01*
X111893110Y-64225548D01*
X111934494Y-64184164D01*
X111956892Y-64130092D01*
X111956892Y-64071564D01*
X111934494Y-64017492D01*
X111893110Y-63976108D01*
X111839038Y-63953710D01*
X111809774Y-63950828D01*
X111531203Y-63950828D01*
X111531203Y-63500136D01*
X112305514Y-63500136D01*
X112305514Y-63558664D01*
X112327912Y-63612736D01*
X112369296Y-63654120D01*
X112423368Y-63676518D01*
X112452632Y-63679400D01*
X112874060Y-63679400D01*
X112874060Y-64100828D01*
X112876942Y-64130092D01*
X112899340Y-64184164D01*
X112940724Y-64225548D01*
X112994796Y-64247946D01*
X113053324Y-64247946D01*
X113107396Y-64225548D01*
X113148780Y-64184164D01*
X113171178Y-64130092D01*
X113174060Y-64100828D01*
X113174060Y-63679400D01*
X113595489Y-63679400D01*
X113624753Y-63676518D01*
X113678825Y-63654120D01*
X113720209Y-63612736D01*
X113742607Y-63558664D01*
X113742607Y-63500136D01*
X113720209Y-63446064D01*
X113678825Y-63404680D01*
X113624753Y-63382282D01*
X113595489Y-63379400D01*
X113174060Y-63379400D01*
X113174060Y-62957971D01*
X113171178Y-62928707D01*
X113148780Y-62874635D01*
X113107396Y-62833251D01*
X113053324Y-62810853D01*
X112994796Y-62810853D01*
X112940724Y-62833251D01*
X112899340Y-62874635D01*
X112876942Y-62928707D01*
X112874060Y-62957971D01*
X112874060Y-63379400D01*
X112452632Y-63379400D01*
X112423368Y-63382282D01*
X112369296Y-63404680D01*
X112327912Y-63446064D01*
X112305514Y-63500136D01*
X111531203Y-63500136D01*
X111531203Y-63034389D01*
X111560851Y-63064037D01*
X111572353Y-63073477D01*
X111574949Y-63076470D01*
X111579458Y-63079308D01*
X111583581Y-63082692D01*
X111587243Y-63084208D01*
X111599835Y-63092135D01*
X111742691Y-63163564D01*
X111770155Y-63174073D01*
X111828535Y-63178222D01*
X111884057Y-63159715D01*
X111928273Y-63121368D01*
X111954447Y-63069019D01*
X111958596Y-63010639D01*
X111940088Y-62955116D01*
X111901742Y-62910901D01*
X111876856Y-62895236D01*
X111755771Y-62834693D01*
X111640630Y-62719552D01*
X111506011Y-62517623D01*
X111505942Y-62517539D01*
X111505923Y-62517492D01*
X111505816Y-62517385D01*
X111487380Y-62494873D01*
X111475040Y-62486609D01*
X111464539Y-62476108D01*
X111450961Y-62470483D01*
X111438750Y-62462306D01*
X111424187Y-62459393D01*
X111410467Y-62453710D01*
X111395771Y-62453710D01*
X111381361Y-62450828D01*
X111366792Y-62453710D01*
X111351939Y-62453710D01*
X111338360Y-62459334D01*
X111323946Y-62462186D01*
X111311588Y-62470424D01*
X111297867Y-62476108D01*
X111287475Y-62486499D01*
X111275248Y-62494651D01*
X111266984Y-62506990D01*
X111256483Y-62517492D01*
X111250858Y-62531069D01*
X111242681Y-62543281D01*
X111239768Y-62557843D01*
X111234085Y-62571564D01*
X111231233Y-62600516D01*
X111231203Y-62600670D01*
X111231213Y-62600722D01*
X111231203Y-62600828D01*
X111231203Y-63950828D01*
X110952631Y-63950828D01*
X110923367Y-63953710D01*
X110869295Y-63976108D01*
X110827911Y-64017492D01*
X110805513Y-64071564D01*
X110599750Y-64071564D01*
X110577353Y-64017492D01*
X110558698Y-63994762D01*
X109726593Y-63162657D01*
X109674060Y-63005058D01*
X109674060Y-62921952D01*
X109718767Y-62832538D01*
X109755771Y-62795535D01*
X109845185Y-62750828D01*
X110131508Y-62750828D01*
X110220921Y-62795535D01*
X110275137Y-62849751D01*
X110297867Y-62868406D01*
X110351940Y-62890802D01*
X110410466Y-62890802D01*
X110464538Y-62868406D01*
X110505924Y-62827020D01*
X110528320Y-62772948D01*
X110528320Y-62714422D01*
X110505924Y-62660349D01*
X110487269Y-62637619D01*
X110415841Y-62566191D01*
X110404339Y-62556751D01*
X110401743Y-62553758D01*
X110397229Y-62550917D01*
X110393110Y-62547536D01*
X110389450Y-62546020D01*
X110376857Y-62538093D01*
X110234000Y-62466664D01*
X110206537Y-62456155D01*
X110201162Y-62455773D01*
X110196182Y-62453710D01*
X110166918Y-62450828D01*
X109809775Y-62450828D01*
X109780511Y-62453710D01*
X109775530Y-62455773D01*
X109770156Y-62456155D01*
X109742692Y-62466664D01*
X109599836Y-62538093D01*
X109587242Y-62546020D01*
X109583583Y-62547536D01*
X109579462Y-62550917D01*
X109574950Y-62553758D01*
X109572353Y-62556751D01*
X109560853Y-62566190D01*
X109489424Y-62637618D01*
X109479984Y-62649120D01*
X109476990Y-62651717D01*
X109474148Y-62656231D01*
X109470769Y-62660349D01*
X109469253Y-62664007D01*
X109461325Y-62676603D01*
X109389896Y-62819460D01*
X109379387Y-62846923D01*
X109379005Y-62852297D01*
X109376942Y-62857278D01*
X109374060Y-62886542D01*
X109207393Y-62886542D01*
X109207393Y-62284161D01*
X113909274Y-62284161D01*
X113909274Y-64417495D01*
G37*
D11*
X124260401Y-76522419D02*
X124260401Y-77236704D01*
X124260401Y-77236704D02*
X124308020Y-77379561D01*
X124308020Y-77379561D02*
X124403258Y-77474800D01*
X124403258Y-77474800D02*
X124546115Y-77522419D01*
X124546115Y-77522419D02*
X124641353Y-77522419D01*
X123308020Y-77522419D02*
X123784210Y-77522419D01*
X123784210Y-77522419D02*
X123784210Y-76522419D01*
X122403258Y-77427180D02*
X122450877Y-77474800D01*
X122450877Y-77474800D02*
X122593734Y-77522419D01*
X122593734Y-77522419D02*
X122688972Y-77522419D01*
X122688972Y-77522419D02*
X122831829Y-77474800D01*
X122831829Y-77474800D02*
X122927067Y-77379561D01*
X122927067Y-77379561D02*
X122974686Y-77284323D01*
X122974686Y-77284323D02*
X123022305Y-77093847D01*
X123022305Y-77093847D02*
X123022305Y-76950990D01*
X123022305Y-76950990D02*
X122974686Y-76760514D01*
X122974686Y-76760514D02*
X122927067Y-76665276D01*
X122927067Y-76665276D02*
X122831829Y-76570038D01*
X122831829Y-76570038D02*
X122688972Y-76522419D01*
X122688972Y-76522419D02*
X122593734Y-76522419D01*
X122593734Y-76522419D02*
X122450877Y-76570038D01*
X122450877Y-76570038D02*
X122403258Y-76617657D01*
X121688972Y-76522419D02*
X121688972Y-77236704D01*
X121688972Y-77236704D02*
X121736591Y-77379561D01*
X121736591Y-77379561D02*
X121831829Y-77474800D01*
X121831829Y-77474800D02*
X121974686Y-77522419D01*
X121974686Y-77522419D02*
X122069924Y-77522419D01*
X120736591Y-77522419D02*
X121212781Y-77522419D01*
X121212781Y-77522419D02*
X121212781Y-76522419D01*
X119831829Y-77427180D02*
X119879448Y-77474800D01*
X119879448Y-77474800D02*
X120022305Y-77522419D01*
X120022305Y-77522419D02*
X120117543Y-77522419D01*
X120117543Y-77522419D02*
X120260400Y-77474800D01*
X120260400Y-77474800D02*
X120355638Y-77379561D01*
X120355638Y-77379561D02*
X120403257Y-77284323D01*
X120403257Y-77284323D02*
X120450876Y-77093847D01*
X120450876Y-77093847D02*
X120450876Y-76950990D01*
X120450876Y-76950990D02*
X120403257Y-76760514D01*
X120403257Y-76760514D02*
X120355638Y-76665276D01*
X120355638Y-76665276D02*
X120260400Y-76570038D01*
X120260400Y-76570038D02*
X120117543Y-76522419D01*
X120117543Y-76522419D02*
X120022305Y-76522419D01*
X120022305Y-76522419D02*
X119879448Y-76570038D01*
X119879448Y-76570038D02*
X119831829Y-76617657D01*
X119117543Y-76522419D02*
X119117543Y-77236704D01*
X119117543Y-77236704D02*
X119165162Y-77379561D01*
X119165162Y-77379561D02*
X119260400Y-77474800D01*
X119260400Y-77474800D02*
X119403257Y-77522419D01*
X119403257Y-77522419D02*
X119498495Y-77522419D01*
X118165162Y-77522419D02*
X118641352Y-77522419D01*
X118641352Y-77522419D02*
X118641352Y-76522419D01*
X117260400Y-77427180D02*
X117308019Y-77474800D01*
X117308019Y-77474800D02*
X117450876Y-77522419D01*
X117450876Y-77522419D02*
X117546114Y-77522419D01*
X117546114Y-77522419D02*
X117688971Y-77474800D01*
X117688971Y-77474800D02*
X117784209Y-77379561D01*
X117784209Y-77379561D02*
X117831828Y-77284323D01*
X117831828Y-77284323D02*
X117879447Y-77093847D01*
X117879447Y-77093847D02*
X117879447Y-76950990D01*
X117879447Y-76950990D02*
X117831828Y-76760514D01*
X117831828Y-76760514D02*
X117784209Y-76665276D01*
X117784209Y-76665276D02*
X117688971Y-76570038D01*
X117688971Y-76570038D02*
X117546114Y-76522419D01*
X117546114Y-76522419D02*
X117450876Y-76522419D01*
X117450876Y-76522419D02*
X117308019Y-76570038D01*
X117308019Y-76570038D02*
X117260400Y-76617657D01*
X116546114Y-76522419D02*
X116546114Y-77236704D01*
X116546114Y-77236704D02*
X116593733Y-77379561D01*
X116593733Y-77379561D02*
X116688971Y-77474800D01*
X116688971Y-77474800D02*
X116831828Y-77522419D01*
X116831828Y-77522419D02*
X116927066Y-77522419D01*
X115593733Y-77522419D02*
X116069923Y-77522419D01*
X116069923Y-77522419D02*
X116069923Y-76522419D01*
X114688971Y-77427180D02*
X114736590Y-77474800D01*
X114736590Y-77474800D02*
X114879447Y-77522419D01*
X114879447Y-77522419D02*
X114974685Y-77522419D01*
X114974685Y-77522419D02*
X115117542Y-77474800D01*
X115117542Y-77474800D02*
X115212780Y-77379561D01*
X115212780Y-77379561D02*
X115260399Y-77284323D01*
X115260399Y-77284323D02*
X115308018Y-77093847D01*
X115308018Y-77093847D02*
X115308018Y-76950990D01*
X115308018Y-76950990D02*
X115260399Y-76760514D01*
X115260399Y-76760514D02*
X115212780Y-76665276D01*
X115212780Y-76665276D02*
X115117542Y-76570038D01*
X115117542Y-76570038D02*
X114974685Y-76522419D01*
X114974685Y-76522419D02*
X114879447Y-76522419D01*
X114879447Y-76522419D02*
X114736590Y-76570038D01*
X114736590Y-76570038D02*
X114688971Y-76617657D01*
D10*
G36*
X139536542Y-89069100D02*
G01*
X139491835Y-89158513D01*
X139454830Y-89195518D01*
X139365418Y-89240224D01*
X139221952Y-89240224D01*
X139132539Y-89195518D01*
X139095535Y-89158514D01*
X139050828Y-89069099D01*
X139050828Y-88683081D01*
X139536542Y-88683081D01*
X139536542Y-89069100D01*
G37*
G36*
X140717495Y-89706891D02*
G01*
X138584161Y-89706891D01*
X138584161Y-88533081D01*
X138750828Y-88533081D01*
X138750828Y-89104510D01*
X138753710Y-89133774D01*
X138755773Y-89138754D01*
X138756155Y-89144129D01*
X138766664Y-89171592D01*
X138838093Y-89314449D01*
X138846021Y-89327044D01*
X138847536Y-89330701D01*
X138850915Y-89334818D01*
X138853758Y-89339335D01*
X138856752Y-89341932D01*
X138866190Y-89353432D01*
X138937618Y-89424861D01*
X138949123Y-89434303D01*
X138951718Y-89437295D01*
X138956228Y-89440134D01*
X138960349Y-89443516D01*
X138964008Y-89445031D01*
X138976603Y-89452960D01*
X139119461Y-89524388D01*
X139146924Y-89534898D01*
X139152299Y-89535279D01*
X139157278Y-89537342D01*
X139186542Y-89540224D01*
X139400828Y-89540224D01*
X139430092Y-89537342D01*
X139435070Y-89535279D01*
X139440446Y-89534898D01*
X139467910Y-89524388D01*
X139610767Y-89452960D01*
X139623360Y-89445032D01*
X139627020Y-89443517D01*
X139631139Y-89440135D01*
X139635653Y-89437295D01*
X139638249Y-89434301D01*
X139649751Y-89424862D01*
X139721180Y-89353433D01*
X139730621Y-89341928D01*
X139733613Y-89339334D01*
X139736451Y-89334824D01*
X139739835Y-89330702D01*
X139741351Y-89327040D01*
X139749278Y-89314449D01*
X139820706Y-89171591D01*
X139831216Y-89144128D01*
X139831597Y-89138752D01*
X139833660Y-89133774D01*
X139836542Y-89104510D01*
X139836542Y-88683081D01*
X140400828Y-88683081D01*
X140430092Y-88680199D01*
X140484164Y-88657801D01*
X140525548Y-88616417D01*
X140547946Y-88562345D01*
X140547946Y-88503817D01*
X140525548Y-88449745D01*
X140484164Y-88408361D01*
X140430092Y-88385963D01*
X140400828Y-88383081D01*
X138900828Y-88383081D01*
X138871564Y-88385963D01*
X138817492Y-88408361D01*
X138776108Y-88449745D01*
X138753710Y-88503817D01*
X138750828Y-88533081D01*
X138584161Y-88533081D01*
X138584161Y-87318796D01*
X138750828Y-87318796D01*
X138750828Y-87675939D01*
X138752286Y-87690750D01*
X138752006Y-87694700D01*
X138753187Y-87699894D01*
X138753710Y-87705203D01*
X138755227Y-87708865D01*
X138758526Y-87723373D01*
X138829954Y-87937659D01*
X138841943Y-87964510D01*
X138880290Y-88008724D01*
X138932638Y-88034898D01*
X138991018Y-88039047D01*
X139046542Y-88020539D01*
X139090756Y-87982191D01*
X139116930Y-87929844D01*
X139121079Y-87871464D01*
X139114559Y-87842790D01*
X139050828Y-87651598D01*
X139050828Y-87354206D01*
X139095535Y-87264791D01*
X139132539Y-87227787D01*
X139221952Y-87183082D01*
X139293990Y-87183082D01*
X139383401Y-87227787D01*
X139420406Y-87264792D01*
X139473586Y-87371152D01*
X139541021Y-87640890D01*
X139541791Y-87643045D01*
X139541868Y-87644129D01*
X139546535Y-87656325D01*
X139550914Y-87668581D01*
X139551558Y-87669451D01*
X139552378Y-87671592D01*
X139623807Y-87814450D01*
X139631735Y-87827045D01*
X139633251Y-87830704D01*
X139636630Y-87834821D01*
X139639472Y-87839336D01*
X139642466Y-87841932D01*
X139651906Y-87853435D01*
X139723335Y-87924863D01*
X139734835Y-87934301D01*
X139737432Y-87937295D01*
X139741944Y-87940135D01*
X139746065Y-87943517D01*
X139749724Y-87945032D01*
X139762318Y-87952960D01*
X139905174Y-88024389D01*
X139932638Y-88034898D01*
X139938012Y-88035279D01*
X139942993Y-88037343D01*
X139972257Y-88040225D01*
X140115114Y-88040225D01*
X140144378Y-88037343D01*
X140149358Y-88035279D01*
X140154733Y-88034898D01*
X140182196Y-88024389D01*
X140325053Y-87952960D01*
X140337648Y-87945031D01*
X140341305Y-87943517D01*
X140345422Y-87940137D01*
X140349939Y-87937295D01*
X140352536Y-87934300D01*
X140364036Y-87924863D01*
X140435465Y-87853435D01*
X140444904Y-87841932D01*
X140447900Y-87839335D01*
X140450741Y-87834820D01*
X140454120Y-87830704D01*
X140455635Y-87827045D01*
X140463564Y-87814449D01*
X140534993Y-87671591D01*
X140545502Y-87644128D01*
X140545883Y-87638752D01*
X140547946Y-87633774D01*
X140550828Y-87604510D01*
X140550828Y-87247368D01*
X140549369Y-87232562D01*
X140549651Y-87228608D01*
X140548468Y-87223406D01*
X140547946Y-87218104D01*
X140546430Y-87214446D01*
X140543131Y-87199934D01*
X140471703Y-86985648D01*
X140459715Y-86958797D01*
X140421367Y-86914583D01*
X140369020Y-86888409D01*
X140310640Y-86884259D01*
X140255115Y-86902767D01*
X140210901Y-86941115D01*
X140184727Y-86993462D01*
X140180577Y-87051842D01*
X140187097Y-87080516D01*
X140250828Y-87271710D01*
X140250828Y-87569100D01*
X140206122Y-87658512D01*
X140169118Y-87695517D01*
X140079704Y-87740225D01*
X140007667Y-87740225D01*
X139918253Y-87695517D01*
X139881248Y-87658513D01*
X139828069Y-87552154D01*
X139760635Y-87282416D01*
X139759863Y-87280257D01*
X139759787Y-87279177D01*
X139755126Y-87266996D01*
X139750742Y-87254725D01*
X139750097Y-87253855D01*
X139749278Y-87251713D01*
X139677849Y-87108857D01*
X139669921Y-87096263D01*
X139668406Y-87092604D01*
X139665024Y-87088483D01*
X139662184Y-87083971D01*
X139659190Y-87081374D01*
X139649752Y-87069874D01*
X139578324Y-86998445D01*
X139566821Y-86989005D01*
X139564225Y-86986011D01*
X139559710Y-86983169D01*
X139555593Y-86979790D01*
X139551934Y-86978274D01*
X139539339Y-86970346D01*
X139396482Y-86898918D01*
X139369018Y-86888408D01*
X139363642Y-86888026D01*
X139358664Y-86885964D01*
X139329400Y-86883082D01*
X139186542Y-86883082D01*
X139157278Y-86885964D01*
X139152299Y-86888026D01*
X139146924Y-86888408D01*
X139119461Y-86898918D01*
X138976603Y-86970346D01*
X138964008Y-86978274D01*
X138960349Y-86979790D01*
X138956228Y-86983171D01*
X138951718Y-86986011D01*
X138949123Y-86989002D01*
X138937618Y-86998445D01*
X138866190Y-87069874D01*
X138856752Y-87081373D01*
X138853758Y-87083971D01*
X138850915Y-87088487D01*
X138847536Y-87092605D01*
X138846021Y-87096261D01*
X138838093Y-87108857D01*
X138766664Y-87251714D01*
X138756155Y-87279177D01*
X138755773Y-87284551D01*
X138753710Y-87289532D01*
X138750828Y-87318796D01*
X138584161Y-87318796D01*
X138584161Y-86716415D01*
X140717495Y-86716415D01*
X140717495Y-89706891D01*
G37*
G36*
X79174828Y-69259774D02*
G01*
X78727742Y-69408803D01*
X78727742Y-69110744D01*
X79174828Y-69259774D01*
G37*
G36*
X78999171Y-66438042D02*
G01*
X78999171Y-66652935D01*
X78954463Y-66742349D01*
X78917458Y-66779354D01*
X78828047Y-66824060D01*
X78470295Y-66824060D01*
X78380882Y-66779354D01*
X78343878Y-66742350D01*
X78299171Y-66652935D01*
X78299171Y-66438042D01*
X78313305Y-66409775D01*
X78985037Y-66409775D01*
X78999171Y-66438042D01*
G37*
G36*
X78917460Y-64311624D02*
G01*
X78954464Y-64348628D01*
X78999171Y-64438041D01*
X78999171Y-64581506D01*
X78954463Y-64670920D01*
X78917458Y-64707925D01*
X78828047Y-64752631D01*
X78470295Y-64752631D01*
X78380882Y-64707925D01*
X78343878Y-64670921D01*
X78299171Y-64581506D01*
X78299171Y-64438041D01*
X78343878Y-64348627D01*
X78380882Y-64311623D01*
X78470295Y-64266917D01*
X78828047Y-64266917D01*
X78917460Y-64311624D01*
G37*
G36*
X79964661Y-70075263D02*
G01*
X77832504Y-70075263D01*
X77832504Y-68741013D01*
X78000349Y-68741013D01*
X78004498Y-68799394D01*
X78030672Y-68851741D01*
X78074886Y-68890088D01*
X78101737Y-68902076D01*
X78427742Y-69010744D01*
X78427742Y-69508803D01*
X78101737Y-69617472D01*
X78074886Y-69629460D01*
X78030672Y-69667807D01*
X78004498Y-69720154D01*
X78000349Y-69778535D01*
X78018857Y-69834059D01*
X78057204Y-69878273D01*
X78109551Y-69904447D01*
X78167932Y-69908596D01*
X78196605Y-69902076D01*
X79696605Y-69402076D01*
X79723456Y-69390088D01*
X79731553Y-69383065D01*
X79741138Y-69378273D01*
X79753459Y-69364066D01*
X79767671Y-69351741D01*
X79772464Y-69342153D01*
X79779485Y-69334059D01*
X79785433Y-69316214D01*
X79793844Y-69299393D01*
X79794603Y-69288705D01*
X79797994Y-69278535D01*
X79796660Y-69259774D01*
X79797994Y-69241013D01*
X79794603Y-69230842D01*
X79793844Y-69220155D01*
X79785433Y-69203333D01*
X79779485Y-69185489D01*
X79772464Y-69177394D01*
X79767671Y-69167807D01*
X79753459Y-69155481D01*
X79741138Y-69141275D01*
X79731553Y-69136482D01*
X79723456Y-69129460D01*
X79696605Y-69117472D01*
X78196605Y-68617472D01*
X78167932Y-68610952D01*
X78109551Y-68615101D01*
X78057204Y-68641275D01*
X78018857Y-68685489D01*
X78000349Y-68741013D01*
X77832504Y-68741013D01*
X77832504Y-67831203D01*
X77999171Y-67831203D01*
X77999171Y-68045489D01*
X78002053Y-68074753D01*
X78004116Y-68079733D01*
X78004498Y-68085108D01*
X78015007Y-68112571D01*
X78086436Y-68255428D01*
X78089514Y-68260318D01*
X78090285Y-68262630D01*
X78092781Y-68265508D01*
X78102101Y-68280314D01*
X78116308Y-68292635D01*
X78128632Y-68306845D01*
X78143441Y-68316167D01*
X78146316Y-68318660D01*
X78148623Y-68319429D01*
X78153518Y-68322510D01*
X78296374Y-68393939D01*
X78323838Y-68404448D01*
X78329212Y-68404829D01*
X78334193Y-68406893D01*
X78363457Y-68409775D01*
X79149171Y-68409775D01*
X79178435Y-68406893D01*
X79232507Y-68384495D01*
X79273891Y-68343111D01*
X79296289Y-68289039D01*
X79296289Y-68230511D01*
X79273891Y-68176439D01*
X79232507Y-68135055D01*
X79178435Y-68112657D01*
X79149171Y-68109775D01*
X78398867Y-68109775D01*
X78332403Y-68076543D01*
X78299171Y-68010078D01*
X78299171Y-67866613D01*
X78343878Y-67777199D01*
X78354160Y-67766918D01*
X79149171Y-67766918D01*
X79178435Y-67764036D01*
X79232507Y-67741638D01*
X79273891Y-67700254D01*
X79296289Y-67646182D01*
X79296289Y-67587654D01*
X79273891Y-67533582D01*
X79232507Y-67492198D01*
X79178435Y-67469800D01*
X79149171Y-67466918D01*
X78149171Y-67466918D01*
X78119907Y-67469800D01*
X78065835Y-67492198D01*
X78024451Y-67533582D01*
X78002053Y-67587654D01*
X78002053Y-67646182D01*
X78024451Y-67700254D01*
X78039444Y-67715247D01*
X78015007Y-67764121D01*
X78004498Y-67791584D01*
X78004116Y-67796958D01*
X78002053Y-67801939D01*
X77999171Y-67831203D01*
X77832504Y-67831203D01*
X77832504Y-66402632D01*
X77999171Y-66402632D01*
X77999171Y-66688346D01*
X78002053Y-66717610D01*
X78004116Y-66722590D01*
X78004498Y-66727965D01*
X78015007Y-66755428D01*
X78086436Y-66898285D01*
X78094364Y-66910880D01*
X78095879Y-66914537D01*
X78099258Y-66918654D01*
X78102101Y-66923171D01*
X78105095Y-66925768D01*
X78114533Y-66937268D01*
X78185961Y-67008697D01*
X78197466Y-67018139D01*
X78200061Y-67021131D01*
X78204571Y-67023970D01*
X78208692Y-67027352D01*
X78212351Y-67028867D01*
X78224946Y-67036796D01*
X78367804Y-67108224D01*
X78395267Y-67118734D01*
X78400642Y-67119115D01*
X78405621Y-67121178D01*
X78434885Y-67124060D01*
X78863457Y-67124060D01*
X78892721Y-67121178D01*
X78897699Y-67119115D01*
X78903075Y-67118734D01*
X78930539Y-67108224D01*
X79073396Y-67036796D01*
X79085991Y-67028867D01*
X79089650Y-67027352D01*
X79093767Y-67023972D01*
X79098282Y-67021131D01*
X79100878Y-67018136D01*
X79112381Y-67008697D01*
X79183809Y-66937268D01*
X79193247Y-66925767D01*
X79196241Y-66923171D01*
X79199081Y-66918658D01*
X79202463Y-66914538D01*
X79203978Y-66910878D01*
X79211906Y-66898285D01*
X79283335Y-66755429D01*
X79293844Y-66727965D01*
X79294225Y-66722590D01*
X79296289Y-66717610D01*
X79299171Y-66688346D01*
X79299171Y-66409775D01*
X79649171Y-66409775D01*
X79678435Y-66406893D01*
X79732507Y-66384495D01*
X79773891Y-66343111D01*
X79796289Y-66289039D01*
X79796289Y-66230511D01*
X79773891Y-66176439D01*
X79732507Y-66135055D01*
X79678435Y-66112657D01*
X79649171Y-66109775D01*
X78149171Y-66109775D01*
X78119907Y-66112657D01*
X78065835Y-66135055D01*
X78024451Y-66176439D01*
X78002053Y-66230511D01*
X78002053Y-66289039D01*
X78018459Y-66328645D01*
X78015007Y-66335550D01*
X78004498Y-66363013D01*
X78004116Y-66368387D01*
X78002053Y-66373368D01*
X77999171Y-66402632D01*
X77832504Y-66402632D01*
X77832504Y-65516225D01*
X78002053Y-65516225D01*
X78002053Y-65574753D01*
X78024451Y-65628825D01*
X78065835Y-65670209D01*
X78119907Y-65692607D01*
X78149171Y-65695489D01*
X79149171Y-65695489D01*
X79178435Y-65692607D01*
X79232507Y-65670209D01*
X79273891Y-65628825D01*
X79296289Y-65574753D01*
X79296289Y-65516225D01*
X79359196Y-65516225D01*
X79359196Y-65574753D01*
X79361422Y-65580126D01*
X79381593Y-65628824D01*
X79400248Y-65651555D01*
X79471676Y-65722983D01*
X79494406Y-65741638D01*
X79516803Y-65750914D01*
X79548478Y-65764035D01*
X79607004Y-65764035D01*
X79638680Y-65750914D01*
X79661077Y-65741638D01*
X79661081Y-65741633D01*
X79683807Y-65722984D01*
X79755236Y-65651556D01*
X79773891Y-65628825D01*
X79773892Y-65628824D01*
X79794063Y-65580126D01*
X79796289Y-65574753D01*
X79796289Y-65516225D01*
X79773892Y-65462155D01*
X79773892Y-65462154D01*
X79755237Y-65439423D01*
X79683808Y-65367994D01*
X79661077Y-65349339D01*
X79607005Y-65326942D01*
X79548479Y-65326942D01*
X79494407Y-65349339D01*
X79494406Y-65349340D01*
X79471675Y-65367995D01*
X79400247Y-65439424D01*
X79381597Y-65462149D01*
X79381593Y-65462154D01*
X79381593Y-65462155D01*
X79359196Y-65516225D01*
X79296289Y-65516225D01*
X79273891Y-65462153D01*
X79232507Y-65420769D01*
X79178435Y-65398371D01*
X79149171Y-65395489D01*
X78149171Y-65395489D01*
X78119907Y-65398371D01*
X78065835Y-65420769D01*
X78024451Y-65462153D01*
X78002053Y-65516225D01*
X77832504Y-65516225D01*
X77832504Y-64402631D01*
X77999171Y-64402631D01*
X77999171Y-64616917D01*
X78002053Y-64646181D01*
X78004116Y-64651161D01*
X78004498Y-64656536D01*
X78015007Y-64683999D01*
X78086436Y-64826856D01*
X78094364Y-64839451D01*
X78095879Y-64843108D01*
X78099258Y-64847225D01*
X78102101Y-64851742D01*
X78105095Y-64854339D01*
X78114533Y-64865839D01*
X78185961Y-64937268D01*
X78197466Y-64946710D01*
X78200061Y-64949702D01*
X78204571Y-64952541D01*
X78208692Y-64955923D01*
X78212351Y-64957438D01*
X78224946Y-64965367D01*
X78367804Y-65036795D01*
X78395267Y-65047305D01*
X78400642Y-65047686D01*
X78405621Y-65049749D01*
X78434885Y-65052631D01*
X78863457Y-65052631D01*
X78892721Y-65049749D01*
X78897699Y-65047686D01*
X78903075Y-65047305D01*
X78930539Y-65036795D01*
X79073396Y-64965367D01*
X79085991Y-64957438D01*
X79089650Y-64955923D01*
X79093767Y-64952543D01*
X79098282Y-64949702D01*
X79100878Y-64946707D01*
X79112381Y-64937268D01*
X79183809Y-64865839D01*
X79193247Y-64854338D01*
X79196241Y-64851742D01*
X79199081Y-64847229D01*
X79202463Y-64843109D01*
X79203978Y-64839449D01*
X79211906Y-64826856D01*
X79283335Y-64684000D01*
X79293844Y-64656536D01*
X79294225Y-64651161D01*
X79296289Y-64646181D01*
X79299171Y-64616917D01*
X79299171Y-64402631D01*
X79296289Y-64373367D01*
X79294225Y-64368386D01*
X79293844Y-64363012D01*
X79283335Y-64335548D01*
X79211906Y-64192692D01*
X79203979Y-64180100D01*
X79202463Y-64176438D01*
X79199079Y-64172315D01*
X79196241Y-64167806D01*
X79193248Y-64165210D01*
X79183808Y-64153708D01*
X79112380Y-64082280D01*
X79100878Y-64072840D01*
X79098282Y-64069847D01*
X79093768Y-64067006D01*
X79089649Y-64063625D01*
X79085989Y-64062109D01*
X79073396Y-64054182D01*
X78930539Y-63982753D01*
X78903076Y-63972244D01*
X78897701Y-63971862D01*
X78892721Y-63969799D01*
X78863457Y-63966917D01*
X78434885Y-63966917D01*
X78405621Y-63969799D01*
X78400640Y-63971862D01*
X78395266Y-63972244D01*
X78367802Y-63982753D01*
X78224946Y-64054182D01*
X78212354Y-64062108D01*
X78208692Y-64063625D01*
X78204569Y-64067008D01*
X78200060Y-64069847D01*
X78197464Y-64072839D01*
X78185962Y-64082280D01*
X78114534Y-64153708D01*
X78105094Y-64165209D01*
X78102101Y-64167806D01*
X78099260Y-64172319D01*
X78095879Y-64176439D01*
X78094363Y-64180098D01*
X78086436Y-64192692D01*
X78015007Y-64335549D01*
X78004498Y-64363012D01*
X78004116Y-64368386D01*
X78002053Y-64373367D01*
X77999171Y-64402631D01*
X77832504Y-64402631D01*
X77832504Y-63800250D01*
X79964661Y-63800250D01*
X79964661Y-70075263D01*
G37*
G36*
X84365838Y-80609274D02*
G01*
X82232504Y-80609274D01*
X82232504Y-79694796D01*
X82402053Y-79694796D01*
X82402053Y-79753324D01*
X82424451Y-79807396D01*
X82465835Y-79848780D01*
X82519907Y-79871178D01*
X82549171Y-79874060D01*
X82970600Y-79874060D01*
X82970600Y-80295489D01*
X82973482Y-80324753D01*
X82995880Y-80378825D01*
X83037264Y-80420209D01*
X83091336Y-80442607D01*
X83149864Y-80442607D01*
X83203936Y-80420209D01*
X83245320Y-80378825D01*
X83267718Y-80324753D01*
X83270600Y-80295489D01*
X83270600Y-79874060D01*
X83692028Y-79874060D01*
X83721292Y-79871178D01*
X83775364Y-79848780D01*
X83816748Y-79807396D01*
X83839146Y-79753324D01*
X83839146Y-79694796D01*
X83816748Y-79640724D01*
X83775364Y-79599340D01*
X83721292Y-79576942D01*
X83692028Y-79574060D01*
X83270600Y-79574060D01*
X83270600Y-79152632D01*
X83267718Y-79123368D01*
X83245320Y-79069296D01*
X83203936Y-79027912D01*
X83149864Y-79005514D01*
X83091336Y-79005514D01*
X83037264Y-79027912D01*
X82995880Y-79069296D01*
X82973482Y-79123368D01*
X82970600Y-79152632D01*
X82970600Y-79574060D01*
X82549171Y-79574060D01*
X82519907Y-79576942D01*
X82465835Y-79599340D01*
X82424451Y-79640724D01*
X82402053Y-79694796D01*
X82232504Y-79694796D01*
X82232504Y-77652631D01*
X82399171Y-77652631D01*
X82399171Y-78509774D01*
X82402053Y-78539038D01*
X82424451Y-78593110D01*
X82465835Y-78634494D01*
X82519907Y-78656892D01*
X82578435Y-78656892D01*
X82632507Y-78634494D01*
X82673891Y-78593110D01*
X82696289Y-78539038D01*
X82699171Y-78509774D01*
X82699171Y-78231203D01*
X83615610Y-78231203D01*
X83585962Y-78260851D01*
X83576522Y-78272352D01*
X83573529Y-78274949D01*
X83570688Y-78279462D01*
X83567307Y-78283582D01*
X83565791Y-78287241D01*
X83557864Y-78299835D01*
X83486436Y-78442692D01*
X83475926Y-78470156D01*
X83471778Y-78528536D01*
X83490286Y-78584058D01*
X83528633Y-78628273D01*
X83580982Y-78654448D01*
X83639362Y-78658596D01*
X83694884Y-78640088D01*
X83739099Y-78601741D01*
X83754764Y-78576856D01*
X83815305Y-78455771D01*
X83930447Y-78340629D01*
X84132376Y-78206010D01*
X84132456Y-78205943D01*
X84132507Y-78205923D01*
X84132618Y-78205811D01*
X84155127Y-78187380D01*
X84163392Y-78175037D01*
X84173891Y-78164539D01*
X84179514Y-78150962D01*
X84187693Y-78138750D01*
X84190605Y-78124188D01*
X84196289Y-78110467D01*
X84196289Y-78095770D01*
X84199171Y-78081360D01*
X84196289Y-78066790D01*
X84196289Y-78051939D01*
X84190666Y-78038364D01*
X84187814Y-78023946D01*
X84179573Y-78011585D01*
X84173891Y-77997867D01*
X84163502Y-77987478D01*
X84155348Y-77975247D01*
X84143005Y-77966981D01*
X84132507Y-77956483D01*
X84118930Y-77950859D01*
X84106718Y-77942681D01*
X84092155Y-77939768D01*
X84078435Y-77934085D01*
X84049482Y-77931233D01*
X84049329Y-77931203D01*
X84049276Y-77931213D01*
X84049171Y-77931203D01*
X82699171Y-77931203D01*
X82699171Y-77652631D01*
X82696289Y-77623367D01*
X82673891Y-77569295D01*
X82632507Y-77527911D01*
X82578435Y-77505513D01*
X82519907Y-77505513D01*
X82465835Y-77527911D01*
X82424451Y-77569295D01*
X82402053Y-77623367D01*
X82399171Y-77652631D01*
X82232504Y-77652631D01*
X82232504Y-76224060D01*
X82399171Y-76224060D01*
X82399171Y-77152632D01*
X82402053Y-77181895D01*
X82424450Y-77235967D01*
X82465836Y-77277353D01*
X82497510Y-77290472D01*
X82519907Y-77299750D01*
X82519908Y-77299750D01*
X82578434Y-77299750D01*
X82578435Y-77299750D01*
X82600832Y-77290472D01*
X82632506Y-77277353D01*
X82655237Y-77258698D01*
X83487341Y-76426593D01*
X83644943Y-76374060D01*
X83728047Y-76374060D01*
X83817460Y-76418767D01*
X83854463Y-76455771D01*
X83899171Y-76545185D01*
X83899171Y-76831507D01*
X83854464Y-76920920D01*
X83800248Y-76975137D01*
X83781593Y-76997868D01*
X83759196Y-77051940D01*
X83759196Y-77110466D01*
X83781593Y-77164538D01*
X83822979Y-77205924D01*
X83877051Y-77228321D01*
X83935577Y-77228321D01*
X83989649Y-77205924D01*
X84012380Y-77187269D01*
X84083808Y-77115841D01*
X84093248Y-77104338D01*
X84096241Y-77101743D01*
X84099079Y-77097233D01*
X84102463Y-77093111D01*
X84103979Y-77089448D01*
X84111906Y-77076857D01*
X84183335Y-76934001D01*
X84193844Y-76906537D01*
X84194225Y-76901162D01*
X84196289Y-76896182D01*
X84199171Y-76866918D01*
X84199171Y-76509775D01*
X84196289Y-76480511D01*
X84194225Y-76475530D01*
X84193844Y-76470156D01*
X84183335Y-76442692D01*
X84111906Y-76299836D01*
X84103978Y-76287242D01*
X84102463Y-76283583D01*
X84099081Y-76279462D01*
X84096241Y-76274950D01*
X84093247Y-76272353D01*
X84083809Y-76260853D01*
X84012381Y-76189424D01*
X84000878Y-76179984D01*
X83998282Y-76176990D01*
X83993767Y-76174148D01*
X83989650Y-76170769D01*
X83985991Y-76169253D01*
X83973396Y-76161325D01*
X83830539Y-76089896D01*
X83803076Y-76079387D01*
X83797701Y-76079005D01*
X83792721Y-76076942D01*
X83763457Y-76074060D01*
X83620600Y-76074060D01*
X83605788Y-76075518D01*
X83601839Y-76075238D01*
X83596644Y-76076419D01*
X83591336Y-76076942D01*
X83587674Y-76078458D01*
X83573165Y-76081758D01*
X83358880Y-76153187D01*
X83332029Y-76165175D01*
X83327959Y-76168704D01*
X83322978Y-76170768D01*
X83300248Y-76189423D01*
X82699171Y-76790500D01*
X82699171Y-76224060D01*
X82696289Y-76194796D01*
X82673891Y-76140724D01*
X82632507Y-76099340D01*
X82578435Y-76076942D01*
X82519907Y-76076942D01*
X82465835Y-76099340D01*
X82424451Y-76140724D01*
X82402053Y-76194796D01*
X82399171Y-76224060D01*
X82232504Y-76224060D01*
X82232504Y-75907393D01*
X84365838Y-75907393D01*
X84365838Y-80609274D01*
G37*
G36*
X103159274Y-64417495D02*
G01*
X99885964Y-64417495D01*
X99885964Y-63457971D01*
X100052631Y-63457971D01*
X100052631Y-63815114D01*
X100055513Y-63844378D01*
X100057576Y-63849358D01*
X100057958Y-63854733D01*
X100068467Y-63882196D01*
X100139896Y-64025053D01*
X100147823Y-64037646D01*
X100149339Y-64041306D01*
X100152720Y-64045425D01*
X100155561Y-64049939D01*
X100158554Y-64052535D01*
X100167994Y-64064037D01*
X100239423Y-64135466D01*
X100250927Y-64144907D01*
X100253522Y-64147899D01*
X100258031Y-64150737D01*
X100262154Y-64154121D01*
X100265815Y-64155637D01*
X100278407Y-64163564D01*
X100421265Y-64234992D01*
X100448728Y-64245502D01*
X100454103Y-64245883D01*
X100459082Y-64247946D01*
X100488346Y-64250828D01*
X100845489Y-64250828D01*
X100874753Y-64247946D01*
X100879731Y-64245883D01*
X100885107Y-64245502D01*
X100912571Y-64234992D01*
X101055428Y-64163564D01*
X101068023Y-64155635D01*
X101071682Y-64154120D01*
X101075799Y-64150740D01*
X101080314Y-64147899D01*
X101082910Y-64144904D01*
X101094413Y-64135465D01*
X101165841Y-64064036D01*
X101184495Y-64041306D01*
X101206892Y-63987233D01*
X101206891Y-63928707D01*
X101184494Y-63874635D01*
X101143108Y-63833250D01*
X101089036Y-63810853D01*
X101030510Y-63810854D01*
X100976438Y-63833251D01*
X100953707Y-63851906D01*
X100899490Y-63906122D01*
X100810079Y-63950828D01*
X100523756Y-63950828D01*
X100434342Y-63906121D01*
X100397338Y-63869117D01*
X100352631Y-63779703D01*
X100352631Y-63500136D01*
X101555514Y-63500136D01*
X101555514Y-63558664D01*
X101577912Y-63612736D01*
X101619296Y-63654120D01*
X101673368Y-63676518D01*
X101702632Y-63679400D01*
X102124060Y-63679400D01*
X102124060Y-64100828D01*
X102126942Y-64130092D01*
X102149340Y-64184164D01*
X102190724Y-64225548D01*
X102244796Y-64247946D01*
X102303324Y-64247946D01*
X102357396Y-64225548D01*
X102398780Y-64184164D01*
X102421178Y-64130092D01*
X102424060Y-64100828D01*
X102424060Y-63679400D01*
X102845489Y-63679400D01*
X102874753Y-63676518D01*
X102928825Y-63654120D01*
X102970209Y-63612736D01*
X102992607Y-63558664D01*
X102992607Y-63500136D01*
X102970209Y-63446064D01*
X102928825Y-63404680D01*
X102874753Y-63382282D01*
X102845489Y-63379400D01*
X102424060Y-63379400D01*
X102424060Y-62957971D01*
X102421178Y-62928707D01*
X102398780Y-62874635D01*
X102357396Y-62833251D01*
X102303324Y-62810853D01*
X102244796Y-62810853D01*
X102190724Y-62833251D01*
X102149340Y-62874635D01*
X102126942Y-62928707D01*
X102124060Y-62957971D01*
X102124060Y-63379400D01*
X101702632Y-63379400D01*
X101673368Y-63382282D01*
X101619296Y-63404680D01*
X101577912Y-63446064D01*
X101555514Y-63500136D01*
X100352631Y-63500136D01*
X100352631Y-63493381D01*
X100397338Y-63403967D01*
X100434342Y-63366963D01*
X100523756Y-63322257D01*
X100810079Y-63322257D01*
X100899490Y-63366962D01*
X100953707Y-63421179D01*
X100976438Y-63439834D01*
X100983416Y-63442724D01*
X100989262Y-63447507D01*
X101010253Y-63453840D01*
X101030510Y-63462231D01*
X101038062Y-63462231D01*
X101045294Y-63464413D01*
X101067110Y-63462231D01*
X101089036Y-63462232D01*
X101096014Y-63459341D01*
X101103531Y-63458590D01*
X101122850Y-63448225D01*
X101143108Y-63439835D01*
X101148450Y-63434492D01*
X101155106Y-63430922D01*
X101168986Y-63413956D01*
X101184494Y-63398450D01*
X101187384Y-63391470D01*
X101192167Y-63385626D01*
X101198501Y-63364631D01*
X101206891Y-63344378D01*
X101206891Y-63336828D01*
X101209074Y-63329594D01*
X101209030Y-63300188D01*
X101137602Y-62585903D01*
X101135464Y-62575238D01*
X101135464Y-62571564D01*
X101134036Y-62568118D01*
X101131822Y-62557071D01*
X101121457Y-62537749D01*
X101113066Y-62517492D01*
X101107725Y-62512151D01*
X101104155Y-62505496D01*
X101087187Y-62491613D01*
X101071682Y-62476108D01*
X101064702Y-62473216D01*
X101058858Y-62468435D01*
X101037869Y-62462101D01*
X101017610Y-62453710D01*
X101006398Y-62452605D01*
X101002826Y-62451528D01*
X100999168Y-62451893D01*
X100988346Y-62450828D01*
X100274060Y-62450828D01*
X100244796Y-62453710D01*
X100190724Y-62476108D01*
X100149340Y-62517492D01*
X100126942Y-62571564D01*
X100126942Y-62630092D01*
X100149340Y-62684164D01*
X100190724Y-62725548D01*
X100244796Y-62747946D01*
X100274060Y-62750828D01*
X100852597Y-62750828D01*
X100880238Y-63027237D01*
X100879731Y-63027201D01*
X100874753Y-63025139D01*
X100845489Y-63022257D01*
X100488346Y-63022257D01*
X100459082Y-63025139D01*
X100454103Y-63027201D01*
X100448728Y-63027583D01*
X100421265Y-63038093D01*
X100278407Y-63109521D01*
X100265815Y-63117447D01*
X100262154Y-63118964D01*
X100258031Y-63122347D01*
X100253522Y-63125186D01*
X100250927Y-63128177D01*
X100239423Y-63137619D01*
X100167994Y-63209048D01*
X100158554Y-63220549D01*
X100155561Y-63223146D01*
X100152720Y-63227659D01*
X100149339Y-63231779D01*
X100147823Y-63235438D01*
X100139896Y-63248032D01*
X100068467Y-63390889D01*
X100057958Y-63418352D01*
X100057576Y-63423726D01*
X100055513Y-63428707D01*
X100052631Y-63457971D01*
X99885964Y-63457971D01*
X99885964Y-62284161D01*
X103159274Y-62284161D01*
X103159274Y-64417495D01*
G37*
G36*
X134859274Y-64417495D02*
G01*
X130157393Y-64417495D01*
X130157393Y-62886542D01*
X130324060Y-62886542D01*
X130324060Y-63029400D01*
X130325518Y-63044211D01*
X130325238Y-63048161D01*
X130326419Y-63053355D01*
X130326942Y-63058664D01*
X130328458Y-63062325D01*
X130331758Y-63076835D01*
X130403187Y-63291119D01*
X130415175Y-63317970D01*
X130418705Y-63322040D01*
X130420768Y-63327020D01*
X130439423Y-63349751D01*
X131040500Y-63950828D01*
X130474060Y-63950828D01*
X130444796Y-63953710D01*
X130390724Y-63976108D01*
X130349340Y-64017492D01*
X130326942Y-64071564D01*
X130326942Y-64130092D01*
X130349340Y-64184164D01*
X130390724Y-64225548D01*
X130444796Y-64247946D01*
X130474060Y-64250828D01*
X131402632Y-64250828D01*
X131431896Y-64247946D01*
X131454293Y-64238668D01*
X131485967Y-64225549D01*
X131527353Y-64184163D01*
X131549750Y-64130091D01*
X131549750Y-64071565D01*
X131549750Y-64071564D01*
X131755513Y-64071564D01*
X131755513Y-64130092D01*
X131777911Y-64184164D01*
X131819295Y-64225548D01*
X131873367Y-64247946D01*
X131902631Y-64250828D01*
X132759774Y-64250828D01*
X132789038Y-64247946D01*
X132843110Y-64225548D01*
X132884494Y-64184164D01*
X132906892Y-64130092D01*
X132906892Y-64071564D01*
X132884494Y-64017492D01*
X132843110Y-63976108D01*
X132789038Y-63953710D01*
X132759774Y-63950828D01*
X132481203Y-63950828D01*
X132481203Y-63500136D01*
X133255514Y-63500136D01*
X133255514Y-63558664D01*
X133277912Y-63612736D01*
X133319296Y-63654120D01*
X133373368Y-63676518D01*
X133402632Y-63679400D01*
X133824060Y-63679400D01*
X133824060Y-64100828D01*
X133826942Y-64130092D01*
X133849340Y-64184164D01*
X133890724Y-64225548D01*
X133944796Y-64247946D01*
X134003324Y-64247946D01*
X134057396Y-64225548D01*
X134098780Y-64184164D01*
X134121178Y-64130092D01*
X134124060Y-64100828D01*
X134124060Y-63679400D01*
X134545489Y-63679400D01*
X134574753Y-63676518D01*
X134628825Y-63654120D01*
X134670209Y-63612736D01*
X134692607Y-63558664D01*
X134692607Y-63500136D01*
X134670209Y-63446064D01*
X134628825Y-63404680D01*
X134574753Y-63382282D01*
X134545489Y-63379400D01*
X134124060Y-63379400D01*
X134124060Y-62957971D01*
X134121178Y-62928707D01*
X134098780Y-62874635D01*
X134057396Y-62833251D01*
X134003324Y-62810853D01*
X133944796Y-62810853D01*
X133890724Y-62833251D01*
X133849340Y-62874635D01*
X133826942Y-62928707D01*
X133824060Y-62957971D01*
X133824060Y-63379400D01*
X133402632Y-63379400D01*
X133373368Y-63382282D01*
X133319296Y-63404680D01*
X133277912Y-63446064D01*
X133255514Y-63500136D01*
X132481203Y-63500136D01*
X132481203Y-63034389D01*
X132510851Y-63064037D01*
X132522353Y-63073477D01*
X132524949Y-63076470D01*
X132529458Y-63079308D01*
X132533581Y-63082692D01*
X132537243Y-63084208D01*
X132549835Y-63092135D01*
X132692691Y-63163564D01*
X132720155Y-63174073D01*
X132778535Y-63178222D01*
X132834057Y-63159715D01*
X132878273Y-63121368D01*
X132904447Y-63069019D01*
X132908596Y-63010639D01*
X132890088Y-62955116D01*
X132851742Y-62910901D01*
X132826856Y-62895236D01*
X132705771Y-62834693D01*
X132590630Y-62719552D01*
X132456011Y-62517623D01*
X132455942Y-62517539D01*
X132455923Y-62517492D01*
X132455816Y-62517385D01*
X132437380Y-62494873D01*
X132425040Y-62486609D01*
X132414539Y-62476108D01*
X132400961Y-62470483D01*
X132388750Y-62462306D01*
X132374187Y-62459393D01*
X132360467Y-62453710D01*
X132345771Y-62453710D01*
X132331361Y-62450828D01*
X132316792Y-62453710D01*
X132301939Y-62453710D01*
X132288360Y-62459334D01*
X132273946Y-62462186D01*
X132261588Y-62470424D01*
X132247867Y-62476108D01*
X132237475Y-62486499D01*
X132225248Y-62494651D01*
X132216984Y-62506990D01*
X132206483Y-62517492D01*
X132200858Y-62531069D01*
X132192681Y-62543281D01*
X132189768Y-62557843D01*
X132184085Y-62571564D01*
X132181233Y-62600516D01*
X132181203Y-62600670D01*
X132181213Y-62600722D01*
X132181203Y-62600828D01*
X132181203Y-63950828D01*
X131902631Y-63950828D01*
X131873367Y-63953710D01*
X131819295Y-63976108D01*
X131777911Y-64017492D01*
X131755513Y-64071564D01*
X131549750Y-64071564D01*
X131527353Y-64017492D01*
X131508698Y-63994762D01*
X130676593Y-63162657D01*
X130624060Y-63005058D01*
X130624060Y-62921952D01*
X130668767Y-62832538D01*
X130705771Y-62795535D01*
X130795185Y-62750828D01*
X131081508Y-62750828D01*
X131170921Y-62795535D01*
X131225137Y-62849751D01*
X131247867Y-62868406D01*
X131301940Y-62890802D01*
X131360466Y-62890802D01*
X131414538Y-62868406D01*
X131455924Y-62827020D01*
X131478320Y-62772948D01*
X131478320Y-62714422D01*
X131455924Y-62660349D01*
X131437269Y-62637619D01*
X131365841Y-62566191D01*
X131354339Y-62556751D01*
X131351743Y-62553758D01*
X131347229Y-62550917D01*
X131343110Y-62547536D01*
X131339450Y-62546020D01*
X131326857Y-62538093D01*
X131184000Y-62466664D01*
X131156537Y-62456155D01*
X131151162Y-62455773D01*
X131146182Y-62453710D01*
X131116918Y-62450828D01*
X130759775Y-62450828D01*
X130730511Y-62453710D01*
X130725530Y-62455773D01*
X130720156Y-62456155D01*
X130692692Y-62466664D01*
X130549836Y-62538093D01*
X130537242Y-62546020D01*
X130533583Y-62547536D01*
X130529462Y-62550917D01*
X130524950Y-62553758D01*
X130522353Y-62556751D01*
X130510853Y-62566190D01*
X130439424Y-62637618D01*
X130429984Y-62649120D01*
X130426990Y-62651717D01*
X130424148Y-62656231D01*
X130420769Y-62660349D01*
X130419253Y-62664007D01*
X130411325Y-62676603D01*
X130339896Y-62819460D01*
X130329387Y-62846923D01*
X130329005Y-62852297D01*
X130326942Y-62857278D01*
X130324060Y-62886542D01*
X130157393Y-62886542D01*
X130157393Y-62284161D01*
X134859274Y-62284161D01*
X134859274Y-64417495D01*
G37*
G36*
X97909274Y-64417495D02*
G01*
X93207393Y-64417495D01*
X93207393Y-62886542D01*
X93374060Y-62886542D01*
X93374060Y-63029400D01*
X93375518Y-63044211D01*
X93375238Y-63048161D01*
X93376419Y-63053355D01*
X93376942Y-63058664D01*
X93378458Y-63062325D01*
X93381758Y-63076835D01*
X93453187Y-63291119D01*
X93465175Y-63317970D01*
X93468705Y-63322040D01*
X93470768Y-63327020D01*
X93489423Y-63349751D01*
X94090500Y-63950828D01*
X93524060Y-63950828D01*
X93494796Y-63953710D01*
X93440724Y-63976108D01*
X93399340Y-64017492D01*
X93376942Y-64071564D01*
X93376942Y-64130092D01*
X93399340Y-64184164D01*
X93440724Y-64225548D01*
X93494796Y-64247946D01*
X93524060Y-64250828D01*
X94452632Y-64250828D01*
X94481896Y-64247946D01*
X94504293Y-64238668D01*
X94535967Y-64225549D01*
X94577353Y-64184163D01*
X94599750Y-64130091D01*
X94599750Y-64071565D01*
X94599750Y-64071564D01*
X94805513Y-64071564D01*
X94805513Y-64130092D01*
X94827911Y-64184164D01*
X94869295Y-64225548D01*
X94923367Y-64247946D01*
X94952631Y-64250828D01*
X95809774Y-64250828D01*
X95839038Y-64247946D01*
X95893110Y-64225548D01*
X95934494Y-64184164D01*
X95956892Y-64130092D01*
X95956892Y-64071564D01*
X95934494Y-64017492D01*
X95893110Y-63976108D01*
X95839038Y-63953710D01*
X95809774Y-63950828D01*
X95531203Y-63950828D01*
X95531203Y-63500136D01*
X96305514Y-63500136D01*
X96305514Y-63558664D01*
X96327912Y-63612736D01*
X96369296Y-63654120D01*
X96423368Y-63676518D01*
X96452632Y-63679400D01*
X96874060Y-63679400D01*
X96874060Y-64100828D01*
X96876942Y-64130092D01*
X96899340Y-64184164D01*
X96940724Y-64225548D01*
X96994796Y-64247946D01*
X97053324Y-64247946D01*
X97107396Y-64225548D01*
X97148780Y-64184164D01*
X97171178Y-64130092D01*
X97174060Y-64100828D01*
X97174060Y-63679400D01*
X97595489Y-63679400D01*
X97624753Y-63676518D01*
X97678825Y-63654120D01*
X97720209Y-63612736D01*
X97742607Y-63558664D01*
X97742607Y-63500136D01*
X97720209Y-63446064D01*
X97678825Y-63404680D01*
X97624753Y-63382282D01*
X97595489Y-63379400D01*
X97174060Y-63379400D01*
X97174060Y-62957971D01*
X97171178Y-62928707D01*
X97148780Y-62874635D01*
X97107396Y-62833251D01*
X97053324Y-62810853D01*
X96994796Y-62810853D01*
X96940724Y-62833251D01*
X96899340Y-62874635D01*
X96876942Y-62928707D01*
X96874060Y-62957971D01*
X96874060Y-63379400D01*
X96452632Y-63379400D01*
X96423368Y-63382282D01*
X96369296Y-63404680D01*
X96327912Y-63446064D01*
X96305514Y-63500136D01*
X95531203Y-63500136D01*
X95531203Y-63034389D01*
X95560851Y-63064037D01*
X95572353Y-63073477D01*
X95574949Y-63076470D01*
X95579458Y-63079308D01*
X95583581Y-63082692D01*
X95587243Y-63084208D01*
X95599835Y-63092135D01*
X95742691Y-63163564D01*
X95770155Y-63174073D01*
X95828535Y-63178222D01*
X95884057Y-63159715D01*
X95928273Y-63121368D01*
X95954447Y-63069019D01*
X95958596Y-63010639D01*
X95940088Y-62955116D01*
X95901742Y-62910901D01*
X95876856Y-62895236D01*
X95755771Y-62834693D01*
X95640630Y-62719552D01*
X95506011Y-62517623D01*
X95505942Y-62517539D01*
X95505923Y-62517492D01*
X95505816Y-62517385D01*
X95487380Y-62494873D01*
X95475040Y-62486609D01*
X95464539Y-62476108D01*
X95450961Y-62470483D01*
X95438750Y-62462306D01*
X95424187Y-62459393D01*
X95410467Y-62453710D01*
X95395771Y-62453710D01*
X95381361Y-62450828D01*
X95366792Y-62453710D01*
X95351939Y-62453710D01*
X95338360Y-62459334D01*
X95323946Y-62462186D01*
X95311588Y-62470424D01*
X95297867Y-62476108D01*
X95287475Y-62486499D01*
X95275248Y-62494651D01*
X95266984Y-62506990D01*
X95256483Y-62517492D01*
X95250858Y-62531069D01*
X95242681Y-62543281D01*
X95239768Y-62557843D01*
X95234085Y-62571564D01*
X95231233Y-62600516D01*
X95231203Y-62600670D01*
X95231213Y-62600722D01*
X95231203Y-62600828D01*
X95231203Y-63950828D01*
X94952631Y-63950828D01*
X94923367Y-63953710D01*
X94869295Y-63976108D01*
X94827911Y-64017492D01*
X94805513Y-64071564D01*
X94599750Y-64071564D01*
X94577353Y-64017492D01*
X94558698Y-63994762D01*
X93726593Y-63162657D01*
X93674060Y-63005058D01*
X93674060Y-62921952D01*
X93718767Y-62832538D01*
X93755771Y-62795535D01*
X93845185Y-62750828D01*
X94131508Y-62750828D01*
X94220921Y-62795535D01*
X94275137Y-62849751D01*
X94297867Y-62868406D01*
X94351940Y-62890802D01*
X94410466Y-62890802D01*
X94464538Y-62868406D01*
X94505924Y-62827020D01*
X94528320Y-62772948D01*
X94528320Y-62714422D01*
X94505924Y-62660349D01*
X94487269Y-62637619D01*
X94415841Y-62566191D01*
X94404339Y-62556751D01*
X94401743Y-62553758D01*
X94397229Y-62550917D01*
X94393110Y-62547536D01*
X94389450Y-62546020D01*
X94376857Y-62538093D01*
X94234000Y-62466664D01*
X94206537Y-62456155D01*
X94201162Y-62455773D01*
X94196182Y-62453710D01*
X94166918Y-62450828D01*
X93809775Y-62450828D01*
X93780511Y-62453710D01*
X93775530Y-62455773D01*
X93770156Y-62456155D01*
X93742692Y-62466664D01*
X93599836Y-62538093D01*
X93587242Y-62546020D01*
X93583583Y-62547536D01*
X93579462Y-62550917D01*
X93574950Y-62553758D01*
X93572353Y-62556751D01*
X93560853Y-62566190D01*
X93489424Y-62637618D01*
X93479984Y-62649120D01*
X93476990Y-62651717D01*
X93474148Y-62656231D01*
X93470769Y-62660349D01*
X93469253Y-62664007D01*
X93461325Y-62676603D01*
X93389896Y-62819460D01*
X93379387Y-62846923D01*
X93379005Y-62852297D01*
X93376942Y-62857278D01*
X93374060Y-62886542D01*
X93207393Y-62886542D01*
X93207393Y-62284161D01*
X97909274Y-62284161D01*
X97909274Y-64417495D01*
G37*
D12*
G36*
X104014455Y-90017685D02*
G01*
X104026182Y-90024633D01*
X104036815Y-90030741D01*
X104046480Y-90036034D01*
X104055302Y-90040533D01*
X104063404Y-90044262D01*
X104070912Y-90047245D01*
X104077951Y-90049504D01*
X104084645Y-90051062D01*
X104087901Y-90051586D01*
X104091118Y-90051943D01*
X104094311Y-90052136D01*
X104097496Y-90052169D01*
X104103903Y-90051764D01*
X104110464Y-90050751D01*
X104117304Y-90049153D01*
X104124547Y-90046992D01*
X104132317Y-90044293D01*
X104140741Y-90041078D01*
X104152109Y-90036915D01*
X104163080Y-90033546D01*
X104173654Y-90030970D01*
X104183833Y-90029189D01*
X104193620Y-90028203D01*
X104203017Y-90028012D01*
X104212025Y-90028617D01*
X104220647Y-90030018D01*
X104224813Y-90031017D01*
X104228884Y-90032215D01*
X104232859Y-90033613D01*
X104236739Y-90035209D01*
X104240523Y-90037005D01*
X104244213Y-90039001D01*
X104247808Y-90041196D01*
X104251308Y-90043590D01*
X104254715Y-90046184D01*
X104258027Y-90048978D01*
X104264372Y-90055164D01*
X104270344Y-90062150D01*
X104275945Y-90069934D01*
X104282063Y-90079708D01*
X104287344Y-90089268D01*
X104291790Y-90098611D01*
X104295407Y-90107734D01*
X104298197Y-90116633D01*
X104300164Y-90125305D01*
X104301312Y-90133747D01*
X104301644Y-90141954D01*
X104301163Y-90149925D01*
X104299875Y-90157654D01*
X104297781Y-90165140D01*
X104294886Y-90172378D01*
X104291193Y-90179365D01*
X104286705Y-90186098D01*
X104281428Y-90192573D01*
X104275363Y-90198787D01*
X104268515Y-90204737D01*
X104260887Y-90210419D01*
X104252483Y-90215830D01*
X104243306Y-90220966D01*
X104233360Y-90225825D01*
X104222649Y-90230402D01*
X104211176Y-90234694D01*
X104198945Y-90238698D01*
X104185959Y-90242410D01*
X104172222Y-90245828D01*
X104157738Y-90248947D01*
X104142510Y-90251765D01*
X104126542Y-90254277D01*
X104109837Y-90256481D01*
X104092399Y-90258373D01*
X104074232Y-90259950D01*
X104051462Y-90262040D01*
X104029999Y-90264738D01*
X104009799Y-90268066D01*
X103990817Y-90272047D01*
X103973008Y-90276705D01*
X103956329Y-90282061D01*
X103940734Y-90288139D01*
X103926180Y-90294961D01*
X103912623Y-90302550D01*
X103900017Y-90310928D01*
X103888319Y-90320119D01*
X103877484Y-90330145D01*
X103867468Y-90341029D01*
X103858227Y-90352794D01*
X103849715Y-90365462D01*
X103841890Y-90379056D01*
X103841504Y-90379731D01*
X103841067Y-90380414D01*
X103840579Y-90381104D01*
X103840043Y-90381798D01*
X103838831Y-90383196D01*
X103837445Y-90384600D01*
X103835899Y-90386001D01*
X103834205Y-90387391D01*
X103832378Y-90388760D01*
X103830432Y-90390098D01*
X103828379Y-90391399D01*
X103826234Y-90392651D01*
X103824010Y-90393847D01*
X103821721Y-90394977D01*
X103819380Y-90396032D01*
X103817002Y-90397004D01*
X103814599Y-90397883D01*
X103812185Y-90398660D01*
X103808734Y-90399724D01*
X103805637Y-90400750D01*
X103802874Y-90401757D01*
X103800429Y-90402762D01*
X103798282Y-90403782D01*
X103796416Y-90404836D01*
X103795583Y-90405380D01*
X103794814Y-90405940D01*
X103794105Y-90406516D01*
X103793456Y-90407112D01*
X103792863Y-90407729D01*
X103792325Y-90408370D01*
X103791840Y-90409037D01*
X103791404Y-90409732D01*
X103791016Y-90410457D01*
X103790673Y-90411214D01*
X103790374Y-90412006D01*
X103790116Y-90412835D01*
X103789714Y-90414611D01*
X103789449Y-90416561D01*
X103789303Y-90418703D01*
X103789258Y-90421052D01*
X103789231Y-90423666D01*
X103789118Y-90425978D01*
X103789015Y-90427030D01*
X103788875Y-90428014D01*
X103788692Y-90428936D01*
X103788460Y-90429798D01*
X103788173Y-90430602D01*
X103787827Y-90431353D01*
X103787415Y-90432052D01*
X103786932Y-90432704D01*
X103786373Y-90433310D01*
X103785732Y-90433874D01*
X103785003Y-90434399D01*
X103784182Y-90434888D01*
X103783262Y-90435344D01*
X103782238Y-90435771D01*
X103781105Y-90436170D01*
X103779857Y-90436545D01*
X103778488Y-90436899D01*
X103776993Y-90437235D01*
X103775366Y-90437557D01*
X103773603Y-90437866D01*
X103769643Y-90438462D01*
X103765068Y-90439045D01*
X103759835Y-90439642D01*
X103753900Y-90440275D01*
X103730938Y-90442524D01*
X103712740Y-90443889D01*
X103705263Y-90444219D01*
X103698781Y-90444301D01*
X103693227Y-90444127D01*
X103688537Y-90443688D01*
X103684643Y-90442976D01*
X103681482Y-90441981D01*
X103678987Y-90440696D01*
X103677093Y-90439110D01*
X103675734Y-90437215D01*
X103674844Y-90435002D01*
X103674358Y-90432464D01*
X103674211Y-90429590D01*
X103674215Y-90429593D01*
X103674179Y-90427548D01*
X103674068Y-90425693D01*
X103673873Y-90424021D01*
X103673742Y-90423251D01*
X103673587Y-90422524D01*
X103673407Y-90421838D01*
X103673201Y-90421193D01*
X103672968Y-90420587D01*
X103672707Y-90420020D01*
X103672417Y-90419490D01*
X103672098Y-90418997D01*
X103671747Y-90418539D01*
X103671365Y-90418116D01*
X103670950Y-90417727D01*
X103670501Y-90417369D01*
X103670018Y-90417044D01*
X103669499Y-90416749D01*
X103668942Y-90416483D01*
X103668349Y-90416245D01*
X103667716Y-90416035D01*
X103667044Y-90415852D01*
X103666331Y-90415694D01*
X103665576Y-90415560D01*
X103663937Y-90415361D01*
X103662120Y-90415248D01*
X103660116Y-90415212D01*
X103656380Y-90415147D01*
X103652815Y-90414953D01*
X103649422Y-90414629D01*
X103646199Y-90414175D01*
X103643147Y-90413590D01*
X103640265Y-90412875D01*
X103637554Y-90412029D01*
X103635013Y-90411052D01*
X103632643Y-90409944D01*
X103630442Y-90408705D01*
X103628412Y-90407334D01*
X103626551Y-90405831D01*
X103624861Y-90404196D01*
X103623340Y-90402428D01*
X103621988Y-90400529D01*
X103620806Y-90398496D01*
X103619793Y-90396330D01*
X103618950Y-90394032D01*
X103618275Y-90391599D01*
X103617770Y-90389034D01*
X103617433Y-90386334D01*
X103617265Y-90383500D01*
X103617266Y-90380532D01*
X103617435Y-90377429D01*
X103617773Y-90374192D01*
X103618279Y-90370819D01*
X103618953Y-90367312D01*
X103619795Y-90363669D01*
X103620805Y-90359890D01*
X103621983Y-90355975D01*
X103623328Y-90351925D01*
X103624841Y-90347738D01*
X103627996Y-90338754D01*
X103630653Y-90329927D01*
X103632812Y-90321257D01*
X103634474Y-90312742D01*
X103635639Y-90304381D01*
X103636306Y-90296173D01*
X103636476Y-90288115D01*
X103636148Y-90280208D01*
X103635323Y-90272449D01*
X103634000Y-90264837D01*
X103632180Y-90257372D01*
X103629862Y-90250051D01*
X103627047Y-90242874D01*
X103623735Y-90235839D01*
X103619925Y-90228945D01*
X103615617Y-90222190D01*
X103613142Y-90219264D01*
X103610027Y-90216768D01*
X103606308Y-90214693D01*
X103602017Y-90213029D01*
X103597189Y-90211765D01*
X103591857Y-90210891D01*
X103586056Y-90210397D01*
X103579819Y-90210272D01*
X103573180Y-90210506D01*
X103566174Y-90211089D01*
X103551192Y-90213261D01*
X103535146Y-90216704D01*
X103518307Y-90221337D01*
X103500944Y-90227078D01*
X103483330Y-90233844D01*
X103465736Y-90241554D01*
X103448432Y-90250124D01*
X103431691Y-90259472D01*
X103415782Y-90269517D01*
X103400977Y-90280176D01*
X103394074Y-90285710D01*
X103387548Y-90291367D01*
X103384548Y-90293916D01*
X103381271Y-90296392D01*
X103373900Y-90301126D01*
X103365455Y-90305563D01*
X103355956Y-90309700D01*
X103345423Y-90313533D01*
X103333877Y-90317058D01*
X103321338Y-90320271D01*
X103307826Y-90323168D01*
X103293362Y-90325745D01*
X103277965Y-90327999D01*
X103261657Y-90329924D01*
X103244456Y-90331518D01*
X103226384Y-90332777D01*
X103207461Y-90333695D01*
X103187707Y-90334270D01*
X103167142Y-90334497D01*
X103094366Y-90334678D01*
X103081666Y-90313159D01*
X103076630Y-90302256D01*
X103074323Y-90291425D01*
X103074606Y-90280701D01*
X103077340Y-90270122D01*
X103082388Y-90259724D01*
X103089610Y-90249543D01*
X103098867Y-90239615D01*
X103110022Y-90229978D01*
X103122936Y-90220667D01*
X103137470Y-90211719D01*
X103153486Y-90203170D01*
X103170845Y-90195057D01*
X103189408Y-90187416D01*
X103209037Y-90180284D01*
X103250939Y-90167691D01*
X103295442Y-90157570D01*
X103341438Y-90150211D01*
X103387817Y-90145907D01*
X103410804Y-90144991D01*
X103433472Y-90144948D01*
X103455681Y-90145815D01*
X103477294Y-90147627D01*
X103498171Y-90150422D01*
X103518174Y-90154234D01*
X103537164Y-90159102D01*
X103555004Y-90165062D01*
X103571554Y-90172149D01*
X103586675Y-90180400D01*
X103589397Y-90182032D01*
X103592030Y-90183505D01*
X103594593Y-90184808D01*
X103597103Y-90185930D01*
X103599578Y-90186859D01*
X103602036Y-90187586D01*
X103604495Y-90188097D01*
X103606974Y-90188384D01*
X103609489Y-90188433D01*
X103612060Y-90188235D01*
X103614704Y-90187778D01*
X103617439Y-90187050D01*
X103620283Y-90186042D01*
X103623255Y-90184742D01*
X103626371Y-90183138D01*
X103629650Y-90181220D01*
X103633110Y-90178976D01*
X103636770Y-90176396D01*
X103640646Y-90173468D01*
X103644757Y-90170181D01*
X103649121Y-90166525D01*
X103653756Y-90162487D01*
X103658681Y-90158057D01*
X103663911Y-90153224D01*
X103675366Y-90142304D01*
X103688264Y-90129637D01*
X103702749Y-90115136D01*
X103718965Y-90098711D01*
X103803651Y-90012608D01*
X103879728Y-89997586D01*
X103955804Y-89982561D01*
X104014455Y-90017685D01*
G37*
G36*
X102749186Y-90184391D02*
G01*
X102755106Y-90188596D01*
X102759578Y-90195183D01*
X102761916Y-90200409D01*
X102764017Y-90205753D01*
X102767515Y-90216782D01*
X102770077Y-90228238D01*
X102771710Y-90240089D01*
X102772420Y-90252305D01*
X102772212Y-90264853D01*
X102771092Y-90277701D01*
X102769067Y-90290818D01*
X102766143Y-90304172D01*
X102762324Y-90317732D01*
X102757618Y-90331465D01*
X102752030Y-90345340D01*
X102745567Y-90359326D01*
X102738233Y-90373390D01*
X102730036Y-90387501D01*
X102720981Y-90401627D01*
X102648536Y-90509094D01*
X102624570Y-90545648D01*
X102603035Y-90580863D01*
X102593080Y-90598172D01*
X102583613Y-90615391D01*
X102574596Y-90632603D01*
X102565988Y-90649888D01*
X102557750Y-90667329D01*
X102549841Y-90685008D01*
X102542224Y-90703005D01*
X102534857Y-90721404D01*
X102520717Y-90759730D01*
X102507104Y-90800642D01*
X102475258Y-90900291D01*
X102464820Y-90930799D01*
X102460496Y-90942299D01*
X102456588Y-90951708D01*
X102452959Y-90959331D01*
X102449473Y-90965477D01*
X102445994Y-90970453D01*
X102442387Y-90974566D01*
X102438515Y-90978124D01*
X102434242Y-90981434D01*
X102423950Y-90988539D01*
X102417788Y-90992716D01*
X102412254Y-90996338D01*
X102407288Y-90999405D01*
X102402827Y-91001918D01*
X102398811Y-91003877D01*
X102396951Y-91004649D01*
X102395180Y-91005282D01*
X102393489Y-91005778D01*
X102391871Y-91006135D01*
X102390319Y-91006354D01*
X102388825Y-91006435D01*
X102387382Y-91006378D01*
X102385981Y-91006184D01*
X102384615Y-91005851D01*
X102383276Y-91005381D01*
X102381958Y-91004773D01*
X102380651Y-91004027D01*
X102379349Y-91003144D01*
X102378045Y-91002123D01*
X102376729Y-91000965D01*
X102375396Y-90999670D01*
X102372643Y-90996666D01*
X102369726Y-90993114D01*
X102366584Y-90989014D01*
X102366512Y-90989014D01*
X102364175Y-90985259D01*
X102361998Y-90980484D01*
X102358120Y-90968095D01*
X102354876Y-90952285D01*
X102352263Y-90933494D01*
X102350277Y-90912160D01*
X102348916Y-90888723D01*
X102348176Y-90863620D01*
X102348055Y-90837291D01*
X102348550Y-90810176D01*
X102349658Y-90782712D01*
X102351376Y-90755338D01*
X102353701Y-90728494D01*
X102356630Y-90702618D01*
X102360160Y-90678149D01*
X102364289Y-90655526D01*
X102369012Y-90635188D01*
X102374226Y-90617689D01*
X102380842Y-90599361D01*
X102397895Y-90560649D01*
X102419412Y-90519908D01*
X102444634Y-90477994D01*
X102472799Y-90435763D01*
X102503149Y-90394072D01*
X102534923Y-90353776D01*
X102567361Y-90315732D01*
X102599703Y-90280796D01*
X102631189Y-90249824D01*
X102661060Y-90223672D01*
X102688555Y-90203197D01*
X102701174Y-90195355D01*
X102712914Y-90189254D01*
X102723681Y-90185000D01*
X102733378Y-90182700D01*
X102741911Y-90182461D01*
X102749186Y-90184391D01*
G37*
G36*
X103997955Y-90848089D02*
G01*
X104013616Y-90848890D01*
X104045072Y-90850884D01*
X104069083Y-90852867D01*
X104078683Y-90853994D01*
X104086884Y-90855285D01*
X104093841Y-90856797D01*
X104099708Y-90858585D01*
X104104640Y-90860706D01*
X104108790Y-90863214D01*
X104112313Y-90866166D01*
X104115364Y-90869618D01*
X104118096Y-90873626D01*
X104120664Y-90878244D01*
X104125925Y-90889539D01*
X104128860Y-90895851D01*
X104132172Y-90902422D01*
X104135748Y-90909061D01*
X104139474Y-90915574D01*
X104143237Y-90921769D01*
X104146924Y-90927453D01*
X104150421Y-90932434D01*
X104152063Y-90934600D01*
X104153615Y-90936518D01*
X104168191Y-90953838D01*
X104244783Y-90945623D01*
X104313878Y-90939545D01*
X104382250Y-90935947D01*
X104447196Y-90934723D01*
X104506013Y-90935768D01*
X104555998Y-90938976D01*
X104576834Y-90941358D01*
X104594449Y-90944241D01*
X104608503Y-90947612D01*
X104618661Y-90951457D01*
X104624583Y-90955765D01*
X104625850Y-90958087D01*
X104625932Y-90960520D01*
X104624969Y-90965202D01*
X104624614Y-90967067D01*
X104624349Y-90968621D01*
X104624177Y-90969867D01*
X104624103Y-90970811D01*
X104624131Y-90971456D01*
X104624184Y-90971669D01*
X104624264Y-90971808D01*
X104624372Y-90971875D01*
X104624507Y-90971870D01*
X104624671Y-90971794D01*
X104624863Y-90971647D01*
X104625337Y-90971143D01*
X104625932Y-90970363D01*
X104626653Y-90969310D01*
X104627502Y-90967990D01*
X104629606Y-90964565D01*
X104632410Y-90959967D01*
X104634903Y-90955953D01*
X104636810Y-90952956D01*
X104637458Y-90951973D01*
X104637857Y-90951407D01*
X104637946Y-90951332D01*
X104638072Y-90951275D01*
X104638234Y-90951236D01*
X104638430Y-90951215D01*
X104638660Y-90951211D01*
X104638923Y-90951224D01*
X104639543Y-90951300D01*
X104640283Y-90951441D01*
X104641132Y-90951643D01*
X104642085Y-90951904D01*
X104643133Y-90952222D01*
X104644267Y-90952595D01*
X104645480Y-90953018D01*
X104646763Y-90953491D01*
X104648109Y-90954011D01*
X104649510Y-90954575D01*
X104650957Y-90955180D01*
X104652443Y-90955824D01*
X104653959Y-90956504D01*
X104668783Y-90963257D01*
X104654706Y-90981712D01*
X104651876Y-90985555D01*
X104649237Y-90989402D01*
X104646846Y-90993151D01*
X104644761Y-90996698D01*
X104643852Y-90998364D01*
X104643040Y-90999941D01*
X104642334Y-91001416D01*
X104641740Y-91002776D01*
X104641265Y-91004009D01*
X104640917Y-91005101D01*
X104640703Y-91006041D01*
X104640630Y-91006814D01*
X104640604Y-91007491D01*
X104640528Y-91008149D01*
X104640405Y-91008784D01*
X104640237Y-91009394D01*
X104640027Y-91009975D01*
X104639778Y-91010523D01*
X104639493Y-91011035D01*
X104639173Y-91011508D01*
X104638823Y-91011938D01*
X104638444Y-91012321D01*
X104638245Y-91012495D01*
X104638040Y-91012655D01*
X104637829Y-91012802D01*
X104637613Y-91012936D01*
X104637391Y-91013056D01*
X104637165Y-91013160D01*
X104636935Y-91013250D01*
X104636700Y-91013325D01*
X104636462Y-91013384D01*
X104636220Y-91013426D01*
X104635976Y-91013452D01*
X104635728Y-91013461D01*
X104635480Y-91013499D01*
X104635243Y-91013614D01*
X104635016Y-91013803D01*
X104634800Y-91014064D01*
X104634595Y-91014395D01*
X104634402Y-91014794D01*
X104634219Y-91015261D01*
X104634048Y-91015791D01*
X104633741Y-91017039D01*
X104633480Y-91018523D01*
X104633269Y-91020227D01*
X104633107Y-91022137D01*
X104632995Y-91024238D01*
X104632936Y-91026513D01*
X104632929Y-91028949D01*
X104632976Y-91031529D01*
X104633079Y-91034240D01*
X104633238Y-91037065D01*
X104633454Y-91039989D01*
X104633729Y-91042998D01*
X104636556Y-91072535D01*
X104550901Y-91068575D01*
X104526346Y-91067591D01*
X104504375Y-91067081D01*
X104484084Y-91067087D01*
X104464564Y-91067648D01*
X104444911Y-91068802D01*
X104424217Y-91070591D01*
X104401577Y-91073053D01*
X104376085Y-91076228D01*
X104294811Y-91086282D01*
X104256686Y-91090457D01*
X104217173Y-91094350D01*
X104124794Y-91102146D01*
X103999303Y-91111385D01*
X103919914Y-91117849D01*
X103834087Y-91126251D01*
X103748896Y-91135849D01*
X103671415Y-91145896D01*
X103532227Y-91164990D01*
X103414720Y-91179893D01*
X103306198Y-91192129D01*
X103193963Y-91203223D01*
X103144044Y-91208045D01*
X103100556Y-91212678D01*
X103061592Y-91217412D01*
X103025246Y-91222535D01*
X102989611Y-91228338D01*
X102952781Y-91235110D01*
X102912848Y-91243140D01*
X102867908Y-91252717D01*
X102826593Y-91261415D01*
X102793492Y-91267569D01*
X102779622Y-91269687D01*
X102767324Y-91271160D01*
X102756440Y-91271987D01*
X102746809Y-91272166D01*
X102738270Y-91271693D01*
X102730665Y-91270566D01*
X102723831Y-91268783D01*
X102717610Y-91266340D01*
X102711842Y-91263236D01*
X102706365Y-91259467D01*
X102701020Y-91255031D01*
X102695648Y-91249926D01*
X102695575Y-91249930D01*
X102693187Y-91247439D01*
X102690976Y-91244924D01*
X102688942Y-91242391D01*
X102687082Y-91239847D01*
X102685397Y-91237300D01*
X102683885Y-91234755D01*
X102682546Y-91232220D01*
X102681379Y-91229701D01*
X102680383Y-91227205D01*
X102679558Y-91224739D01*
X102678901Y-91222310D01*
X102678414Y-91219924D01*
X102678094Y-91217589D01*
X102677941Y-91215311D01*
X102677954Y-91213096D01*
X102678132Y-91210952D01*
X102678474Y-91208886D01*
X102678981Y-91206903D01*
X102679650Y-91205012D01*
X102680480Y-91203218D01*
X102681472Y-91201529D01*
X102682624Y-91199951D01*
X102683936Y-91198491D01*
X102685406Y-91197157D01*
X102687034Y-91195953D01*
X102688819Y-91194888D01*
X102690760Y-91193969D01*
X102692856Y-91193201D01*
X102695106Y-91192592D01*
X102697510Y-91192149D01*
X102700067Y-91191878D01*
X102702775Y-91191786D01*
X102703837Y-91191762D01*
X102704848Y-91191689D01*
X102705806Y-91191571D01*
X102706711Y-91191409D01*
X102707563Y-91191205D01*
X102708360Y-91190961D01*
X102709103Y-91190679D01*
X102709789Y-91190362D01*
X102710419Y-91190012D01*
X102710992Y-91189629D01*
X102711507Y-91189217D01*
X102711964Y-91188778D01*
X102712361Y-91188313D01*
X102712699Y-91187825D01*
X102712976Y-91187315D01*
X102713191Y-91186786D01*
X102713344Y-91186239D01*
X102713435Y-91185677D01*
X102713462Y-91185102D01*
X102713425Y-91184516D01*
X102713324Y-91183921D01*
X102713156Y-91183318D01*
X102712923Y-91182710D01*
X102712622Y-91182099D01*
X102712254Y-91181488D01*
X102711818Y-91180877D01*
X102711312Y-91180269D01*
X102710737Y-91179666D01*
X102710092Y-91179071D01*
X102709375Y-91178484D01*
X102708586Y-91177909D01*
X102707725Y-91177347D01*
X102704237Y-91174414D01*
X102702892Y-91171278D01*
X102703637Y-91167952D01*
X102706420Y-91164445D01*
X102711191Y-91160767D01*
X102717895Y-91156930D01*
X102736901Y-91148819D01*
X102763021Y-91140197D01*
X102795840Y-91131149D01*
X102834943Y-91121760D01*
X102879912Y-91112114D01*
X102930332Y-91102296D01*
X102985789Y-91092391D01*
X103045864Y-91082485D01*
X103110144Y-91072661D01*
X103178211Y-91063004D01*
X103249651Y-91053601D01*
X103324047Y-91044534D01*
X103400983Y-91035890D01*
X103426106Y-91032977D01*
X103436598Y-91031511D01*
X103445877Y-91029953D01*
X103454067Y-91028238D01*
X103461293Y-91026302D01*
X103467679Y-91024080D01*
X103473350Y-91021509D01*
X103478431Y-91018523D01*
X103483046Y-91015059D01*
X103487320Y-91011052D01*
X103491377Y-91006437D01*
X103495343Y-91001150D01*
X103499340Y-90995127D01*
X103503495Y-90988304D01*
X103507932Y-90980615D01*
X103520588Y-90958501D01*
X103525988Y-90949484D01*
X103530995Y-90941651D01*
X103535781Y-90934872D01*
X103538143Y-90931837D01*
X103540514Y-90929015D01*
X103542915Y-90926392D01*
X103545366Y-90923949D01*
X103547890Y-90921672D01*
X103550507Y-90919543D01*
X103553239Y-90917547D01*
X103556107Y-90915666D01*
X103559132Y-90913884D01*
X103562336Y-90912185D01*
X103565739Y-90910553D01*
X103569364Y-90908970D01*
X103577362Y-90905890D01*
X103586499Y-90902813D01*
X103596947Y-90899609D01*
X103622453Y-90892290D01*
X103628378Y-90890688D01*
X103634535Y-90889177D01*
X103640956Y-90887752D01*
X103647675Y-90886409D01*
X103662135Y-90883953D01*
X103678176Y-90881779D01*
X103696060Y-90879854D01*
X103716049Y-90878148D01*
X103738404Y-90876627D01*
X103763387Y-90875262D01*
X103787731Y-90873918D01*
X103810097Y-90872372D01*
X103830616Y-90870610D01*
X103849419Y-90868617D01*
X103866636Y-90866376D01*
X103882397Y-90863873D01*
X103896833Y-90861093D01*
X103910074Y-90858019D01*
X103924187Y-90854593D01*
X103936855Y-90851917D01*
X103942821Y-90850846D01*
X103948633Y-90849943D01*
X103954362Y-90849204D01*
X103960077Y-90848623D01*
X103965847Y-90848192D01*
X103971741Y-90847906D01*
X103977830Y-90847759D01*
X103984182Y-90847744D01*
X103997955Y-90848089D01*
G37*
G36*
X104102953Y-91215997D02*
G01*
X104117423Y-91216661D01*
X104130700Y-91217665D01*
X104142576Y-91219002D01*
X104152841Y-91220665D01*
X104161286Y-91222648D01*
X104167701Y-91224944D01*
X104171877Y-91227546D01*
X104173060Y-91228959D01*
X104173604Y-91230446D01*
X104174010Y-91234530D01*
X104174126Y-91238971D01*
X104173539Y-91248815D01*
X104171934Y-91259761D01*
X104169405Y-91271593D01*
X104166042Y-91284094D01*
X104161937Y-91297046D01*
X104157183Y-91310232D01*
X104151870Y-91323436D01*
X104146091Y-91336441D01*
X104139938Y-91349030D01*
X104133501Y-91360985D01*
X104126874Y-91372090D01*
X104120147Y-91382128D01*
X104113413Y-91390882D01*
X104106763Y-91398134D01*
X104103499Y-91401130D01*
X104100290Y-91403669D01*
X104086543Y-91412387D01*
X104070326Y-91420514D01*
X104051894Y-91428017D01*
X104031505Y-91434861D01*
X104009413Y-91441013D01*
X103985874Y-91446438D01*
X103961145Y-91451103D01*
X103935481Y-91454973D01*
X103909138Y-91458014D01*
X103882372Y-91460193D01*
X103855438Y-91461476D01*
X103828593Y-91461827D01*
X103802093Y-91461215D01*
X103776192Y-91459603D01*
X103751148Y-91456959D01*
X103727216Y-91453249D01*
X103727228Y-91453249D01*
X103702828Y-91448642D01*
X103681253Y-91444178D01*
X103662376Y-91439720D01*
X103646074Y-91435132D01*
X103632222Y-91430278D01*
X103626176Y-91427708D01*
X103620697Y-91425020D01*
X103615767Y-91422198D01*
X103611373Y-91419223D01*
X103607498Y-91416080D01*
X103604127Y-91412751D01*
X103601244Y-91409218D01*
X103598834Y-91405466D01*
X103596881Y-91401477D01*
X103595370Y-91397233D01*
X103594286Y-91392718D01*
X103593612Y-91387915D01*
X103593333Y-91382807D01*
X103593433Y-91377376D01*
X103593898Y-91371606D01*
X103594711Y-91365479D01*
X103597321Y-91352088D01*
X103601138Y-91337067D01*
X103606039Y-91320280D01*
X103616838Y-91284830D01*
X103652711Y-91272535D01*
X103657083Y-91271158D01*
X103662396Y-91269696D01*
X103675611Y-91266557D01*
X103691884Y-91263202D01*
X103710744Y-91259714D01*
X103731718Y-91256176D01*
X103754333Y-91252670D01*
X103778119Y-91249281D01*
X103802602Y-91246091D01*
X103898638Y-91233694D01*
X103939924Y-91228051D01*
X103969423Y-91223756D01*
X103985888Y-91221452D01*
X104002836Y-91219543D01*
X104037346Y-91216881D01*
X104071277Y-91215718D01*
X104102953Y-91215997D01*
G37*
G36*
X102640649Y-87516604D02*
G01*
X102714312Y-87521817D01*
X102750755Y-87526008D01*
X102786809Y-87531286D01*
X102822377Y-87537671D01*
X102857360Y-87545187D01*
X102906255Y-87556597D01*
X102970399Y-87618274D01*
X102985301Y-87632763D01*
X102998491Y-87646004D01*
X103010047Y-87658188D01*
X103020046Y-87669504D01*
X103028562Y-87680141D01*
X103032289Y-87685264D01*
X103035674Y-87690289D01*
X103038727Y-87695239D01*
X103041457Y-87700137D01*
X103043874Y-87705008D01*
X103045988Y-87709876D01*
X103047808Y-87714763D01*
X103049343Y-87719694D01*
X103050603Y-87724692D01*
X103051599Y-87729781D01*
X103052338Y-87734985D01*
X103052831Y-87740327D01*
X103053088Y-87745831D01*
X103053117Y-87751521D01*
X103052533Y-87763553D01*
X103051155Y-87776612D01*
X103049059Y-87790888D01*
X103046323Y-87806571D01*
X103039697Y-87842479D01*
X103062921Y-87876263D01*
X103086873Y-87912131D01*
X103097415Y-87928796D01*
X103107049Y-87944720D01*
X103115808Y-87959983D01*
X103123728Y-87974666D01*
X103130845Y-87988847D01*
X103137192Y-88002607D01*
X103142806Y-88016024D01*
X103147721Y-88029180D01*
X103151973Y-88042153D01*
X103155596Y-88055023D01*
X103158625Y-88067869D01*
X103161096Y-88080772D01*
X103163043Y-88093812D01*
X103164503Y-88107067D01*
X103167802Y-88143019D01*
X103151002Y-88143019D01*
X103149732Y-88142984D01*
X103148445Y-88142877D01*
X103147135Y-88142692D01*
X103145795Y-88142426D01*
X103144421Y-88142075D01*
X103143005Y-88141633D01*
X103141544Y-88141096D01*
X103140030Y-88140460D01*
X103138457Y-88139721D01*
X103136821Y-88138874D01*
X103135115Y-88137915D01*
X103133333Y-88136839D01*
X103129520Y-88134320D01*
X103125333Y-88131282D01*
X103120728Y-88127689D01*
X103115657Y-88123507D01*
X103110073Y-88118699D01*
X103103931Y-88113232D01*
X103097183Y-88107069D01*
X103089782Y-88100176D01*
X103081684Y-88092517D01*
X103072839Y-88084057D01*
X103055619Y-88068382D01*
X103038168Y-88054190D01*
X103020566Y-88041499D01*
X103002894Y-88030329D01*
X102985230Y-88020699D01*
X102967655Y-88012629D01*
X102950249Y-88006137D01*
X102933091Y-88001243D01*
X102916262Y-87997966D01*
X102907996Y-87996940D01*
X102899841Y-87996325D01*
X102891809Y-87996124D01*
X102883909Y-87996339D01*
X102876150Y-87996974D01*
X102868544Y-87998029D01*
X102861100Y-87999507D01*
X102853828Y-88001412D01*
X102846737Y-88003744D01*
X102839839Y-88006508D01*
X102833143Y-88009704D01*
X102826658Y-88013336D01*
X102820396Y-88017405D01*
X102814365Y-88021915D01*
X102813670Y-88022417D01*
X102812811Y-88022944D01*
X102811801Y-88023491D01*
X102810652Y-88024054D01*
X102809376Y-88024630D01*
X102807985Y-88025213D01*
X102806492Y-88025799D01*
X102804909Y-88026384D01*
X102803248Y-88026963D01*
X102801521Y-88027532D01*
X102799741Y-88028086D01*
X102797919Y-88028622D01*
X102796069Y-88029134D01*
X102794202Y-88029619D01*
X102792330Y-88030071D01*
X102790466Y-88030488D01*
X102787030Y-88031444D01*
X102783218Y-88032895D01*
X102779113Y-88034780D01*
X102774797Y-88037037D01*
X102770352Y-88039604D01*
X102765862Y-88042421D01*
X102761408Y-88045425D01*
X102757072Y-88048554D01*
X102752938Y-88051748D01*
X102749088Y-88054945D01*
X102745603Y-88058083D01*
X102742568Y-88061101D01*
X102740063Y-88063937D01*
X102738172Y-88066530D01*
X102737482Y-88067715D01*
X102736977Y-88068817D01*
X102736666Y-88069827D01*
X102736560Y-88070738D01*
X102736519Y-88071023D01*
X102736395Y-88071423D01*
X102735908Y-88072561D01*
X102735118Y-88074124D01*
X102734040Y-88076089D01*
X102731086Y-88081115D01*
X102727178Y-88087431D01*
X102722446Y-88094831D01*
X102717023Y-88103105D01*
X102711039Y-88112046D01*
X102704626Y-88121447D01*
X102692132Y-88139776D01*
X102681733Y-88155410D01*
X102674512Y-88166692D01*
X102672431Y-88170183D01*
X102671550Y-88171964D01*
X102671530Y-88172212D01*
X102671608Y-88172527D01*
X102671781Y-88172908D01*
X102672049Y-88173352D01*
X102672407Y-88173858D01*
X102672854Y-88174423D01*
X102674005Y-88175724D01*
X102675481Y-88177239D01*
X102677265Y-88178951D01*
X102679337Y-88180844D01*
X102681678Y-88182902D01*
X102684269Y-88185109D01*
X102687090Y-88187449D01*
X102690123Y-88189906D01*
X102693349Y-88192463D01*
X102696749Y-88195105D01*
X102700303Y-88197815D01*
X102703992Y-88200577D01*
X102707797Y-88203374D01*
X102739603Y-88228573D01*
X102769230Y-88256106D01*
X102796683Y-88285808D01*
X102821968Y-88317514D01*
X102845090Y-88351061D01*
X102866054Y-88386282D01*
X102884867Y-88423014D01*
X102901532Y-88461092D01*
X102916055Y-88500351D01*
X102928441Y-88540625D01*
X102938697Y-88581751D01*
X102946826Y-88623564D01*
X102952835Y-88665899D01*
X102956728Y-88708590D01*
X102958511Y-88751474D01*
X102958189Y-88794386D01*
X102955768Y-88837161D01*
X102951252Y-88879634D01*
X102944647Y-88921640D01*
X102935958Y-88963015D01*
X102925191Y-89003594D01*
X102912351Y-89043212D01*
X102897442Y-89081704D01*
X102880471Y-89118906D01*
X102861443Y-89154653D01*
X102840362Y-89188781D01*
X102817235Y-89221123D01*
X102792066Y-89251516D01*
X102764860Y-89279796D01*
X102735624Y-89305796D01*
X102704362Y-89329353D01*
X102671079Y-89350301D01*
X102654827Y-89359774D01*
X102639230Y-89368450D01*
X102624217Y-89376330D01*
X102609720Y-89383417D01*
X102595666Y-89389712D01*
X102581985Y-89395218D01*
X102568608Y-89399936D01*
X102555464Y-89403868D01*
X102542483Y-89407017D01*
X102529594Y-89409384D01*
X102516726Y-89410972D01*
X102503810Y-89411782D01*
X102490776Y-89411816D01*
X102477551Y-89411076D01*
X102464068Y-89409565D01*
X102450254Y-89407283D01*
X102424299Y-89401356D01*
X102399129Y-89393674D01*
X102374698Y-89384332D01*
X102350958Y-89373424D01*
X102327864Y-89361044D01*
X102305367Y-89347288D01*
X102283422Y-89332249D01*
X102261981Y-89316021D01*
X102240997Y-89298699D01*
X102220424Y-89280378D01*
X102200214Y-89261151D01*
X102180321Y-89241114D01*
X102160698Y-89220360D01*
X102141298Y-89198984D01*
X102102979Y-89154743D01*
X102102979Y-89154742D01*
X102090780Y-89138109D01*
X102078472Y-89118383D01*
X102066172Y-89095858D01*
X102053994Y-89070826D01*
X102042054Y-89043579D01*
X102030467Y-89014412D01*
X102019349Y-88983615D01*
X102008815Y-88951482D01*
X101998980Y-88918306D01*
X101989960Y-88884380D01*
X101981870Y-88849995D01*
X101974826Y-88815446D01*
X101968942Y-88781023D01*
X101964334Y-88747022D01*
X101961118Y-88713733D01*
X101959409Y-88681449D01*
X101960734Y-88620707D01*
X101964792Y-88561608D01*
X101971570Y-88504183D01*
X101981052Y-88448464D01*
X101993225Y-88394482D01*
X102008075Y-88342271D01*
X102020171Y-88307451D01*
X102234445Y-88307451D01*
X102299995Y-88307426D01*
X102321162Y-88308040D01*
X102341831Y-88309882D01*
X102361985Y-88312929D01*
X102381609Y-88317157D01*
X102400685Y-88322541D01*
X102419197Y-88329060D01*
X102437130Y-88336688D01*
X102454467Y-88345402D01*
X102471193Y-88355178D01*
X102487290Y-88365993D01*
X102502742Y-88377823D01*
X102517535Y-88390645D01*
X102531650Y-88404434D01*
X102545072Y-88419167D01*
X102557785Y-88434820D01*
X102569773Y-88451370D01*
X102581019Y-88468793D01*
X102591508Y-88487065D01*
X102601222Y-88506162D01*
X102610146Y-88526062D01*
X102618264Y-88546739D01*
X102625559Y-88568171D01*
X102632016Y-88590333D01*
X102637617Y-88613203D01*
X102642348Y-88636756D01*
X102646191Y-88660969D01*
X102649130Y-88685818D01*
X102651149Y-88711279D01*
X102652233Y-88737329D01*
X102652364Y-88763943D01*
X102651527Y-88791099D01*
X102649705Y-88818773D01*
X102645291Y-88861059D01*
X102639253Y-88900944D01*
X102631559Y-88938478D01*
X102622175Y-88973710D01*
X102611067Y-89006689D01*
X102598201Y-89037464D01*
X102583544Y-89066085D01*
X102567062Y-89092600D01*
X102548722Y-89117060D01*
X102528490Y-89139512D01*
X102506332Y-89160007D01*
X102482214Y-89178593D01*
X102456104Y-89195320D01*
X102427967Y-89210237D01*
X102397769Y-89223394D01*
X102365478Y-89234838D01*
X102346355Y-89240887D01*
X102338818Y-89243354D01*
X102332602Y-89245558D01*
X102327685Y-89247580D01*
X102325707Y-89248547D01*
X102324045Y-89249500D01*
X102322698Y-89250447D01*
X102321661Y-89251399D01*
X102320933Y-89252367D01*
X102320511Y-89253359D01*
X102320392Y-89254387D01*
X102320573Y-89255461D01*
X102321052Y-89256590D01*
X102321826Y-89257785D01*
X102322892Y-89259056D01*
X102324247Y-89260412D01*
X102327816Y-89263424D01*
X102332510Y-89266901D01*
X102338308Y-89270924D01*
X102353128Y-89280934D01*
X102365705Y-89289132D01*
X102377861Y-89296349D01*
X102389684Y-89302593D01*
X102401261Y-89307870D01*
X102412680Y-89312189D01*
X102424029Y-89315558D01*
X102429705Y-89316888D01*
X102435397Y-89317984D01*
X102441115Y-89318846D01*
X102446870Y-89319476D01*
X102452674Y-89319873D01*
X102458538Y-89320040D01*
X102470486Y-89319686D01*
X102482805Y-89318420D01*
X102495581Y-89316251D01*
X102508903Y-89313185D01*
X102522857Y-89309233D01*
X102537533Y-89304399D01*
X102553018Y-89298694D01*
X102553024Y-89298696D01*
X102574031Y-89289917D01*
X102594379Y-89280052D01*
X102614056Y-89269126D01*
X102633052Y-89257167D01*
X102651356Y-89244200D01*
X102668956Y-89230252D01*
X102685841Y-89215349D01*
X102702001Y-89199517D01*
X102717424Y-89182782D01*
X102732099Y-89165172D01*
X102746015Y-89146712D01*
X102759161Y-89127428D01*
X102771526Y-89107348D01*
X102783099Y-89086496D01*
X102793869Y-89064900D01*
X102803825Y-89042585D01*
X102812955Y-89019578D01*
X102821248Y-88995906D01*
X102828694Y-88971594D01*
X102835282Y-88946669D01*
X102841000Y-88921157D01*
X102845837Y-88895084D01*
X102849782Y-88868478D01*
X102852825Y-88841363D01*
X102854953Y-88813767D01*
X102856157Y-88785715D01*
X102856424Y-88757234D01*
X102855744Y-88728350D01*
X102854106Y-88699090D01*
X102851499Y-88669480D01*
X102847911Y-88639545D01*
X102843332Y-88609313D01*
X102837438Y-88579176D01*
X102830028Y-88549918D01*
X102821173Y-88521582D01*
X102810945Y-88494206D01*
X102799417Y-88467832D01*
X102786662Y-88442501D01*
X102772752Y-88418253D01*
X102757759Y-88395129D01*
X102741756Y-88373169D01*
X102724815Y-88352414D01*
X102707009Y-88332905D01*
X102688411Y-88314683D01*
X102669092Y-88297787D01*
X102649125Y-88282259D01*
X102628582Y-88268139D01*
X102607537Y-88255468D01*
X102586061Y-88244287D01*
X102564226Y-88234636D01*
X102542106Y-88226556D01*
X102519773Y-88220087D01*
X102497299Y-88215270D01*
X102474757Y-88212146D01*
X102452219Y-88210755D01*
X102429757Y-88211139D01*
X102407444Y-88213337D01*
X102385353Y-88217390D01*
X102363556Y-88223339D01*
X102342125Y-88231225D01*
X102321132Y-88241088D01*
X102300651Y-88252969D01*
X102280754Y-88266908D01*
X102261512Y-88282946D01*
X102234445Y-88307451D01*
X102020171Y-88307451D01*
X102025587Y-88291860D01*
X102045747Y-88243282D01*
X102068541Y-88196568D01*
X102093955Y-88151750D01*
X102121973Y-88108859D01*
X102152583Y-88067928D01*
X102185770Y-88028988D01*
X102221519Y-87992070D01*
X102259816Y-87957206D01*
X102300647Y-87924428D01*
X102312764Y-87915062D01*
X102322708Y-87906859D01*
X102326863Y-87903194D01*
X102330470Y-87899818D01*
X102333530Y-87896733D01*
X102336041Y-87893937D01*
X102338001Y-87891431D01*
X102339410Y-87889214D01*
X102340266Y-87887287D01*
X102340569Y-87885649D01*
X102340512Y-87884938D01*
X102340316Y-87884300D01*
X102339981Y-87883733D01*
X102339506Y-87883239D01*
X102338140Y-87882467D01*
X102336214Y-87881983D01*
X102333729Y-87881788D01*
X102330682Y-87881880D01*
X102327073Y-87882260D01*
X102322900Y-87882928D01*
X102318163Y-87883884D01*
X102312860Y-87885126D01*
X102300551Y-87888472D01*
X102285963Y-87892965D01*
X102269088Y-87898603D01*
X102249915Y-87905384D01*
X102228435Y-87913308D01*
X102180872Y-87930018D01*
X102137002Y-87943088D01*
X102096862Y-87952540D01*
X102060492Y-87958393D01*
X102043733Y-87959977D01*
X102027930Y-87960669D01*
X102013089Y-87960471D01*
X101999214Y-87959387D01*
X101986310Y-87957418D01*
X101974383Y-87954568D01*
X101963436Y-87950838D01*
X101953474Y-87946232D01*
X101944503Y-87940752D01*
X101936527Y-87934401D01*
X101929551Y-87927181D01*
X101923580Y-87919094D01*
X101918618Y-87910144D01*
X101914671Y-87900332D01*
X101911743Y-87889662D01*
X101909839Y-87878135D01*
X101908963Y-87865756D01*
X101909121Y-87852525D01*
X101910318Y-87838445D01*
X101912558Y-87823520D01*
X101915845Y-87807752D01*
X101920186Y-87791143D01*
X101925584Y-87773695D01*
X101932044Y-87755412D01*
X101939772Y-87738192D01*
X101949842Y-87721438D01*
X101962157Y-87705172D01*
X101976620Y-87689415D01*
X101993133Y-87674190D01*
X102011597Y-87659520D01*
X102031917Y-87645425D01*
X102053994Y-87631929D01*
X102077730Y-87619054D01*
X102103029Y-87606822D01*
X102129792Y-87595254D01*
X102157922Y-87584373D01*
X102217893Y-87564762D01*
X102282162Y-87548166D01*
X102349947Y-87534761D01*
X102420469Y-87524725D01*
X102492947Y-87518235D01*
X102566600Y-87515469D01*
X102640649Y-87516604D01*
G37*
G36*
X101898743Y-83776054D02*
G01*
X101952211Y-83778030D01*
X102006266Y-83781124D01*
X102060680Y-83785354D01*
X102101697Y-83789225D01*
X102135712Y-83793141D01*
X102150545Y-83795226D01*
X102164167Y-83797454D01*
X102176761Y-83799869D01*
X102188505Y-83802515D01*
X102199580Y-83805437D01*
X102210166Y-83808678D01*
X102220444Y-83812281D01*
X102230594Y-83816292D01*
X102240796Y-83820754D01*
X102251230Y-83825711D01*
X102273517Y-83837286D01*
X102284758Y-83843017D01*
X102299103Y-83849767D01*
X102315962Y-83857290D01*
X102334746Y-83865336D01*
X102354864Y-83873659D01*
X102375727Y-83882008D01*
X102396746Y-83890137D01*
X102417329Y-83897797D01*
X102564142Y-83954439D01*
X102701646Y-84014282D01*
X102830278Y-84077783D01*
X102950472Y-84145397D01*
X103062666Y-84217581D01*
X103167295Y-84294793D01*
X103264794Y-84377489D01*
X103355601Y-84466125D01*
X103440151Y-84561158D01*
X103518880Y-84663045D01*
X103592224Y-84772242D01*
X103660619Y-84889207D01*
X103724502Y-85014395D01*
X103784307Y-85148264D01*
X103840471Y-85291269D01*
X103893430Y-85443869D01*
X103939916Y-85586073D01*
X103978204Y-85623916D01*
X103985921Y-85631685D01*
X103993123Y-85639289D01*
X103999933Y-85646933D01*
X104006472Y-85654823D01*
X104012862Y-85663165D01*
X104019225Y-85672165D01*
X104025683Y-85682029D01*
X104032358Y-85692964D01*
X104039370Y-85705174D01*
X104046843Y-85718867D01*
X104054898Y-85734248D01*
X104063656Y-85751523D01*
X104073240Y-85770898D01*
X104083771Y-85792579D01*
X104108163Y-85843684D01*
X104136762Y-85903232D01*
X104162801Y-85955593D01*
X104186953Y-86001946D01*
X104209891Y-86043470D01*
X104232288Y-86081344D01*
X104254819Y-86116748D01*
X104278156Y-86150862D01*
X104302972Y-86184864D01*
X104315289Y-86200979D01*
X104327345Y-86216022D01*
X104339531Y-86230298D01*
X104352241Y-86244113D01*
X104365864Y-86257771D01*
X104380794Y-86271578D01*
X104397421Y-86285840D01*
X104416138Y-86300860D01*
X104437336Y-86316946D01*
X104461408Y-86334402D01*
X104488744Y-86353533D01*
X104519737Y-86374645D01*
X104554778Y-86398043D01*
X104594259Y-86424032D01*
X104688108Y-86485006D01*
X104710613Y-86500018D01*
X104733370Y-86516081D01*
X104756158Y-86532988D01*
X104778754Y-86550530D01*
X104800936Y-86568499D01*
X104822482Y-86586686D01*
X104843171Y-86604883D01*
X104862781Y-86622882D01*
X104881089Y-86640474D01*
X104897874Y-86657452D01*
X104912914Y-86673607D01*
X104925987Y-86688730D01*
X104936871Y-86702614D01*
X104945345Y-86715050D01*
X104951185Y-86725829D01*
X104953049Y-86730533D01*
X104954172Y-86734744D01*
X104955143Y-86742241D01*
X104955305Y-86750013D01*
X104954674Y-86758044D01*
X104953264Y-86766319D01*
X104951091Y-86774822D01*
X104948171Y-86783539D01*
X104944517Y-86792454D01*
X104940146Y-86801551D01*
X104935072Y-86810814D01*
X104929310Y-86820230D01*
X104922877Y-86829781D01*
X104915786Y-86839453D01*
X104908054Y-86849230D01*
X104899694Y-86859097D01*
X104881156Y-86879039D01*
X104860293Y-86899156D01*
X104837227Y-86919323D01*
X104812078Y-86939418D01*
X104784968Y-86959318D01*
X104756019Y-86978898D01*
X104725351Y-86998037D01*
X104693086Y-87016609D01*
X104659345Y-87034493D01*
X104647506Y-87040664D01*
X104636460Y-87046719D01*
X104626449Y-87052507D01*
X104617714Y-87057871D01*
X104610499Y-87062660D01*
X104607536Y-87064790D01*
X104605044Y-87066718D01*
X104603053Y-87068425D01*
X104601592Y-87069891D01*
X104600693Y-87071098D01*
X104600463Y-87071598D01*
X104600385Y-87072026D01*
X104600454Y-87073088D01*
X104600661Y-87074687D01*
X104601462Y-87079366D01*
X104602732Y-87085805D01*
X104604414Y-87093743D01*
X104606452Y-87102922D01*
X104608788Y-87113081D01*
X104611368Y-87123961D01*
X104614133Y-87135303D01*
X104621437Y-87166937D01*
X104627737Y-87198766D01*
X104633032Y-87230827D01*
X104637321Y-87263156D01*
X104640606Y-87295791D01*
X104642884Y-87328770D01*
X104644157Y-87362131D01*
X104644424Y-87395910D01*
X104643684Y-87430144D01*
X104641938Y-87464873D01*
X104639185Y-87500132D01*
X104635425Y-87535959D01*
X104630657Y-87572392D01*
X104624882Y-87609468D01*
X104618099Y-87647225D01*
X104610307Y-87685699D01*
X104591882Y-87771986D01*
X104592382Y-87941681D01*
X104593298Y-88032315D01*
X104594383Y-88074257D01*
X104595958Y-88115649D01*
X104598076Y-88157765D01*
X104600792Y-88201880D01*
X104608232Y-88301206D01*
X104629775Y-88554279D01*
X104650481Y-88758462D01*
X104661409Y-88846136D01*
X104673196Y-88926288D01*
X104686196Y-89000484D01*
X104700766Y-89070292D01*
X104717262Y-89137278D01*
X104736039Y-89203008D01*
X104757453Y-89269050D01*
X104781860Y-89336971D01*
X104841077Y-89484714D01*
X104916536Y-89658773D01*
X104948021Y-89730628D01*
X104974477Y-89792364D01*
X104996493Y-89845536D01*
X105014661Y-89891694D01*
X105029573Y-89932392D01*
X105041820Y-89969182D01*
X105051992Y-90003616D01*
X105060682Y-90037247D01*
X105071464Y-90082772D01*
X105079850Y-90121069D01*
X105083251Y-90138409D01*
X105086182Y-90155022D01*
X105088684Y-90171271D01*
X105090802Y-90187515D01*
X105092576Y-90204115D01*
X105094051Y-90221432D01*
X105096270Y-90259657D01*
X105097803Y-90305073D01*
X105098989Y-90360566D01*
X105099925Y-90416192D01*
X105100090Y-90463270D01*
X105099718Y-90486025D01*
X105098953Y-90509548D01*
X105097730Y-90534809D01*
X105095982Y-90562775D01*
X105090646Y-90630697D01*
X105082412Y-90721065D01*
X105055128Y-91000128D01*
X105033233Y-91080801D01*
X105017155Y-91162902D01*
X105006219Y-91246281D01*
X104999751Y-91330784D01*
X104997077Y-91416261D01*
X104997522Y-91502560D01*
X105005073Y-91677016D01*
X105027942Y-92029113D01*
X105031344Y-92116915D01*
X105032471Y-92204325D01*
X105030650Y-92291191D01*
X105025205Y-92377362D01*
X105023265Y-92400235D01*
X105022304Y-92409823D01*
X105021040Y-92419786D01*
X105019240Y-92431328D01*
X105016673Y-92445657D01*
X105013106Y-92463978D01*
X105008306Y-92487495D01*
X104999497Y-92525912D01*
X104989053Y-92563940D01*
X104976925Y-92601658D01*
X104963066Y-92639147D01*
X104947428Y-92676488D01*
X104929963Y-92713761D01*
X104910624Y-92751045D01*
X104889362Y-92788422D01*
X104866131Y-92825973D01*
X104840883Y-92863776D01*
X104813569Y-92901913D01*
X104784142Y-92940463D01*
X104752555Y-92979508D01*
X104718760Y-93019128D01*
X104682708Y-93059403D01*
X104644353Y-93100413D01*
X104624566Y-93121412D01*
X104607380Y-93140350D01*
X104592532Y-93157693D01*
X104579759Y-93173905D01*
X104574068Y-93181732D01*
X104568798Y-93189450D01*
X104563915Y-93197119D01*
X104559386Y-93204794D01*
X104555179Y-93212536D01*
X104551260Y-93220402D01*
X104547597Y-93228449D01*
X104544157Y-93236736D01*
X104540908Y-93245322D01*
X104537815Y-93254263D01*
X104531970Y-93273447D01*
X104526359Y-93294753D01*
X104520720Y-93318645D01*
X104492616Y-93449369D01*
X104489321Y-93465009D01*
X104487308Y-93475532D01*
X104485307Y-93487267D01*
X104484409Y-93491503D01*
X104482973Y-93496667D01*
X104480544Y-93504269D01*
X104476667Y-93515822D01*
X104468069Y-93536385D01*
X104456420Y-93556492D01*
X104441817Y-93576119D01*
X104424356Y-93595244D01*
X104404133Y-93613844D01*
X104381246Y-93631897D01*
X104355792Y-93649379D01*
X104327867Y-93666269D01*
X104297568Y-93682543D01*
X104264991Y-93698178D01*
X104230234Y-93713153D01*
X104193394Y-93727444D01*
X104113848Y-93753884D01*
X104027129Y-93777318D01*
X103934010Y-93797563D01*
X103835266Y-93814439D01*
X103731670Y-93827764D01*
X103623997Y-93837357D01*
X103513021Y-93843036D01*
X103399516Y-93844619D01*
X103284257Y-93841925D01*
X103168016Y-93834774D01*
X103168004Y-93834770D01*
X103043890Y-93822696D01*
X102923935Y-93807004D01*
X102808855Y-93787855D01*
X102699367Y-93765410D01*
X102596186Y-93739832D01*
X102500028Y-93711281D01*
X102454806Y-93695941D01*
X102411608Y-93679919D01*
X102370524Y-93663235D01*
X102331644Y-93645909D01*
X102303536Y-93632441D01*
X102277708Y-93619187D01*
X102253705Y-93605657D01*
X102231073Y-93591363D01*
X102220130Y-93583776D01*
X102209358Y-93575814D01*
X102198703Y-93567417D01*
X102188106Y-93558523D01*
X102177512Y-93549071D01*
X102166863Y-93538999D01*
X102156102Y-93528247D01*
X102145174Y-93516754D01*
X102122586Y-93491298D01*
X102098644Y-93462143D01*
X102072895Y-93428798D01*
X102044884Y-93390775D01*
X102014158Y-93347584D01*
X101980262Y-93298738D01*
X101901143Y-93182117D01*
X101818019Y-93057286D01*
X101746241Y-92946390D01*
X101683171Y-92844807D01*
X101626172Y-92747915D01*
X101572605Y-92651091D01*
X101519832Y-92549715D01*
X101465215Y-92439163D01*
X101406116Y-92314815D01*
X101394352Y-92289884D01*
X101384987Y-92270596D01*
X101377582Y-92256276D01*
X101374478Y-92250769D01*
X101371700Y-92246251D01*
X101369192Y-92242638D01*
X101366901Y-92239846D01*
X101364772Y-92237791D01*
X101362749Y-92236389D01*
X101360779Y-92235554D01*
X101358805Y-92235204D01*
X101356774Y-92235253D01*
X101354631Y-92235618D01*
X101342091Y-92237924D01*
X101317561Y-92242053D01*
X101284583Y-92247421D01*
X101246702Y-92253443D01*
X101150943Y-92269112D01*
X101053996Y-92285829D01*
X101000364Y-92295018D01*
X100952863Y-92301762D01*
X100931217Y-92303984D01*
X100910870Y-92305314D01*
X100891744Y-92305659D01*
X100873760Y-92304926D01*
X100856842Y-92303022D01*
X100840910Y-92299852D01*
X100825887Y-92295324D01*
X100811695Y-92289343D01*
X100798256Y-92281818D01*
X100785491Y-92272654D01*
X100773323Y-92261758D01*
X100761674Y-92249036D01*
X100750465Y-92234395D01*
X100739619Y-92217742D01*
X100729058Y-92198984D01*
X100718703Y-92178026D01*
X100708477Y-92154776D01*
X100698301Y-92129140D01*
X100696210Y-92123379D01*
X101090671Y-92123379D01*
X101090960Y-92144423D01*
X101091260Y-92154995D01*
X101091670Y-92165381D01*
X101091722Y-92166558D01*
X101091796Y-92167658D01*
X101091917Y-92168679D01*
X101092105Y-92169620D01*
X101092231Y-92170061D01*
X101092382Y-92170480D01*
X101092561Y-92170879D01*
X101092771Y-92171258D01*
X101093015Y-92171615D01*
X101093294Y-92171951D01*
X101093613Y-92172266D01*
X101093973Y-92172560D01*
X101094378Y-92172832D01*
X101094829Y-92173082D01*
X101095331Y-92173311D01*
X101095886Y-92173517D01*
X101096496Y-92173701D01*
X101097164Y-92173863D01*
X101097893Y-92174002D01*
X101098686Y-92174119D01*
X101099545Y-92174213D01*
X101100474Y-92174284D01*
X101102550Y-92174356D01*
X101104936Y-92174335D01*
X101107655Y-92174218D01*
X101110727Y-92174005D01*
X101114175Y-92173695D01*
X101118022Y-92173286D01*
X101122289Y-92172777D01*
X101126998Y-92172167D01*
X101132172Y-92171454D01*
X101137832Y-92170637D01*
X101144000Y-92169715D01*
X101157951Y-92167552D01*
X101174199Y-92164953D01*
X101214296Y-92158411D01*
X101214275Y-92158411D01*
X101254419Y-92151618D01*
X101287763Y-92145586D01*
X101310833Y-92140970D01*
X101317430Y-92139398D01*
X101320156Y-92138425D01*
X101320345Y-92136895D01*
X101319617Y-92133699D01*
X101315611Y-92122706D01*
X101298815Y-92085085D01*
X101273015Y-92031883D01*
X101241455Y-91969424D01*
X101207382Y-91904029D01*
X101174040Y-91842021D01*
X101144675Y-91789722D01*
X101122533Y-91753454D01*
X101103883Y-91725500D01*
X101099508Y-91759206D01*
X101098623Y-91766564D01*
X101097853Y-91774563D01*
X101097206Y-91782947D01*
X101096695Y-91791460D01*
X101096329Y-91799845D01*
X101096119Y-91807847D01*
X101096075Y-91815208D01*
X101096208Y-91821674D01*
X101097890Y-91879469D01*
X101098234Y-91904296D01*
X101098246Y-91926723D01*
X101097925Y-91946985D01*
X101097270Y-91965315D01*
X101096282Y-91981949D01*
X101094959Y-91997122D01*
X101093263Y-92014782D01*
X101092005Y-92030972D01*
X101091578Y-92037955D01*
X101091306Y-92043899D01*
X101091202Y-92048579D01*
X101091283Y-92051771D01*
X101091447Y-92054551D01*
X101091563Y-92058054D01*
X101091629Y-92062135D01*
X101091644Y-92066655D01*
X101091607Y-92071472D01*
X101091517Y-92076444D01*
X101091372Y-92081428D01*
X101091171Y-92086285D01*
X101090757Y-92103562D01*
X101090671Y-92123379D01*
X100696210Y-92123379D01*
X100688097Y-92101025D01*
X100677789Y-92070337D01*
X100656542Y-92000869D01*
X100633937Y-91919990D01*
X100609349Y-91826952D01*
X100582155Y-91721008D01*
X100378817Y-90940118D01*
X100294701Y-90628771D01*
X100235622Y-90420215D01*
X100213922Y-90347560D01*
X100169462Y-90306039D01*
X100146272Y-90283637D01*
X100124855Y-90261213D01*
X100105004Y-90238298D01*
X100086513Y-90214421D01*
X100077714Y-90201975D01*
X100069177Y-90189112D01*
X100060877Y-90175774D01*
X100052788Y-90161902D01*
X100044884Y-90147436D01*
X100037140Y-90132319D01*
X100022029Y-90099895D01*
X100007246Y-90064158D01*
X99992587Y-90024640D01*
X99977844Y-89980869D01*
X99962813Y-89932376D01*
X99947286Y-89878691D01*
X99931057Y-89819344D01*
X99913921Y-89753864D01*
X99895671Y-89681781D01*
X99881706Y-89623288D01*
X99870004Y-89568423D01*
X99860588Y-89516944D01*
X99853483Y-89468608D01*
X99848711Y-89423174D01*
X99846297Y-89380398D01*
X99846284Y-89366350D01*
X99942707Y-89366350D01*
X99943362Y-89386333D01*
X99944771Y-89407192D01*
X99946922Y-89429008D01*
X99949807Y-89451864D01*
X99953416Y-89475839D01*
X99962767Y-89527480D01*
X99974899Y-89584584D01*
X99989735Y-89647805D01*
X100007200Y-89717797D01*
X100039172Y-89841188D01*
X100053196Y-89892570D01*
X100066393Y-89938034D01*
X100079124Y-89978297D01*
X100091751Y-90014076D01*
X100104634Y-90046089D01*
X100118134Y-90075052D01*
X100132613Y-90101684D01*
X100148431Y-90126702D01*
X100165949Y-90150823D01*
X100185529Y-90174764D01*
X100207532Y-90199244D01*
X100232318Y-90224979D01*
X100291685Y-90283084D01*
X100339154Y-90329093D01*
X100377910Y-90367668D01*
X100408447Y-90399391D01*
X100420787Y-90412865D01*
X100431258Y-90424844D01*
X100439921Y-90435401D01*
X100446838Y-90444609D01*
X100452071Y-90452541D01*
X100455682Y-90459269D01*
X100457732Y-90464866D01*
X100458283Y-90469405D01*
X100458015Y-90471300D01*
X100457396Y-90472959D01*
X100456434Y-90474389D01*
X100455135Y-90475600D01*
X100438741Y-90487786D01*
X100414586Y-90505555D01*
X100407493Y-90510869D01*
X100404313Y-90513415D01*
X100401383Y-90515949D01*
X100398706Y-90518517D01*
X100396287Y-90521164D01*
X100394128Y-90523938D01*
X100393148Y-90525386D01*
X100392234Y-90526883D01*
X100391387Y-90528435D01*
X100390608Y-90530047D01*
X100389897Y-90531724D01*
X100389254Y-90533474D01*
X100388681Y-90535301D01*
X100388176Y-90537212D01*
X100387742Y-90539211D01*
X100387377Y-90541306D01*
X100387084Y-90543501D01*
X100386862Y-90545802D01*
X100386633Y-90550747D01*
X100386695Y-90556187D01*
X100387051Y-90562167D01*
X100387704Y-90568734D01*
X100388660Y-90575933D01*
X100389921Y-90583812D01*
X100391491Y-90592415D01*
X100393373Y-90601790D01*
X100395572Y-90611982D01*
X100398092Y-90623037D01*
X100400935Y-90635001D01*
X100407608Y-90661842D01*
X100415621Y-90692873D01*
X100425004Y-90728463D01*
X100435787Y-90768981D01*
X100550407Y-91203287D01*
X100596471Y-91378421D01*
X100617341Y-91456182D01*
X100617506Y-91456542D01*
X100617717Y-91456756D01*
X100617974Y-91456826D01*
X100618274Y-91456756D01*
X100618617Y-91456549D01*
X100619001Y-91456207D01*
X100619424Y-91455734D01*
X100619886Y-91455133D01*
X100620917Y-91453556D01*
X100622084Y-91451501D01*
X100623375Y-91448992D01*
X100624778Y-91446052D01*
X100626282Y-91442705D01*
X100627876Y-91438975D01*
X100629547Y-91434886D01*
X100631284Y-91430460D01*
X100633076Y-91425723D01*
X100634911Y-91420697D01*
X100636778Y-91415407D01*
X100638666Y-91409876D01*
X100644238Y-91394477D01*
X100650237Y-91380140D01*
X100656657Y-91366865D01*
X100663494Y-91354651D01*
X100670742Y-91343497D01*
X100678397Y-91333404D01*
X100686454Y-91324370D01*
X100694907Y-91316396D01*
X100703753Y-91309481D01*
X100712986Y-91303624D01*
X100722600Y-91298825D01*
X100732592Y-91295084D01*
X100742957Y-91292401D01*
X100753688Y-91290774D01*
X100764782Y-91290203D01*
X100776234Y-91290689D01*
X100788038Y-91292230D01*
X100800190Y-91294826D01*
X100812685Y-91298477D01*
X100825518Y-91303182D01*
X100838683Y-91308941D01*
X100852177Y-91315754D01*
X100865994Y-91323619D01*
X100880129Y-91332537D01*
X100894578Y-91342507D01*
X100909334Y-91353528D01*
X100924395Y-91365601D01*
X100939754Y-91378725D01*
X100955406Y-91392899D01*
X100971348Y-91408123D01*
X100987573Y-91424397D01*
X101004077Y-91441720D01*
X101035656Y-91476129D01*
X101065195Y-91509597D01*
X101093087Y-91542785D01*
X101119727Y-91576356D01*
X101145510Y-91610972D01*
X101170829Y-91647296D01*
X101196079Y-91685990D01*
X101221655Y-91727717D01*
X101247950Y-91773140D01*
X101275359Y-91822921D01*
X101304276Y-91877722D01*
X101335097Y-91938206D01*
X101368214Y-92005036D01*
X101404022Y-92078874D01*
X101485290Y-92250224D01*
X101549424Y-92385477D01*
X101605876Y-92500833D01*
X101658189Y-92602531D01*
X101709906Y-92696813D01*
X101764569Y-92789920D01*
X101825721Y-92888091D01*
X101896905Y-92997567D01*
X101981664Y-93124588D01*
X102058322Y-93237730D01*
X102120219Y-93326224D01*
X102146793Y-93362477D01*
X102171070Y-93394067D01*
X102193514Y-93421493D01*
X102214591Y-93445255D01*
X102234764Y-93465851D01*
X102254498Y-93483783D01*
X102274257Y-93499548D01*
X102294507Y-93513647D01*
X102315710Y-93526578D01*
X102338333Y-93538842D01*
X102389692Y-93563365D01*
X102432929Y-93581717D01*
X102480151Y-93599495D01*
X102530957Y-93616621D01*
X102584951Y-93633019D01*
X102641731Y-93648612D01*
X102700901Y-93663325D01*
X102762061Y-93677080D01*
X102824812Y-93689801D01*
X102888755Y-93701411D01*
X102953492Y-93711833D01*
X103018624Y-93720992D01*
X103083752Y-93728810D01*
X103148477Y-93735210D01*
X103212400Y-93740118D01*
X103275124Y-93743454D01*
X103336248Y-93745144D01*
X103386579Y-93745844D01*
X103387601Y-93721405D01*
X103388017Y-93706131D01*
X103387928Y-93692003D01*
X103387682Y-93685266D01*
X103387297Y-93678693D01*
X103386766Y-93672243D01*
X103386086Y-93665873D01*
X103385253Y-93659544D01*
X103384261Y-93653215D01*
X103383106Y-93646844D01*
X103381784Y-93640390D01*
X103378618Y-93627070D01*
X103374727Y-93612927D01*
X103371966Y-93603155D01*
X103369613Y-93594017D01*
X103367671Y-93585447D01*
X103366144Y-93577376D01*
X103365035Y-93569738D01*
X103364350Y-93562464D01*
X103364092Y-93555489D01*
X103364264Y-93548743D01*
X103364871Y-93542161D01*
X103365917Y-93535675D01*
X103367406Y-93529217D01*
X103369341Y-93522720D01*
X103371727Y-93516117D01*
X103373526Y-93511823D01*
X104293791Y-93511823D01*
X104293824Y-93516254D01*
X104294138Y-93520381D01*
X104294722Y-93524199D01*
X104295565Y-93527704D01*
X104296657Y-93530894D01*
X104297988Y-93533763D01*
X104299547Y-93536308D01*
X104301324Y-93538524D01*
X104303307Y-93540409D01*
X104305488Y-93541957D01*
X104307855Y-93543166D01*
X104310398Y-93544031D01*
X104313106Y-93544547D01*
X104315969Y-93544713D01*
X104318977Y-93544522D01*
X104322119Y-93543972D01*
X104325384Y-93543058D01*
X104328763Y-93541777D01*
X104332244Y-93540124D01*
X104335818Y-93538096D01*
X104339473Y-93535689D01*
X104343200Y-93532898D01*
X104346987Y-93529720D01*
X104350825Y-93526152D01*
X104354703Y-93522188D01*
X104354684Y-93522188D01*
X104359615Y-93516799D01*
X104364082Y-93511638D01*
X104368123Y-93506607D01*
X104371775Y-93501611D01*
X104375077Y-93496553D01*
X104378065Y-93491337D01*
X104379454Y-93488639D01*
X104380779Y-93485867D01*
X104383255Y-93480047D01*
X104385532Y-93473780D01*
X104387648Y-93466971D01*
X104389639Y-93459523D01*
X104391544Y-93451340D01*
X104393401Y-93442326D01*
X104395248Y-93432385D01*
X104397122Y-93421421D01*
X104399061Y-93409337D01*
X104401748Y-93392567D01*
X104404395Y-93376673D01*
X104406700Y-93363450D01*
X104408361Y-93354689D01*
X104408572Y-93352656D01*
X104408237Y-93351291D01*
X104407875Y-93350850D01*
X104407389Y-93350565D01*
X104406058Y-93350446D01*
X104404277Y-93350906D01*
X104402077Y-93351915D01*
X104399491Y-93353441D01*
X104396550Y-93355457D01*
X104389730Y-93360833D01*
X104381874Y-93367805D01*
X104373235Y-93376133D01*
X104364068Y-93385578D01*
X104354628Y-93395899D01*
X104345169Y-93406859D01*
X104335946Y-93418217D01*
X104327214Y-93429734D01*
X104319227Y-93441171D01*
X104312240Y-93452289D01*
X104309202Y-93457653D01*
X104306508Y-93462848D01*
X104304192Y-93467843D01*
X104302286Y-93472608D01*
X104300064Y-93479061D01*
X104298195Y-93485237D01*
X104296670Y-93491132D01*
X104295477Y-93496742D01*
X104294607Y-93502063D01*
X104294048Y-93507091D01*
X104293791Y-93511823D01*
X103373526Y-93511823D01*
X103374567Y-93509340D01*
X103377866Y-93502322D01*
X103381627Y-93494996D01*
X103397665Y-93464690D01*
X103409988Y-93440773D01*
X103414938Y-93430734D01*
X103419179Y-93421720D01*
X103422782Y-93413542D01*
X103425821Y-93406007D01*
X103428369Y-93398927D01*
X103430498Y-93392109D01*
X103432281Y-93385364D01*
X103433791Y-93378501D01*
X103435100Y-93371330D01*
X103436283Y-93363660D01*
X103438558Y-93346060D01*
X103441586Y-93322821D01*
X103443126Y-93312900D01*
X103444769Y-93303919D01*
X103446580Y-93295732D01*
X103448622Y-93288195D01*
X103450960Y-93281162D01*
X103453658Y-93274488D01*
X103456780Y-93268029D01*
X103460391Y-93261639D01*
X103464555Y-93255173D01*
X103469335Y-93248486D01*
X103474797Y-93241434D01*
X103481004Y-93233871D01*
X103495912Y-93216631D01*
X103507068Y-93203929D01*
X103516947Y-93192430D01*
X103525725Y-93181723D01*
X103533578Y-93171396D01*
X103537214Y-93166246D01*
X103540684Y-93161037D01*
X103544012Y-93155716D01*
X103547220Y-93150233D01*
X103550328Y-93144536D01*
X103553360Y-93138573D01*
X103556338Y-93132294D01*
X103559284Y-93125645D01*
X103562219Y-93118577D01*
X103565166Y-93111037D01*
X103571184Y-93094336D01*
X103577514Y-93075131D01*
X103584334Y-93053010D01*
X103591819Y-93027560D01*
X103600146Y-92998370D01*
X103620035Y-92927121D01*
X103637687Y-92863898D01*
X103645145Y-92838313D01*
X103652033Y-92816255D01*
X103658609Y-92797357D01*
X103665130Y-92781250D01*
X103671853Y-92767569D01*
X103679035Y-92755944D01*
X103682878Y-92750788D01*
X103686933Y-92746008D01*
X103691230Y-92741559D01*
X103695804Y-92737394D01*
X103705905Y-92729733D01*
X103717494Y-92722659D01*
X103730828Y-92715804D01*
X103746163Y-92708800D01*
X103783868Y-92692873D01*
X103806073Y-92683409D01*
X103824956Y-92674865D01*
X103833443Y-92670768D01*
X103841446Y-92666696D01*
X103849083Y-92662580D01*
X103856470Y-92658353D01*
X103863721Y-92653947D01*
X103870954Y-92649291D01*
X103878283Y-92644320D01*
X103885825Y-92638963D01*
X103902013Y-92626821D01*
X103920442Y-92612319D01*
X103973717Y-92570327D01*
X103996180Y-92553314D01*
X104016294Y-92538810D01*
X104034384Y-92526707D01*
X104050775Y-92516895D01*
X104065791Y-92509264D01*
X104072886Y-92506232D01*
X104079760Y-92503705D01*
X104086452Y-92501668D01*
X104093004Y-92500109D01*
X104099457Y-92499012D01*
X104105850Y-92498366D01*
X104112225Y-92498155D01*
X104118623Y-92498367D01*
X104125083Y-92498987D01*
X104131647Y-92500002D01*
X104145249Y-92503162D01*
X104159752Y-92507739D01*
X104175483Y-92513621D01*
X104192766Y-92520701D01*
X104222933Y-92533304D01*
X104235363Y-92538322D01*
X104246321Y-92542518D01*
X104256031Y-92545920D01*
X104264716Y-92548552D01*
X104272600Y-92550440D01*
X104279905Y-92551610D01*
X104286856Y-92552089D01*
X104293675Y-92551901D01*
X104300587Y-92551073D01*
X104307814Y-92549631D01*
X104315579Y-92547600D01*
X104324107Y-92545006D01*
X104344343Y-92538233D01*
X104366384Y-92531185D01*
X104386836Y-92525727D01*
X104396528Y-92523626D01*
X104405898Y-92521959D01*
X104414972Y-92520738D01*
X104423773Y-92519976D01*
X104432328Y-92519685D01*
X104440662Y-92519877D01*
X104448800Y-92520564D01*
X104456766Y-92521758D01*
X104464587Y-92523472D01*
X104472287Y-92525718D01*
X104479891Y-92528507D01*
X104487425Y-92531852D01*
X104494914Y-92535765D01*
X104502383Y-92540259D01*
X104509857Y-92545345D01*
X104517362Y-92551035D01*
X104524922Y-92557343D01*
X104532562Y-92564279D01*
X104540309Y-92571856D01*
X104548186Y-92580087D01*
X104564435Y-92598556D01*
X104581510Y-92619784D01*
X104599612Y-92643869D01*
X104618944Y-92670907D01*
X104640645Y-92701718D01*
X104657932Y-92725781D01*
X104671684Y-92744110D01*
X104677510Y-92751440D01*
X104682782Y-92757715D01*
X104687609Y-92763064D01*
X104692103Y-92767611D01*
X104696373Y-92771483D01*
X104700529Y-92774808D01*
X104704680Y-92777712D01*
X104708938Y-92780320D01*
X104718210Y-92785159D01*
X104725121Y-92788360D01*
X104731468Y-92790949D01*
X104734451Y-92792002D01*
X104737321Y-92792888D01*
X104740087Y-92793601D01*
X104742756Y-92794138D01*
X104745340Y-92794493D01*
X104747846Y-92794662D01*
X104750284Y-92794639D01*
X104752663Y-92794421D01*
X104754993Y-92794001D01*
X104757282Y-92793376D01*
X104759539Y-92792541D01*
X104761775Y-92791491D01*
X104763998Y-92790221D01*
X104766216Y-92788726D01*
X104768441Y-92787001D01*
X104770679Y-92785043D01*
X104772942Y-92782846D01*
X104775237Y-92780405D01*
X104777575Y-92777715D01*
X104779963Y-92774772D01*
X104782412Y-92771571D01*
X104784931Y-92768108D01*
X104790214Y-92760373D01*
X104795885Y-92751529D01*
X104802019Y-92741539D01*
X104814337Y-92720441D01*
X104825886Y-92699242D01*
X104836693Y-92677938D01*
X104846786Y-92656528D01*
X104856194Y-92635010D01*
X104864945Y-92613381D01*
X104873066Y-92591638D01*
X104880587Y-92569781D01*
X104887535Y-92547807D01*
X104893939Y-92525713D01*
X104899826Y-92503498D01*
X104905226Y-92481160D01*
X104914673Y-92436103D01*
X104922506Y-92390525D01*
X104925675Y-92366603D01*
X104927881Y-92342416D01*
X104929222Y-92318016D01*
X104929801Y-92293458D01*
X104929715Y-92268794D01*
X104929065Y-92244077D01*
X104926474Y-92194700D01*
X104918919Y-92097661D01*
X104915554Y-92050852D01*
X104913530Y-92005750D01*
X104911802Y-91869251D01*
X104912872Y-91727425D01*
X104916724Y-91580556D01*
X104923344Y-91428928D01*
X104932715Y-91272823D01*
X104944822Y-91112526D01*
X104959651Y-90948320D01*
X104977186Y-90780488D01*
X104994529Y-90605552D01*
X105000140Y-90528152D01*
X105003547Y-90456281D01*
X105004626Y-90389051D01*
X105003254Y-90325574D01*
X104999308Y-90264962D01*
X104992665Y-90206328D01*
X104983202Y-90148784D01*
X104970796Y-90091442D01*
X104955324Y-90033413D01*
X104936663Y-89973812D01*
X104914689Y-89911749D01*
X104889281Y-89846336D01*
X104860313Y-89776687D01*
X104827665Y-89701913D01*
X104771604Y-89573372D01*
X104723233Y-89457426D01*
X104684740Y-89359461D01*
X104669881Y-89318905D01*
X104658311Y-89284864D01*
X104650712Y-89261621D01*
X104643697Y-89240858D01*
X104638045Y-89224841D01*
X104635975Y-89219320D01*
X104634538Y-89215835D01*
X104633341Y-89212848D01*
X104631918Y-89208633D01*
X104628422Y-89196617D01*
X104624097Y-89179986D01*
X104618990Y-89158941D01*
X104613147Y-89133684D01*
X104606617Y-89104413D01*
X104599445Y-89071330D01*
X104591680Y-89034634D01*
X104581283Y-88980513D01*
X104571275Y-88918772D01*
X104561442Y-88847496D01*
X104551570Y-88764770D01*
X104541444Y-88668678D01*
X104530851Y-88557308D01*
X104519576Y-88428743D01*
X104507406Y-88281069D01*
X104501474Y-88197933D01*
X104499247Y-88157876D01*
X104497474Y-88117812D01*
X104496125Y-88076982D01*
X104495171Y-88034623D01*
X104494329Y-87942277D01*
X104494029Y-87873014D01*
X104493472Y-87817931D01*
X104492719Y-87782598D01*
X104492288Y-87774077D01*
X104492062Y-87772408D01*
X104491947Y-87772259D01*
X104491830Y-87772582D01*
X104491069Y-87776137D01*
X104490190Y-87779533D01*
X104489195Y-87782768D01*
X104488083Y-87785843D01*
X104486855Y-87788758D01*
X104485511Y-87791512D01*
X104484050Y-87794106D01*
X104482475Y-87796539D01*
X104480784Y-87798811D01*
X104478977Y-87800923D01*
X104477056Y-87802873D01*
X104475020Y-87804662D01*
X104472869Y-87806291D01*
X104470604Y-87807758D01*
X104468225Y-87809064D01*
X104465732Y-87810208D01*
X104463125Y-87811191D01*
X104460405Y-87812012D01*
X104457572Y-87812672D01*
X104454625Y-87813170D01*
X104451566Y-87813506D01*
X104448394Y-87813681D01*
X104445110Y-87813693D01*
X104441714Y-87813543D01*
X104438205Y-87813231D01*
X104434585Y-87812756D01*
X104430854Y-87812119D01*
X104427011Y-87811320D01*
X104423057Y-87810358D01*
X104418993Y-87809234D01*
X104414817Y-87807946D01*
X104410531Y-87806496D01*
X104403436Y-87804121D01*
X104397169Y-87802320D01*
X104394341Y-87801646D01*
X104391715Y-87801129D01*
X104389287Y-87800773D01*
X104387057Y-87800582D01*
X104385021Y-87800560D01*
X104383180Y-87800713D01*
X104381529Y-87801043D01*
X104380068Y-87801556D01*
X104378794Y-87802256D01*
X104377706Y-87803147D01*
X104376801Y-87804233D01*
X104376077Y-87805519D01*
X104375533Y-87807009D01*
X104375167Y-87808708D01*
X104374976Y-87810618D01*
X104374959Y-87812746D01*
X104375114Y-87815095D01*
X104375438Y-87817670D01*
X104375930Y-87820474D01*
X104376588Y-87823513D01*
X104377409Y-87826790D01*
X104378393Y-87830310D01*
X104380837Y-87838095D01*
X104383906Y-87846903D01*
X104387582Y-87856768D01*
X104402015Y-87901411D01*
X104415000Y-87955163D01*
X104426497Y-88016721D01*
X104436464Y-88084780D01*
X104444859Y-88158037D01*
X104451642Y-88235188D01*
X104456771Y-88314928D01*
X104460205Y-88395954D01*
X104461902Y-88476961D01*
X104461821Y-88556647D01*
X104459922Y-88633706D01*
X104456162Y-88706835D01*
X104450501Y-88774729D01*
X104442896Y-88836085D01*
X104433307Y-88889599D01*
X104421693Y-88933967D01*
X104413070Y-88957574D01*
X104402417Y-88981286D01*
X104389935Y-89004900D01*
X104375821Y-89028211D01*
X104360276Y-89051017D01*
X104343497Y-89073113D01*
X104325685Y-89094295D01*
X104307039Y-89114361D01*
X104287757Y-89133106D01*
X104268038Y-89150326D01*
X104248082Y-89165818D01*
X104228088Y-89179378D01*
X104208255Y-89190803D01*
X104188782Y-89199888D01*
X104179242Y-89203489D01*
X104169868Y-89206430D01*
X104160683Y-89208683D01*
X104151712Y-89210225D01*
X104146986Y-89210898D01*
X104142592Y-89211628D01*
X104138488Y-89212435D01*
X104134632Y-89213340D01*
X104130981Y-89214363D01*
X104127495Y-89215525D01*
X104124131Y-89216846D01*
X104120847Y-89218348D01*
X104117601Y-89220050D01*
X104114350Y-89221974D01*
X104111054Y-89224140D01*
X104107671Y-89226568D01*
X104104157Y-89229279D01*
X104100471Y-89232294D01*
X104096572Y-89235633D01*
X104092416Y-89239317D01*
X104078823Y-89250871D01*
X104065239Y-89261058D01*
X104058437Y-89265641D01*
X104051623Y-89269884D01*
X104044792Y-89273788D01*
X104037937Y-89277353D01*
X104031054Y-89280579D01*
X104024139Y-89283467D01*
X104017186Y-89286018D01*
X104010190Y-89288231D01*
X104003146Y-89290108D01*
X103996049Y-89291649D01*
X103988895Y-89292855D01*
X103981677Y-89293725D01*
X103974391Y-89294261D01*
X103967033Y-89294463D01*
X103959596Y-89294331D01*
X103952077Y-89293866D01*
X103944469Y-89293069D01*
X103936768Y-89291939D01*
X103928969Y-89290478D01*
X103921068Y-89288685D01*
X103913058Y-89286562D01*
X103904935Y-89284108D01*
X103888329Y-89278213D01*
X103871211Y-89271002D01*
X103853540Y-89262480D01*
X103847248Y-89259380D01*
X103841113Y-89256575D01*
X103835288Y-89254121D01*
X103829926Y-89252074D01*
X103825182Y-89250489D01*
X103823089Y-89249886D01*
X103821208Y-89249419D01*
X103819558Y-89249096D01*
X103818158Y-89248922D01*
X103817028Y-89248904D01*
X103816186Y-89249051D01*
X103815320Y-89248768D01*
X103813662Y-89247619D01*
X103808146Y-89242749D01*
X103799980Y-89234493D01*
X103789505Y-89222901D01*
X103777064Y-89208026D01*
X103762998Y-89189920D01*
X103747649Y-89168633D01*
X103731358Y-89144217D01*
X103722967Y-89130853D01*
X103714469Y-89116725D01*
X103705906Y-89101841D01*
X103697321Y-89086207D01*
X103688758Y-89069830D01*
X103680258Y-89052716D01*
X103671865Y-89034871D01*
X103663621Y-89016302D01*
X103655569Y-88997016D01*
X103647751Y-88977018D01*
X103640211Y-88956316D01*
X103632991Y-88934915D01*
X103626134Y-88912823D01*
X103619683Y-88890045D01*
X103613679Y-88866588D01*
X103608167Y-88842459D01*
X103598148Y-88790517D01*
X103590420Y-88738875D01*
X103584960Y-88687702D01*
X103581742Y-88637164D01*
X103580743Y-88587431D01*
X103581939Y-88538671D01*
X103585304Y-88491052D01*
X103590816Y-88444742D01*
X103598449Y-88399910D01*
X103608180Y-88356723D01*
X103619983Y-88315349D01*
X103633836Y-88275957D01*
X103649713Y-88238716D01*
X103667590Y-88203792D01*
X103671227Y-88197850D01*
X103794150Y-88197850D01*
X103794368Y-88198973D01*
X103794829Y-88199995D01*
X103795534Y-88200924D01*
X103796483Y-88201768D01*
X103797677Y-88202533D01*
X103799117Y-88203228D01*
X103800804Y-88203861D01*
X103802737Y-88204438D01*
X103804918Y-88204968D01*
X103807347Y-88205459D01*
X103812952Y-88206351D01*
X103819558Y-88207177D01*
X103827169Y-88207997D01*
X103853590Y-88213162D01*
X103878827Y-88222882D01*
X103902847Y-88236849D01*
X103925615Y-88254758D01*
X103947098Y-88276302D01*
X103967260Y-88301177D01*
X103986069Y-88329076D01*
X104003489Y-88359692D01*
X104019487Y-88392720D01*
X104034028Y-88427855D01*
X104047079Y-88464789D01*
X104058606Y-88503217D01*
X104076948Y-88583332D01*
X104088782Y-88665751D01*
X104093835Y-88748028D01*
X104093734Y-88788347D01*
X104091835Y-88827713D01*
X104088104Y-88865819D01*
X104082507Y-88902359D01*
X104075010Y-88937028D01*
X104065579Y-88969519D01*
X104054180Y-88999526D01*
X104040779Y-89026744D01*
X104025341Y-89050866D01*
X104007832Y-89071587D01*
X103988219Y-89088601D01*
X103966467Y-89101601D01*
X103942542Y-89110281D01*
X103916410Y-89114337D01*
X103901901Y-89115185D01*
X103895272Y-89115469D01*
X103883610Y-89115902D01*
X103854001Y-89117199D01*
X103850121Y-89117037D01*
X103846743Y-89116945D01*
X103843859Y-89116951D01*
X103841459Y-89117084D01*
X103840438Y-89117206D01*
X103839535Y-89117371D01*
X103838749Y-89117582D01*
X103838079Y-89117842D01*
X103837523Y-89118155D01*
X103837081Y-89118524D01*
X103836751Y-89118953D01*
X103836533Y-89119446D01*
X103836425Y-89120006D01*
X103836426Y-89120637D01*
X103836536Y-89121341D01*
X103836752Y-89122124D01*
X103837075Y-89122987D01*
X103837502Y-89123936D01*
X103838033Y-89124973D01*
X103838667Y-89126101D01*
X103840238Y-89128648D01*
X103842207Y-89131605D01*
X103847303Y-89138862D01*
X103849386Y-89141600D01*
X103851721Y-89144328D01*
X103854295Y-89147041D01*
X103857094Y-89149732D01*
X103863318Y-89155029D01*
X103870285Y-89160172D01*
X103877890Y-89165116D01*
X103886027Y-89169815D01*
X103894590Y-89174224D01*
X103903473Y-89178296D01*
X103912571Y-89181986D01*
X103921776Y-89185249D01*
X103930984Y-89188037D01*
X103940088Y-89190307D01*
X103948982Y-89192011D01*
X103957561Y-89193105D01*
X103965718Y-89193541D01*
X103969606Y-89193499D01*
X103973348Y-89193276D01*
X103977468Y-89192875D01*
X103981259Y-89192389D01*
X103984777Y-89191783D01*
X103988079Y-89191021D01*
X103989667Y-89190571D01*
X103991221Y-89190069D01*
X103992750Y-89189510D01*
X103994260Y-89188890D01*
X103995757Y-89188205D01*
X103997250Y-89187450D01*
X103998745Y-89186621D01*
X104000250Y-89185713D01*
X104001770Y-89184722D01*
X104003314Y-89183644D01*
X104006500Y-89181208D01*
X104009863Y-89178369D01*
X104013459Y-89175092D01*
X104017346Y-89171342D01*
X104021579Y-89167083D01*
X104026214Y-89162281D01*
X104031309Y-89156899D01*
X104031278Y-89156896D01*
X104044312Y-89142242D01*
X104056698Y-89126723D01*
X104068433Y-89110366D01*
X104079512Y-89093203D01*
X104089934Y-89075262D01*
X104099696Y-89056574D01*
X104117223Y-89017070D01*
X104132068Y-88974929D01*
X104144208Y-88930385D01*
X104153616Y-88883675D01*
X104160268Y-88835035D01*
X104164138Y-88784701D01*
X104165202Y-88732908D01*
X104163434Y-88679894D01*
X104158809Y-88625893D01*
X104151303Y-88571142D01*
X104140889Y-88515877D01*
X104127544Y-88460333D01*
X104111242Y-88404747D01*
X104097287Y-88364668D01*
X104082037Y-88327250D01*
X104069710Y-88301203D01*
X104209543Y-88301203D01*
X104209793Y-88315324D01*
X104210691Y-88331140D01*
X104214181Y-88366560D01*
X104219515Y-88404858D01*
X104226198Y-88443431D01*
X104233734Y-88479676D01*
X104241627Y-88510990D01*
X104245552Y-88523984D01*
X104249380Y-88534768D01*
X104253049Y-88543018D01*
X104256498Y-88548408D01*
X104260379Y-88552814D01*
X104267182Y-88560449D01*
X104285722Y-88581110D01*
X104290864Y-88586971D01*
X104296229Y-88593361D01*
X104301658Y-88600075D01*
X104306994Y-88606906D01*
X104312078Y-88613648D01*
X104316753Y-88620097D01*
X104320861Y-88626046D01*
X104324243Y-88631289D01*
X104327303Y-88636130D01*
X104330174Y-88640371D01*
X104331549Y-88642267D01*
X104332887Y-88644016D01*
X104334194Y-88645618D01*
X104335471Y-88647073D01*
X104336725Y-88648383D01*
X104337957Y-88649547D01*
X104339172Y-88650568D01*
X104340374Y-88651445D01*
X104341566Y-88652180D01*
X104342753Y-88652773D01*
X104343937Y-88653225D01*
X104345123Y-88653536D01*
X104346314Y-88653708D01*
X104347514Y-88653741D01*
X104348727Y-88653636D01*
X104349957Y-88653394D01*
X104351207Y-88653016D01*
X104352482Y-88652501D01*
X104353784Y-88651852D01*
X104355117Y-88651069D01*
X104356486Y-88650152D01*
X104357895Y-88649102D01*
X104359346Y-88647921D01*
X104360844Y-88646608D01*
X104363994Y-88643593D01*
X104367376Y-88640062D01*
X104367372Y-88640064D01*
X104373710Y-88632195D01*
X104379472Y-88622958D01*
X104384667Y-88612449D01*
X104389303Y-88600765D01*
X104396933Y-88574258D01*
X104402430Y-88544208D01*
X104405865Y-88511386D01*
X104407304Y-88476564D01*
X104406818Y-88440514D01*
X104404474Y-88404008D01*
X104400342Y-88367816D01*
X104394490Y-88332711D01*
X104386988Y-88299464D01*
X104377903Y-88268847D01*
X104367304Y-88241632D01*
X104361459Y-88229541D01*
X104355261Y-88218589D01*
X104348719Y-88208874D01*
X104341842Y-88200491D01*
X104334638Y-88193538D01*
X104327115Y-88188110D01*
X104319324Y-88183556D01*
X104311837Y-88179486D01*
X104304653Y-88175903D01*
X104297765Y-88172812D01*
X104291171Y-88170215D01*
X104284867Y-88168118D01*
X104278848Y-88166523D01*
X104273111Y-88165434D01*
X104267651Y-88164856D01*
X104262465Y-88164792D01*
X104257548Y-88165246D01*
X104252897Y-88166221D01*
X104248508Y-88167723D01*
X104244377Y-88169754D01*
X104240499Y-88172318D01*
X104236871Y-88175419D01*
X104233488Y-88179061D01*
X104230348Y-88183248D01*
X104227445Y-88187983D01*
X104224776Y-88193271D01*
X104222338Y-88199115D01*
X104220124Y-88205519D01*
X104218133Y-88212487D01*
X104216360Y-88220022D01*
X104214801Y-88228130D01*
X104213452Y-88236812D01*
X104212308Y-88246074D01*
X104211367Y-88255918D01*
X104210075Y-88277372D01*
X104209543Y-88301203D01*
X104069710Y-88301203D01*
X104065652Y-88292629D01*
X104048296Y-88260945D01*
X104030129Y-88232335D01*
X104011315Y-88206937D01*
X103992016Y-88184888D01*
X103982234Y-88175162D01*
X103972392Y-88166326D01*
X103962510Y-88158396D01*
X103952608Y-88151390D01*
X103942706Y-88145324D01*
X103932825Y-88140216D01*
X103922984Y-88136084D01*
X103913204Y-88132944D01*
X103903506Y-88130813D01*
X103893909Y-88129710D01*
X103884434Y-88129650D01*
X103875101Y-88130652D01*
X103865930Y-88132733D01*
X103856942Y-88135909D01*
X103848157Y-88140198D01*
X103839594Y-88145618D01*
X103831276Y-88152185D01*
X103823221Y-88159916D01*
X103816279Y-88167249D01*
X103810273Y-88173719D01*
X103805206Y-88179387D01*
X103801085Y-88184315D01*
X103799380Y-88186521D01*
X103797914Y-88188564D01*
X103796686Y-88190454D01*
X103795697Y-88192196D01*
X103794949Y-88193799D01*
X103794441Y-88195271D01*
X103794174Y-88196618D01*
X103794150Y-88197850D01*
X103671227Y-88197850D01*
X103687444Y-88171355D01*
X103709249Y-88141572D01*
X103726549Y-88120000D01*
X103704698Y-88120062D01*
X103696624Y-88120482D01*
X103687561Y-88121658D01*
X103677668Y-88123526D01*
X103667104Y-88126024D01*
X103656030Y-88129090D01*
X103644605Y-88132660D01*
X103632988Y-88136673D01*
X103621340Y-88141064D01*
X103609819Y-88145773D01*
X103598585Y-88150735D01*
X103587799Y-88155889D01*
X103577619Y-88161171D01*
X103568205Y-88166519D01*
X103559716Y-88171871D01*
X103552313Y-88177163D01*
X103546155Y-88182333D01*
X103543824Y-88184427D01*
X103541585Y-88186296D01*
X103539435Y-88187940D01*
X103537374Y-88189356D01*
X103535402Y-88190544D01*
X103533518Y-88191502D01*
X103531720Y-88192229D01*
X103530008Y-88192723D01*
X103528380Y-88192983D01*
X103526837Y-88193008D01*
X103525376Y-88192796D01*
X103523998Y-88192346D01*
X103522700Y-88191656D01*
X103521484Y-88190726D01*
X103520346Y-88189553D01*
X103519287Y-88188137D01*
X103518306Y-88186477D01*
X103517401Y-88184570D01*
X103516572Y-88182415D01*
X103515818Y-88180012D01*
X103515138Y-88177358D01*
X103514532Y-88174453D01*
X103513997Y-88171295D01*
X103513534Y-88167883D01*
X103513141Y-88164214D01*
X103512818Y-88160289D01*
X103512563Y-88156106D01*
X103512376Y-88151662D01*
X103512256Y-88146958D01*
X103512202Y-88141991D01*
X103512289Y-88131265D01*
X103513167Y-88111358D01*
X103515063Y-88091694D01*
X103517993Y-88072238D01*
X103521973Y-88052955D01*
X103527020Y-88033811D01*
X103533149Y-88014771D01*
X103540376Y-87995801D01*
X103548718Y-87976865D01*
X103558192Y-87957930D01*
X103568812Y-87938960D01*
X103580596Y-87919921D01*
X103593559Y-87900778D01*
X103607718Y-87881496D01*
X103623088Y-87862042D01*
X103639687Y-87842380D01*
X103657529Y-87822475D01*
X103660741Y-87818944D01*
X103663651Y-87815641D01*
X103666268Y-87812551D01*
X103668600Y-87809658D01*
X103670654Y-87806945D01*
X103672441Y-87804397D01*
X103673967Y-87801997D01*
X103675241Y-87799731D01*
X103676271Y-87797580D01*
X103677066Y-87795531D01*
X103677634Y-87793567D01*
X103677983Y-87791671D01*
X103678121Y-87789828D01*
X103678057Y-87788022D01*
X103677798Y-87786237D01*
X103677354Y-87784456D01*
X103672384Y-87767339D01*
X103668175Y-87751763D01*
X103664758Y-87737505D01*
X103662164Y-87724339D01*
X103660421Y-87712040D01*
X103659562Y-87700382D01*
X103659615Y-87689140D01*
X103659993Y-87683605D01*
X103660611Y-87678090D01*
X103661472Y-87672566D01*
X103662580Y-87667005D01*
X103665552Y-87655660D01*
X103669557Y-87643831D01*
X103674626Y-87631291D01*
X103680789Y-87617816D01*
X103688075Y-87603181D01*
X103696515Y-87587160D01*
X103706140Y-87569527D01*
X103738534Y-87510884D01*
X103781866Y-87492847D01*
X103814705Y-87480424D01*
X103849973Y-87469392D01*
X103887294Y-87459765D01*
X103926293Y-87451559D01*
X103966593Y-87444786D01*
X104007819Y-87439463D01*
X104049595Y-87435604D01*
X104091546Y-87433224D01*
X104133294Y-87432337D01*
X104174464Y-87432958D01*
X104214682Y-87435101D01*
X104253570Y-87438782D01*
X104290752Y-87444015D01*
X104325854Y-87450814D01*
X104358499Y-87459195D01*
X104388311Y-87469172D01*
X104393863Y-87471455D01*
X104399252Y-87474009D01*
X104404480Y-87476838D01*
X104409549Y-87479948D01*
X104414461Y-87483341D01*
X104419217Y-87487021D01*
X104423820Y-87490994D01*
X104428272Y-87495263D01*
X104432574Y-87499832D01*
X104436728Y-87504705D01*
X104440737Y-87509887D01*
X104444602Y-87515381D01*
X104448325Y-87521192D01*
X104451909Y-87527323D01*
X104455354Y-87533779D01*
X104458663Y-87540564D01*
X104461838Y-87547682D01*
X104464880Y-87555137D01*
X104467792Y-87562933D01*
X104470576Y-87571075D01*
X104473233Y-87579566D01*
X104475766Y-87588410D01*
X104478176Y-87597612D01*
X104480465Y-87607176D01*
X104482635Y-87617105D01*
X104484688Y-87627404D01*
X104488451Y-87649129D01*
X104491769Y-87672383D01*
X104494657Y-87697198D01*
X104496022Y-87710035D01*
X104497120Y-87719456D01*
X104497598Y-87722942D01*
X104498042Y-87725643D01*
X104498465Y-87727581D01*
X104498878Y-87728779D01*
X104499084Y-87729107D01*
X104499292Y-87729259D01*
X104499502Y-87729238D01*
X104499717Y-87729045D01*
X104500166Y-87728160D01*
X104500650Y-87726626D01*
X104501766Y-87721702D01*
X104503156Y-87714456D01*
X104505475Y-87702572D01*
X104508747Y-87687222D01*
X104512511Y-87670389D01*
X104516305Y-87654056D01*
X104527872Y-87597998D01*
X104536347Y-87541002D01*
X104541792Y-87483394D01*
X104544267Y-87425498D01*
X104543831Y-87367641D01*
X104540545Y-87310147D01*
X104534468Y-87253343D01*
X104525660Y-87197553D01*
X104514182Y-87143104D01*
X104500092Y-87090321D01*
X104483453Y-87039530D01*
X104464322Y-86991055D01*
X104442761Y-86945223D01*
X104418828Y-86902358D01*
X104392585Y-86862788D01*
X104364091Y-86826836D01*
X104325067Y-86781970D01*
X104041345Y-86775638D01*
X103822547Y-86772926D01*
X103597133Y-86773333D01*
X103417193Y-86776412D01*
X103360556Y-86778812D01*
X103334821Y-86781713D01*
X103333285Y-86782098D01*
X103330504Y-86782564D01*
X103321483Y-86783716D01*
X103308314Y-86785118D01*
X103291551Y-86786718D01*
X103249458Y-86790311D01*
X103199640Y-86794085D01*
X103135523Y-86799162D01*
X103054500Y-86806301D01*
X102966951Y-86814555D01*
X102883256Y-86822977D01*
X102699341Y-86841287D01*
X102523731Y-86857436D01*
X102096363Y-86895585D01*
X101769888Y-86927654D01*
X101553548Y-86952672D01*
X101489565Y-86962234D01*
X101456581Y-86969667D01*
X101454081Y-86970961D01*
X101451283Y-86973092D01*
X101448197Y-86976039D01*
X101444832Y-86979783D01*
X101437306Y-86989580D01*
X101428788Y-87002321D01*
X101419358Y-87017845D01*
X101409096Y-87035991D01*
X101398082Y-87056597D01*
X101386398Y-87079503D01*
X101374124Y-87104546D01*
X101361340Y-87131567D01*
X101348128Y-87160403D01*
X101334567Y-87190893D01*
X101320738Y-87222876D01*
X101306722Y-87256190D01*
X101292600Y-87290675D01*
X101278451Y-87326169D01*
X101260012Y-87371301D01*
X101232384Y-87436777D01*
X101199306Y-87513821D01*
X101164514Y-87593656D01*
X101068091Y-87819497D01*
X100969032Y-88061846D01*
X100882461Y-88282939D01*
X100848587Y-88373713D01*
X100823507Y-88445012D01*
X100809175Y-88489888D01*
X100796540Y-88534057D01*
X100785577Y-88578141D01*
X100776259Y-88622759D01*
X100768562Y-88668533D01*
X100762461Y-88716082D01*
X100757930Y-88766029D01*
X100754945Y-88818992D01*
X100753479Y-88875593D01*
X100753508Y-88936453D01*
X100755006Y-89002192D01*
X100757949Y-89073431D01*
X100762311Y-89150790D01*
X100768067Y-89234890D01*
X100783658Y-89425796D01*
X100798422Y-89596878D01*
X100806771Y-89707571D01*
X100809129Y-89749496D01*
X100810590Y-89787392D01*
X100811763Y-89865855D01*
X100811823Y-89915358D01*
X100811330Y-89954384D01*
X100810121Y-89984033D01*
X100809196Y-89995685D01*
X100808032Y-90005405D01*
X100806607Y-90013331D01*
X100804900Y-90019600D01*
X100802892Y-90024349D01*
X100800562Y-90027716D01*
X100797890Y-90029839D01*
X100794854Y-90030855D01*
X100791435Y-90030901D01*
X100787612Y-90030115D01*
X100780770Y-90027973D01*
X100773754Y-90025431D01*
X100766596Y-90022508D01*
X100759326Y-90019223D01*
X100751974Y-90015594D01*
X100744572Y-90011643D01*
X100737149Y-90007387D01*
X100729736Y-90002847D01*
X100722364Y-89998041D01*
X100715064Y-89992989D01*
X100707865Y-89987710D01*
X100700798Y-89982223D01*
X100693895Y-89976548D01*
X100687185Y-89970704D01*
X100680698Y-89964711D01*
X100674467Y-89958587D01*
X100662366Y-89946136D01*
X100651582Y-89934566D01*
X100642018Y-89923627D01*
X100633578Y-89913068D01*
X100629750Y-89907853D01*
X100626168Y-89902640D01*
X100622818Y-89897396D01*
X100619690Y-89892090D01*
X100616772Y-89886693D01*
X100614051Y-89881171D01*
X100611516Y-89875494D01*
X100609154Y-89869630D01*
X100606954Y-89863549D01*
X100604903Y-89857219D01*
X100602991Y-89850608D01*
X100601204Y-89843686D01*
X100597960Y-89828781D01*
X100595076Y-89812254D01*
X100592456Y-89793855D01*
X100590005Y-89773333D01*
X100587628Y-89750439D01*
X100585227Y-89724921D01*
X100577077Y-89652347D01*
X100565934Y-89579803D01*
X100552043Y-89507864D01*
X100535647Y-89437108D01*
X100516991Y-89368112D01*
X100496318Y-89301452D01*
X100473872Y-89237706D01*
X100449898Y-89177450D01*
X100424639Y-89121262D01*
X100398338Y-89069718D01*
X100371241Y-89023395D01*
X100343590Y-88982870D01*
X100315630Y-88948720D01*
X100287605Y-88921522D01*
X100259759Y-88901852D01*
X100245979Y-88895021D01*
X100232336Y-88890289D01*
X100221375Y-88887828D01*
X100210375Y-88886270D01*
X100199514Y-88885549D01*
X100188968Y-88885596D01*
X100178912Y-88886343D01*
X100169524Y-88887724D01*
X100160979Y-88889670D01*
X100153455Y-88892113D01*
X100147128Y-88894986D01*
X100144468Y-88896563D01*
X100142174Y-88898222D01*
X100140267Y-88899954D01*
X100138770Y-88901751D01*
X100137704Y-88903605D01*
X100137091Y-88905507D01*
X100136954Y-88907449D01*
X100137315Y-88909422D01*
X100138196Y-88911418D01*
X100139618Y-88913428D01*
X100141604Y-88915445D01*
X100144176Y-88917458D01*
X100147356Y-88919461D01*
X100151166Y-88921443D01*
X100171592Y-88931186D01*
X100161666Y-88948001D01*
X100160311Y-88950127D01*
X100158325Y-88953001D01*
X100152613Y-88960802D01*
X100144842Y-88971009D01*
X100135320Y-88983227D01*
X100124359Y-88997060D01*
X100112268Y-89012115D01*
X100099358Y-89027995D01*
X100085939Y-89044305D01*
X100055957Y-89081384D01*
X100029673Y-89116079D01*
X100007010Y-89149046D01*
X99997014Y-89165086D01*
X99987893Y-89180938D01*
X99979641Y-89196686D01*
X99972245Y-89212409D01*
X99965698Y-89228191D01*
X99959990Y-89244113D01*
X99955110Y-89260257D01*
X99951050Y-89276704D01*
X99947800Y-89293536D01*
X99945350Y-89310835D01*
X99943691Y-89328682D01*
X99942813Y-89347160D01*
X99942707Y-89366350D01*
X99846284Y-89366350D01*
X99846262Y-89340038D01*
X99848631Y-89301851D01*
X99853426Y-89265595D01*
X99860672Y-89231027D01*
X99870392Y-89197905D01*
X99882608Y-89165986D01*
X99897345Y-89135028D01*
X99914625Y-89104788D01*
X99934473Y-89075023D01*
X99956911Y-89045492D01*
X99972693Y-89025766D01*
X99986195Y-89008682D01*
X99995981Y-88996069D01*
X99999031Y-88992011D01*
X100000614Y-88989757D01*
X100000629Y-88987342D01*
X99999946Y-88981491D01*
X99996620Y-88960205D01*
X99983040Y-88884319D01*
X99961982Y-88773590D01*
X99935552Y-88639511D01*
X99877584Y-88342292D01*
X99855656Y-88222430D01*
X99837864Y-88118241D01*
X99823780Y-88027109D01*
X99812977Y-87946416D01*
X99805027Y-87873542D01*
X99799503Y-87805872D01*
X99795577Y-87747721D01*
X99766143Y-87741019D01*
X99757586Y-87738860D01*
X99744498Y-87735278D01*
X99707333Y-87724602D01*
X99659857Y-87710515D01*
X99607280Y-87694543D01*
X99501227Y-87662114D01*
X99427997Y-87639997D01*
X99415643Y-87636018D01*
X99404127Y-87631632D01*
X99393452Y-87626810D01*
X99383619Y-87621523D01*
X99374630Y-87615741D01*
X99366487Y-87609434D01*
X99359191Y-87602574D01*
X99352745Y-87595131D01*
X99347150Y-87587075D01*
X99342408Y-87578377D01*
X99338522Y-87569007D01*
X99335492Y-87558937D01*
X99333321Y-87548137D01*
X99332010Y-87536578D01*
X99331562Y-87524229D01*
X99331978Y-87511062D01*
X99333259Y-87497047D01*
X99335409Y-87482156D01*
X99338429Y-87466357D01*
X99342320Y-87449623D01*
X99347084Y-87431923D01*
X99352724Y-87413229D01*
X99359240Y-87393511D01*
X99366636Y-87372738D01*
X99374912Y-87350884D01*
X99384071Y-87327916D01*
X99394114Y-87303807D01*
X99405043Y-87278527D01*
X99416861Y-87252046D01*
X99429568Y-87224336D01*
X99457660Y-87165107D01*
X99489871Y-87097528D01*
X99515741Y-87040444D01*
X99526653Y-87014743D01*
X99536407Y-86990353D01*
X99545144Y-86966835D01*
X99553007Y-86943751D01*
X99560138Y-86920664D01*
X99566678Y-86897136D01*
X99572771Y-86872728D01*
X99578559Y-86847003D01*
X99589786Y-86789850D01*
X99601497Y-86722172D01*
X99621020Y-86608346D01*
X99639276Y-86508951D01*
X99655951Y-86425625D01*
X99670732Y-86360000D01*
X99677538Y-86329744D01*
X99683691Y-86296838D01*
X99689361Y-86259786D01*
X99694719Y-86217092D01*
X99699938Y-86167261D01*
X99705189Y-86108795D01*
X99710643Y-86040200D01*
X99716472Y-85959979D01*
X99726195Y-85834849D01*
X99737312Y-85718864D01*
X99750114Y-85611211D01*
X99764891Y-85511076D01*
X99781932Y-85417648D01*
X99801529Y-85330114D01*
X99823970Y-85247662D01*
X99849546Y-85169478D01*
X99878548Y-85094750D01*
X99911264Y-85022666D01*
X99947985Y-84952413D01*
X99989001Y-84883179D01*
X100034603Y-84814150D01*
X100085079Y-84744515D01*
X100140721Y-84673460D01*
X100201818Y-84600173D01*
X100253806Y-84541141D01*
X100306523Y-84484706D01*
X100360116Y-84430766D01*
X100414732Y-84379220D01*
X100470519Y-84329967D01*
X100527625Y-84282905D01*
X100586196Y-84237933D01*
X100646379Y-84194949D01*
X100708324Y-84153851D01*
X100772176Y-84114538D01*
X100838084Y-84076910D01*
X100906194Y-84040863D01*
X100976654Y-84006297D01*
X101049612Y-83973110D01*
X101125215Y-83941201D01*
X101203611Y-83910468D01*
X101244588Y-83894402D01*
X101275814Y-83881473D01*
X101661390Y-83881473D01*
X101703157Y-83909410D01*
X101758910Y-83955861D01*
X101811370Y-84003844D01*
X101860673Y-84053295D01*
X101906955Y-84104148D01*
X101950354Y-84156339D01*
X101991005Y-84209802D01*
X102029046Y-84264474D01*
X102064613Y-84320289D01*
X102128873Y-84435090D01*
X102184877Y-84553686D01*
X102233719Y-84675558D01*
X102276492Y-84800189D01*
X102314289Y-84927059D01*
X102348203Y-85055650D01*
X102408755Y-85315920D01*
X102466893Y-85576852D01*
X102497791Y-85706270D01*
X102531364Y-85834297D01*
X102533137Y-85841108D01*
X102534345Y-85846826D01*
X102535134Y-85851722D01*
X102535649Y-85856068D01*
X102536443Y-85864204D01*
X102537014Y-85868538D01*
X102537895Y-85873412D01*
X102539232Y-85879100D01*
X102541172Y-85885872D01*
X102543861Y-85894002D01*
X102547443Y-85903762D01*
X102552066Y-85915424D01*
X102557875Y-85929261D01*
X102565017Y-85945546D01*
X102573636Y-85964550D01*
X102578584Y-85986382D01*
X102584447Y-86007677D01*
X102591179Y-86028462D01*
X102598734Y-86048764D01*
X102607065Y-86068611D01*
X102616125Y-86088030D01*
X102636248Y-86125692D01*
X102658731Y-86161971D01*
X102683204Y-86197085D01*
X102709293Y-86231254D01*
X102736627Y-86264695D01*
X102850977Y-86395573D01*
X102878959Y-86428665D01*
X102905955Y-86462344D01*
X102931594Y-86496830D01*
X102955503Y-86532341D01*
X102959387Y-86538245D01*
X102963706Y-86545115D01*
X102968315Y-86552703D01*
X102973071Y-86560761D01*
X102977827Y-86569042D01*
X102982442Y-86577297D01*
X102986770Y-86585279D01*
X102990667Y-86592741D01*
X102998083Y-86607073D01*
X103004202Y-86618353D01*
X103006862Y-86622958D01*
X103009302Y-86626932D01*
X103011556Y-86630319D01*
X103013659Y-86633162D01*
X103015646Y-86635506D01*
X103017552Y-86637394D01*
X103019410Y-86638870D01*
X103021256Y-86639978D01*
X103023125Y-86640762D01*
X103025050Y-86641265D01*
X103027067Y-86641533D01*
X103029211Y-86641607D01*
X103033087Y-86641427D01*
X103040563Y-86640921D01*
X103064550Y-86639073D01*
X103097657Y-86636344D01*
X103136365Y-86633017D01*
X103136369Y-86633018D01*
X103181828Y-86628684D01*
X103233314Y-86623211D01*
X103284504Y-86617300D01*
X103329072Y-86611653D01*
X103358993Y-86607789D01*
X103386088Y-86604816D01*
X103412863Y-86602639D01*
X103441825Y-86601165D01*
X103475477Y-86600301D01*
X103516327Y-86599952D01*
X103566878Y-86600026D01*
X103629636Y-86600428D01*
X103713492Y-86600693D01*
X103778436Y-86600113D01*
X103820392Y-86598762D01*
X103831475Y-86597820D01*
X103834320Y-86597286D01*
X103835283Y-86596713D01*
X103835061Y-86594201D01*
X103834404Y-86591493D01*
X103833322Y-86588596D01*
X103831826Y-86585519D01*
X103829926Y-86582270D01*
X103827633Y-86578858D01*
X103824958Y-86575292D01*
X103821912Y-86571581D01*
X103814749Y-86563754D01*
X103806229Y-86555446D01*
X103796438Y-86546727D01*
X103785462Y-86537664D01*
X103773387Y-86528326D01*
X103760298Y-86518781D01*
X103746282Y-86509098D01*
X103731423Y-86499346D01*
X103715809Y-86489593D01*
X103699525Y-86479907D01*
X103682656Y-86470357D01*
X103665288Y-86461011D01*
X103653214Y-86454168D01*
X103638926Y-86445186D01*
X103622673Y-86434262D01*
X103604704Y-86421595D01*
X103564611Y-86391824D01*
X103520633Y-86357459D01*
X103474756Y-86320088D01*
X103428967Y-86281294D01*
X103385253Y-86242666D01*
X103345601Y-86205788D01*
X103314817Y-86175181D01*
X103285579Y-86143873D01*
X103257775Y-86111652D01*
X103231294Y-86078310D01*
X103206022Y-86043635D01*
X103181847Y-86007418D01*
X103158657Y-85969448D01*
X103136340Y-85929515D01*
X103114782Y-85887410D01*
X103093871Y-85842920D01*
X103073496Y-85795838D01*
X103053543Y-85745951D01*
X103033901Y-85693051D01*
X103014456Y-85636927D01*
X102995096Y-85577368D01*
X102975709Y-85514165D01*
X102964787Y-85474094D01*
X102945836Y-85401133D01*
X102921521Y-85305655D01*
X102894510Y-85198034D01*
X102832085Y-84953746D01*
X102775834Y-84748309D01*
X102723883Y-84576756D01*
X102674361Y-84434119D01*
X102649926Y-84372092D01*
X102625395Y-84315432D01*
X102600536Y-84263517D01*
X102575114Y-84215727D01*
X102548895Y-84171440D01*
X102521645Y-84130036D01*
X102493131Y-84090895D01*
X102463117Y-84053394D01*
X102421955Y-84004160D01*
X102359235Y-83982505D01*
X102345374Y-83977503D01*
X102330003Y-83971575D01*
X102313634Y-83964941D01*
X102296778Y-83957822D01*
X102279945Y-83950437D01*
X102263646Y-83943007D01*
X102248392Y-83935750D01*
X102234693Y-83928888D01*
X102217093Y-83920974D01*
X102196002Y-83913540D01*
X102171739Y-83906617D01*
X102144618Y-83900235D01*
X102114956Y-83894427D01*
X102083070Y-83889223D01*
X102049275Y-83884654D01*
X102013889Y-83880753D01*
X101977228Y-83877549D01*
X101939608Y-83875074D01*
X101901345Y-83873360D01*
X101862756Y-83872437D01*
X101824157Y-83872337D01*
X101785865Y-83873091D01*
X101748195Y-83874730D01*
X101711465Y-83877285D01*
X101661390Y-83881473D01*
X101275814Y-83881473D01*
X101288094Y-83876388D01*
X101328934Y-83858628D01*
X101346731Y-83850532D01*
X101361913Y-83843326D01*
X101386790Y-83832517D01*
X101415248Y-83822578D01*
X101447055Y-83813527D01*
X101481982Y-83805383D01*
X101519799Y-83798165D01*
X101560275Y-83791892D01*
X101603180Y-83786584D01*
X101648285Y-83782259D01*
X101695359Y-83778936D01*
X101744172Y-83776635D01*
X101794494Y-83775375D01*
X101846094Y-83775175D01*
X101898743Y-83776054D01*
G37*
G36*
X104447214Y-89986057D02*
G01*
X104453416Y-89987098D01*
X104460908Y-89989157D01*
X104469123Y-89992287D01*
X104478009Y-89996435D01*
X104487513Y-90001549D01*
X104508169Y-90014469D01*
X104530674Y-90030632D01*
X104554611Y-90049620D01*
X104579564Y-90071018D01*
X104605115Y-90094410D01*
X104630847Y-90119380D01*
X104656344Y-90145513D01*
X104681188Y-90172392D01*
X104704963Y-90199602D01*
X104727251Y-90226726D01*
X104747636Y-90253349D01*
X104765701Y-90279054D01*
X104781029Y-90303427D01*
X104793203Y-90326050D01*
X104802254Y-90346349D01*
X104810799Y-90368605D01*
X104818776Y-90392417D01*
X104826126Y-90417385D01*
X104832789Y-90443106D01*
X104838703Y-90469180D01*
X104843810Y-90495205D01*
X104848049Y-90520781D01*
X104851359Y-90545505D01*
X104853680Y-90568977D01*
X104854953Y-90590796D01*
X104855117Y-90610560D01*
X104854111Y-90627868D01*
X104851876Y-90642320D01*
X104848351Y-90653512D01*
X104846087Y-90657761D01*
X104843477Y-90661046D01*
X104831777Y-90672748D01*
X104803789Y-90650505D01*
X104797924Y-90645929D01*
X104791987Y-90641452D01*
X104786143Y-90637186D01*
X104780553Y-90633244D01*
X104775380Y-90629740D01*
X104770788Y-90626785D01*
X104766940Y-90624494D01*
X104765345Y-90623632D01*
X104763997Y-90622979D01*
X104763314Y-90622600D01*
X104762484Y-90622012D01*
X104760407Y-90620233D01*
X104757802Y-90617685D01*
X104754706Y-90614414D01*
X104751156Y-90610465D01*
X104747187Y-90605883D01*
X104738143Y-90595000D01*
X104727867Y-90582124D01*
X104716651Y-90567617D01*
X104704788Y-90551839D01*
X104692571Y-90535149D01*
X104665026Y-90497366D01*
X104639230Y-90462751D01*
X104614708Y-90430715D01*
X104590991Y-90400672D01*
X104567605Y-90372033D01*
X104544079Y-90344210D01*
X104519941Y-90316615D01*
X104494718Y-90288660D01*
X104483248Y-90275836D01*
X104471833Y-90262538D01*
X104460776Y-90249153D01*
X104450377Y-90236066D01*
X104440937Y-90223664D01*
X104432756Y-90212334D01*
X104426136Y-90202461D01*
X104423505Y-90198193D01*
X104421377Y-90194434D01*
X104403303Y-90160609D01*
X104405977Y-90086506D01*
X104406644Y-90071069D01*
X104407492Y-90057124D01*
X104408549Y-90044616D01*
X104409840Y-90033487D01*
X104411392Y-90023682D01*
X104413233Y-90015145D01*
X104415389Y-90007819D01*
X104417888Y-90001647D01*
X104419274Y-89998977D01*
X104420755Y-89996575D01*
X104422336Y-89994433D01*
X104424018Y-89992544D01*
X104425807Y-89990902D01*
X104427704Y-89989500D01*
X104429714Y-89988330D01*
X104431840Y-89987385D01*
X104434085Y-89986659D01*
X104436452Y-89986144D01*
X104441568Y-89985720D01*
X104447214Y-89986057D01*
G37*
D11*
X139696115Y-68912475D02*
X139696115Y-67912475D01*
X139696115Y-67912475D02*
X139362782Y-68626760D01*
X139362782Y-68626760D02*
X139029449Y-67912475D01*
X139029449Y-67912475D02*
X139029449Y-68912475D01*
X138124687Y-68912475D02*
X138124687Y-68388665D01*
X138124687Y-68388665D02*
X138172306Y-68293427D01*
X138172306Y-68293427D02*
X138267544Y-68245808D01*
X138267544Y-68245808D02*
X138458020Y-68245808D01*
X138458020Y-68245808D02*
X138553258Y-68293427D01*
X138124687Y-68864856D02*
X138219925Y-68912475D01*
X138219925Y-68912475D02*
X138458020Y-68912475D01*
X138458020Y-68912475D02*
X138553258Y-68864856D01*
X138553258Y-68864856D02*
X138600877Y-68769617D01*
X138600877Y-68769617D02*
X138600877Y-68674379D01*
X138600877Y-68674379D02*
X138553258Y-68579141D01*
X138553258Y-68579141D02*
X138458020Y-68531522D01*
X138458020Y-68531522D02*
X138219925Y-68531522D01*
X138219925Y-68531522D02*
X138124687Y-68483903D01*
X137696115Y-68864856D02*
X137600877Y-68912475D01*
X137600877Y-68912475D02*
X137410401Y-68912475D01*
X137410401Y-68912475D02*
X137315163Y-68864856D01*
X137315163Y-68864856D02*
X137267544Y-68769617D01*
X137267544Y-68769617D02*
X137267544Y-68721998D01*
X137267544Y-68721998D02*
X137315163Y-68626760D01*
X137315163Y-68626760D02*
X137410401Y-68579141D01*
X137410401Y-68579141D02*
X137553258Y-68579141D01*
X137553258Y-68579141D02*
X137648496Y-68531522D01*
X137648496Y-68531522D02*
X137696115Y-68436284D01*
X137696115Y-68436284D02*
X137696115Y-68388665D01*
X137696115Y-68388665D02*
X137648496Y-68293427D01*
X137648496Y-68293427D02*
X137553258Y-68245808D01*
X137553258Y-68245808D02*
X137410401Y-68245808D01*
X137410401Y-68245808D02*
X137315163Y-68293427D01*
X136410401Y-68864856D02*
X136505639Y-68912475D01*
X136505639Y-68912475D02*
X136696115Y-68912475D01*
X136696115Y-68912475D02*
X136791353Y-68864856D01*
X136791353Y-68864856D02*
X136838972Y-68817236D01*
X136838972Y-68817236D02*
X136886591Y-68721998D01*
X136886591Y-68721998D02*
X136886591Y-68436284D01*
X136886591Y-68436284D02*
X136838972Y-68341046D01*
X136838972Y-68341046D02*
X136791353Y-68293427D01*
X136791353Y-68293427D02*
X136696115Y-68245808D01*
X136696115Y-68245808D02*
X136505639Y-68245808D01*
X136505639Y-68245808D02*
X136410401Y-68293427D01*
X135838972Y-68912475D02*
X135934210Y-68864856D01*
X135934210Y-68864856D02*
X135981829Y-68817236D01*
X135981829Y-68817236D02*
X136029448Y-68721998D01*
X136029448Y-68721998D02*
X136029448Y-68436284D01*
X136029448Y-68436284D02*
X135981829Y-68341046D01*
X135981829Y-68341046D02*
X135934210Y-68293427D01*
X135934210Y-68293427D02*
X135838972Y-68245808D01*
X135838972Y-68245808D02*
X135696115Y-68245808D01*
X135696115Y-68245808D02*
X135600877Y-68293427D01*
X135600877Y-68293427D02*
X135553258Y-68341046D01*
X135553258Y-68341046D02*
X135505639Y-68436284D01*
X135505639Y-68436284D02*
X135505639Y-68721998D01*
X135505639Y-68721998D02*
X135553258Y-68817236D01*
X135553258Y-68817236D02*
X135600877Y-68864856D01*
X135600877Y-68864856D02*
X135696115Y-68912475D01*
X135696115Y-68912475D02*
X135838972Y-68912475D01*
X135219924Y-68245808D02*
X134838972Y-68245808D01*
X135077067Y-67912475D02*
X135077067Y-68769617D01*
X135077067Y-68769617D02*
X135029448Y-68864856D01*
X135029448Y-68864856D02*
X134934210Y-68912475D01*
X134934210Y-68912475D02*
X134838972Y-68912475D01*
X133743733Y-68912475D02*
X133743733Y-67912475D01*
X133743733Y-68388665D02*
X133172305Y-68388665D01*
X133172305Y-68912475D02*
X133172305Y-67912475D01*
X132315162Y-68864856D02*
X132410400Y-68912475D01*
X132410400Y-68912475D02*
X132600876Y-68912475D01*
X132600876Y-68912475D02*
X132696114Y-68864856D01*
X132696114Y-68864856D02*
X132743733Y-68769617D01*
X132743733Y-68769617D02*
X132743733Y-68388665D01*
X132743733Y-68388665D02*
X132696114Y-68293427D01*
X132696114Y-68293427D02*
X132600876Y-68245808D01*
X132600876Y-68245808D02*
X132410400Y-68245808D01*
X132410400Y-68245808D02*
X132315162Y-68293427D01*
X132315162Y-68293427D02*
X132267543Y-68388665D01*
X132267543Y-68388665D02*
X132267543Y-68483903D01*
X132267543Y-68483903D02*
X132743733Y-68579141D01*
X131410400Y-68912475D02*
X131410400Y-68388665D01*
X131410400Y-68388665D02*
X131458019Y-68293427D01*
X131458019Y-68293427D02*
X131553257Y-68245808D01*
X131553257Y-68245808D02*
X131743733Y-68245808D01*
X131743733Y-68245808D02*
X131838971Y-68293427D01*
X131410400Y-68864856D02*
X131505638Y-68912475D01*
X131505638Y-68912475D02*
X131743733Y-68912475D01*
X131743733Y-68912475D02*
X131838971Y-68864856D01*
X131838971Y-68864856D02*
X131886590Y-68769617D01*
X131886590Y-68769617D02*
X131886590Y-68674379D01*
X131886590Y-68674379D02*
X131838971Y-68579141D01*
X131838971Y-68579141D02*
X131743733Y-68531522D01*
X131743733Y-68531522D02*
X131505638Y-68531522D01*
X131505638Y-68531522D02*
X131410400Y-68483903D01*
X130505638Y-68912475D02*
X130505638Y-67912475D01*
X130505638Y-68864856D02*
X130600876Y-68912475D01*
X130600876Y-68912475D02*
X130791352Y-68912475D01*
X130791352Y-68912475D02*
X130886590Y-68864856D01*
X130886590Y-68864856D02*
X130934209Y-68817236D01*
X130934209Y-68817236D02*
X130981828Y-68721998D01*
X130981828Y-68721998D02*
X130981828Y-68436284D01*
X130981828Y-68436284D02*
X130934209Y-68341046D01*
X130934209Y-68341046D02*
X130886590Y-68293427D01*
X130886590Y-68293427D02*
X130791352Y-68245808D01*
X130791352Y-68245808D02*
X130600876Y-68245808D01*
X130600876Y-68245808D02*
X130505638Y-68293427D01*
X129410399Y-67912475D02*
X128838971Y-67912475D01*
X129124685Y-68912475D02*
X129124685Y-67912475D01*
X128124685Y-68864856D02*
X128219923Y-68912475D01*
X128219923Y-68912475D02*
X128410399Y-68912475D01*
X128410399Y-68912475D02*
X128505637Y-68864856D01*
X128505637Y-68864856D02*
X128553256Y-68769617D01*
X128553256Y-68769617D02*
X128553256Y-68388665D01*
X128553256Y-68388665D02*
X128505637Y-68293427D01*
X128505637Y-68293427D02*
X128410399Y-68245808D01*
X128410399Y-68245808D02*
X128219923Y-68245808D01*
X128219923Y-68245808D02*
X128124685Y-68293427D01*
X128124685Y-68293427D02*
X128077066Y-68388665D01*
X128077066Y-68388665D02*
X128077066Y-68483903D01*
X128077066Y-68483903D02*
X128553256Y-68579141D01*
X127648494Y-68912475D02*
X127648494Y-68245808D01*
X127648494Y-68436284D02*
X127600875Y-68341046D01*
X127600875Y-68341046D02*
X127553256Y-68293427D01*
X127553256Y-68293427D02*
X127458018Y-68245808D01*
X127458018Y-68245808D02*
X127362780Y-68245808D01*
X127029446Y-68912475D02*
X127029446Y-68245808D01*
X127029446Y-68341046D02*
X126981827Y-68293427D01*
X126981827Y-68293427D02*
X126886589Y-68245808D01*
X126886589Y-68245808D02*
X126743732Y-68245808D01*
X126743732Y-68245808D02*
X126648494Y-68293427D01*
X126648494Y-68293427D02*
X126600875Y-68388665D01*
X126600875Y-68388665D02*
X126600875Y-68912475D01*
X126600875Y-68388665D02*
X126553256Y-68293427D01*
X126553256Y-68293427D02*
X126458018Y-68245808D01*
X126458018Y-68245808D02*
X126315161Y-68245808D01*
X126315161Y-68245808D02*
X126219922Y-68293427D01*
X126219922Y-68293427D02*
X126172303Y-68388665D01*
X126172303Y-68388665D02*
X126172303Y-68912475D01*
X125696113Y-68912475D02*
X125696113Y-68245808D01*
X125696113Y-67912475D02*
X125743732Y-67960094D01*
X125743732Y-67960094D02*
X125696113Y-68007713D01*
X125696113Y-68007713D02*
X125648494Y-67960094D01*
X125648494Y-67960094D02*
X125696113Y-67912475D01*
X125696113Y-67912475D02*
X125696113Y-68007713D01*
X125219923Y-68245808D02*
X125219923Y-68912475D01*
X125219923Y-68341046D02*
X125172304Y-68293427D01*
X125172304Y-68293427D02*
X125077066Y-68245808D01*
X125077066Y-68245808D02*
X124934209Y-68245808D01*
X124934209Y-68245808D02*
X124838971Y-68293427D01*
X124838971Y-68293427D02*
X124791352Y-68388665D01*
X124791352Y-68388665D02*
X124791352Y-68912475D01*
X123886590Y-68912475D02*
X123886590Y-68388665D01*
X123886590Y-68388665D02*
X123934209Y-68293427D01*
X123934209Y-68293427D02*
X124029447Y-68245808D01*
X124029447Y-68245808D02*
X124219923Y-68245808D01*
X124219923Y-68245808D02*
X124315161Y-68293427D01*
X123886590Y-68864856D02*
X123981828Y-68912475D01*
X123981828Y-68912475D02*
X124219923Y-68912475D01*
X124219923Y-68912475D02*
X124315161Y-68864856D01*
X124315161Y-68864856D02*
X124362780Y-68769617D01*
X124362780Y-68769617D02*
X124362780Y-68674379D01*
X124362780Y-68674379D02*
X124315161Y-68579141D01*
X124315161Y-68579141D02*
X124219923Y-68531522D01*
X124219923Y-68531522D02*
X123981828Y-68531522D01*
X123981828Y-68531522D02*
X123886590Y-68483903D01*
X123267542Y-68912475D02*
X123362780Y-68864856D01*
X123362780Y-68864856D02*
X123410399Y-68769617D01*
X123410399Y-68769617D02*
X123410399Y-67912475D01*
X122124684Y-68912475D02*
X122124684Y-67912475D01*
X122124684Y-68293427D02*
X122029446Y-68245808D01*
X122029446Y-68245808D02*
X121838970Y-68245808D01*
X121838970Y-68245808D02*
X121743732Y-68293427D01*
X121743732Y-68293427D02*
X121696113Y-68341046D01*
X121696113Y-68341046D02*
X121648494Y-68436284D01*
X121648494Y-68436284D02*
X121648494Y-68721998D01*
X121648494Y-68721998D02*
X121696113Y-68817236D01*
X121696113Y-68817236D02*
X121743732Y-68864856D01*
X121743732Y-68864856D02*
X121838970Y-68912475D01*
X121838970Y-68912475D02*
X122029446Y-68912475D01*
X122029446Y-68912475D02*
X122124684Y-68864856D01*
X121077065Y-68912475D02*
X121172303Y-68864856D01*
X121172303Y-68864856D02*
X121219922Y-68817236D01*
X121219922Y-68817236D02*
X121267541Y-68721998D01*
X121267541Y-68721998D02*
X121267541Y-68436284D01*
X121267541Y-68436284D02*
X121219922Y-68341046D01*
X121219922Y-68341046D02*
X121172303Y-68293427D01*
X121172303Y-68293427D02*
X121077065Y-68245808D01*
X121077065Y-68245808D02*
X120934208Y-68245808D01*
X120934208Y-68245808D02*
X120838970Y-68293427D01*
X120838970Y-68293427D02*
X120791351Y-68341046D01*
X120791351Y-68341046D02*
X120743732Y-68436284D01*
X120743732Y-68436284D02*
X120743732Y-68721998D01*
X120743732Y-68721998D02*
X120791351Y-68817236D01*
X120791351Y-68817236D02*
X120838970Y-68864856D01*
X120838970Y-68864856D02*
X120934208Y-68912475D01*
X120934208Y-68912475D02*
X121077065Y-68912475D01*
X119886589Y-68912475D02*
X119886589Y-68388665D01*
X119886589Y-68388665D02*
X119934208Y-68293427D01*
X119934208Y-68293427D02*
X120029446Y-68245808D01*
X120029446Y-68245808D02*
X120219922Y-68245808D01*
X120219922Y-68245808D02*
X120315160Y-68293427D01*
X119886589Y-68864856D02*
X119981827Y-68912475D01*
X119981827Y-68912475D02*
X120219922Y-68912475D01*
X120219922Y-68912475D02*
X120315160Y-68864856D01*
X120315160Y-68864856D02*
X120362779Y-68769617D01*
X120362779Y-68769617D02*
X120362779Y-68674379D01*
X120362779Y-68674379D02*
X120315160Y-68579141D01*
X120315160Y-68579141D02*
X120219922Y-68531522D01*
X120219922Y-68531522D02*
X119981827Y-68531522D01*
X119981827Y-68531522D02*
X119886589Y-68483903D01*
X119410398Y-68912475D02*
X119410398Y-68245808D01*
X119410398Y-68436284D02*
X119362779Y-68341046D01*
X119362779Y-68341046D02*
X119315160Y-68293427D01*
X119315160Y-68293427D02*
X119219922Y-68245808D01*
X119219922Y-68245808D02*
X119124684Y-68245808D01*
X118362779Y-68912475D02*
X118362779Y-67912475D01*
X118362779Y-68864856D02*
X118458017Y-68912475D01*
X118458017Y-68912475D02*
X118648493Y-68912475D01*
X118648493Y-68912475D02*
X118743731Y-68864856D01*
X118743731Y-68864856D02*
X118791350Y-68817236D01*
X118791350Y-68817236D02*
X118838969Y-68721998D01*
X118838969Y-68721998D02*
X118838969Y-68436284D01*
X118838969Y-68436284D02*
X118791350Y-68341046D01*
X118791350Y-68341046D02*
X118743731Y-68293427D01*
X118743731Y-68293427D02*
X118648493Y-68245808D01*
X118648493Y-68245808D02*
X118458017Y-68245808D01*
X118458017Y-68245808D02*
X118362779Y-68293427D01*
X139124687Y-70522419D02*
X139458020Y-70046228D01*
X139696115Y-70522419D02*
X139696115Y-69522419D01*
X139696115Y-69522419D02*
X139315163Y-69522419D01*
X139315163Y-69522419D02*
X139219925Y-69570038D01*
X139219925Y-69570038D02*
X139172306Y-69617657D01*
X139172306Y-69617657D02*
X139124687Y-69712895D01*
X139124687Y-69712895D02*
X139124687Y-69855752D01*
X139124687Y-69855752D02*
X139172306Y-69950990D01*
X139172306Y-69950990D02*
X139219925Y-69998609D01*
X139219925Y-69998609D02*
X139315163Y-70046228D01*
X139315163Y-70046228D02*
X139696115Y-70046228D01*
X138315163Y-70474800D02*
X138410401Y-70522419D01*
X138410401Y-70522419D02*
X138600877Y-70522419D01*
X138600877Y-70522419D02*
X138696115Y-70474800D01*
X138696115Y-70474800D02*
X138743734Y-70379561D01*
X138743734Y-70379561D02*
X138743734Y-69998609D01*
X138743734Y-69998609D02*
X138696115Y-69903371D01*
X138696115Y-69903371D02*
X138600877Y-69855752D01*
X138600877Y-69855752D02*
X138410401Y-69855752D01*
X138410401Y-69855752D02*
X138315163Y-69903371D01*
X138315163Y-69903371D02*
X138267544Y-69998609D01*
X138267544Y-69998609D02*
X138267544Y-70093847D01*
X138267544Y-70093847D02*
X138743734Y-70189085D01*
X137934210Y-69855752D02*
X137696115Y-70522419D01*
X137696115Y-70522419D02*
X137458020Y-69855752D01*
X137077067Y-70427180D02*
X137029448Y-70474800D01*
X137029448Y-70474800D02*
X137077067Y-70522419D01*
X137077067Y-70522419D02*
X137124686Y-70474800D01*
X137124686Y-70474800D02*
X137077067Y-70427180D01*
X137077067Y-70427180D02*
X137077067Y-70522419D01*
X135315163Y-70522419D02*
X135886591Y-70522419D01*
X135600877Y-70522419D02*
X135600877Y-69522419D01*
X135600877Y-69522419D02*
X135696115Y-69665276D01*
X135696115Y-69665276D02*
X135791353Y-69760514D01*
X135791353Y-69760514D02*
X135886591Y-69808133D01*
X134886591Y-70427180D02*
X134838972Y-70474800D01*
X134838972Y-70474800D02*
X134886591Y-70522419D01*
X134886591Y-70522419D02*
X134934210Y-70474800D01*
X134934210Y-70474800D02*
X134886591Y-70427180D01*
X134886591Y-70427180D02*
X134886591Y-70522419D01*
X134219925Y-69522419D02*
X134124687Y-69522419D01*
X134124687Y-69522419D02*
X134029449Y-69570038D01*
X134029449Y-69570038D02*
X133981830Y-69617657D01*
X133981830Y-69617657D02*
X133934211Y-69712895D01*
X133934211Y-69712895D02*
X133886592Y-69903371D01*
X133886592Y-69903371D02*
X133886592Y-70141466D01*
X133886592Y-70141466D02*
X133934211Y-70331942D01*
X133934211Y-70331942D02*
X133981830Y-70427180D01*
X133981830Y-70427180D02*
X134029449Y-70474800D01*
X134029449Y-70474800D02*
X134124687Y-70522419D01*
X134124687Y-70522419D02*
X134219925Y-70522419D01*
X134219925Y-70522419D02*
X134315163Y-70474800D01*
X134315163Y-70474800D02*
X134362782Y-70427180D01*
X134362782Y-70427180D02*
X134410401Y-70331942D01*
X134410401Y-70331942D02*
X134458020Y-70141466D01*
X134458020Y-70141466D02*
X134458020Y-69903371D01*
X134458020Y-69903371D02*
X134410401Y-69712895D01*
X134410401Y-69712895D02*
X134362782Y-69617657D01*
X134362782Y-69617657D02*
X134315163Y-69570038D01*
X134315163Y-69570038D02*
X134219925Y-69522419D01*
X130967544Y-69705752D02*
X130967544Y-70515276D01*
X130967544Y-70515276D02*
X131015163Y-70610514D01*
X131015163Y-70610514D02*
X131062782Y-70658133D01*
X131062782Y-70658133D02*
X131158020Y-70705752D01*
X131158020Y-70705752D02*
X131300877Y-70705752D01*
X131300877Y-70705752D02*
X131396115Y-70658133D01*
X130967544Y-70324800D02*
X131062782Y-70372419D01*
X131062782Y-70372419D02*
X131253258Y-70372419D01*
X131253258Y-70372419D02*
X131348496Y-70324800D01*
X131348496Y-70324800D02*
X131396115Y-70277180D01*
X131396115Y-70277180D02*
X131443734Y-70181942D01*
X131443734Y-70181942D02*
X131443734Y-69896228D01*
X131443734Y-69896228D02*
X131396115Y-69800990D01*
X131396115Y-69800990D02*
X131348496Y-69753371D01*
X131348496Y-69753371D02*
X131253258Y-69705752D01*
X131253258Y-69705752D02*
X131062782Y-69705752D01*
X131062782Y-69705752D02*
X130967544Y-69753371D01*
X130491353Y-70372419D02*
X130491353Y-69705752D01*
X130491353Y-69372419D02*
X130538972Y-69420038D01*
X130538972Y-69420038D02*
X130491353Y-69467657D01*
X130491353Y-69467657D02*
X130443734Y-69420038D01*
X130443734Y-69420038D02*
X130491353Y-69372419D01*
X130491353Y-69372419D02*
X130491353Y-69467657D01*
X130158020Y-69705752D02*
X129777068Y-69705752D01*
X130015163Y-69372419D02*
X130015163Y-70229561D01*
X130015163Y-70229561D02*
X129967544Y-70324800D01*
X129967544Y-70324800D02*
X129872306Y-70372419D01*
X129872306Y-70372419D02*
X129777068Y-70372419D01*
X129443734Y-70372419D02*
X129443734Y-69372419D01*
X129015163Y-70372419D02*
X129015163Y-69848609D01*
X129015163Y-69848609D02*
X129062782Y-69753371D01*
X129062782Y-69753371D02*
X129158020Y-69705752D01*
X129158020Y-69705752D02*
X129300877Y-69705752D01*
X129300877Y-69705752D02*
X129396115Y-69753371D01*
X129396115Y-69753371D02*
X129443734Y-69800990D01*
X128110401Y-69705752D02*
X128110401Y-70372419D01*
X128538972Y-69705752D02*
X128538972Y-70229561D01*
X128538972Y-70229561D02*
X128491353Y-70324800D01*
X128491353Y-70324800D02*
X128396115Y-70372419D01*
X128396115Y-70372419D02*
X128253258Y-70372419D01*
X128253258Y-70372419D02*
X128158020Y-70324800D01*
X128158020Y-70324800D02*
X128110401Y-70277180D01*
X127634210Y-70372419D02*
X127634210Y-69372419D01*
X127634210Y-69753371D02*
X127538972Y-69705752D01*
X127538972Y-69705752D02*
X127348496Y-69705752D01*
X127348496Y-69705752D02*
X127253258Y-69753371D01*
X127253258Y-69753371D02*
X127205639Y-69800990D01*
X127205639Y-69800990D02*
X127158020Y-69896228D01*
X127158020Y-69896228D02*
X127158020Y-70181942D01*
X127158020Y-70181942D02*
X127205639Y-70277180D01*
X127205639Y-70277180D02*
X127253258Y-70324800D01*
X127253258Y-70324800D02*
X127348496Y-70372419D01*
X127348496Y-70372419D02*
X127538972Y-70372419D01*
X127538972Y-70372419D02*
X127634210Y-70324800D01*
X126729448Y-70277180D02*
X126681829Y-70324800D01*
X126681829Y-70324800D02*
X126729448Y-70372419D01*
X126729448Y-70372419D02*
X126777067Y-70324800D01*
X126777067Y-70324800D02*
X126729448Y-70277180D01*
X126729448Y-70277180D02*
X126729448Y-70372419D01*
X125824687Y-70324800D02*
X125919925Y-70372419D01*
X125919925Y-70372419D02*
X126110401Y-70372419D01*
X126110401Y-70372419D02*
X126205639Y-70324800D01*
X126205639Y-70324800D02*
X126253258Y-70277180D01*
X126253258Y-70277180D02*
X126300877Y-70181942D01*
X126300877Y-70181942D02*
X126300877Y-69896228D01*
X126300877Y-69896228D02*
X126253258Y-69800990D01*
X126253258Y-69800990D02*
X126205639Y-69753371D01*
X126205639Y-69753371D02*
X126110401Y-69705752D01*
X126110401Y-69705752D02*
X125919925Y-69705752D01*
X125919925Y-69705752D02*
X125824687Y-69753371D01*
X125253258Y-70372419D02*
X125348496Y-70324800D01*
X125348496Y-70324800D02*
X125396115Y-70277180D01*
X125396115Y-70277180D02*
X125443734Y-70181942D01*
X125443734Y-70181942D02*
X125443734Y-69896228D01*
X125443734Y-69896228D02*
X125396115Y-69800990D01*
X125396115Y-69800990D02*
X125348496Y-69753371D01*
X125348496Y-69753371D02*
X125253258Y-69705752D01*
X125253258Y-69705752D02*
X125110401Y-69705752D01*
X125110401Y-69705752D02*
X125015163Y-69753371D01*
X125015163Y-69753371D02*
X124967544Y-69800990D01*
X124967544Y-69800990D02*
X124919925Y-69896228D01*
X124919925Y-69896228D02*
X124919925Y-70181942D01*
X124919925Y-70181942D02*
X124967544Y-70277180D01*
X124967544Y-70277180D02*
X125015163Y-70324800D01*
X125015163Y-70324800D02*
X125110401Y-70372419D01*
X125110401Y-70372419D02*
X125253258Y-70372419D01*
X124491353Y-70372419D02*
X124491353Y-69705752D01*
X124491353Y-69800990D02*
X124443734Y-69753371D01*
X124443734Y-69753371D02*
X124348496Y-69705752D01*
X124348496Y-69705752D02*
X124205639Y-69705752D01*
X124205639Y-69705752D02*
X124110401Y-69753371D01*
X124110401Y-69753371D02*
X124062782Y-69848609D01*
X124062782Y-69848609D02*
X124062782Y-70372419D01*
X124062782Y-69848609D02*
X124015163Y-69753371D01*
X124015163Y-69753371D02*
X123919925Y-69705752D01*
X123919925Y-69705752D02*
X123777068Y-69705752D01*
X123777068Y-69705752D02*
X123681829Y-69753371D01*
X123681829Y-69753371D02*
X123634210Y-69848609D01*
X123634210Y-69848609D02*
X123634210Y-70372419D01*
X122443735Y-69324800D02*
X123300877Y-70610514D01*
X122110401Y-70372419D02*
X122110401Y-69372419D01*
X122110401Y-69372419D02*
X121872306Y-69372419D01*
X121872306Y-69372419D02*
X121729449Y-69420038D01*
X121729449Y-69420038D02*
X121634211Y-69515276D01*
X121634211Y-69515276D02*
X121586592Y-69610514D01*
X121586592Y-69610514D02*
X121538973Y-69800990D01*
X121538973Y-69800990D02*
X121538973Y-69943847D01*
X121538973Y-69943847D02*
X121586592Y-70134323D01*
X121586592Y-70134323D02*
X121634211Y-70229561D01*
X121634211Y-70229561D02*
X121729449Y-70324800D01*
X121729449Y-70324800D02*
X121872306Y-70372419D01*
X121872306Y-70372419D02*
X122110401Y-70372419D01*
X121110401Y-70372419D02*
X121110401Y-69705752D01*
X121110401Y-69896228D02*
X121062782Y-69800990D01*
X121062782Y-69800990D02*
X121015163Y-69753371D01*
X121015163Y-69753371D02*
X120919925Y-69705752D01*
X120919925Y-69705752D02*
X120824687Y-69705752D01*
X119967544Y-69420038D02*
X120062782Y-69372419D01*
X120062782Y-69372419D02*
X120205639Y-69372419D01*
X120205639Y-69372419D02*
X120348496Y-69420038D01*
X120348496Y-69420038D02*
X120443734Y-69515276D01*
X120443734Y-69515276D02*
X120491353Y-69610514D01*
X120491353Y-69610514D02*
X120538972Y-69800990D01*
X120538972Y-69800990D02*
X120538972Y-69943847D01*
X120538972Y-69943847D02*
X120491353Y-70134323D01*
X120491353Y-70134323D02*
X120443734Y-70229561D01*
X120443734Y-70229561D02*
X120348496Y-70324800D01*
X120348496Y-70324800D02*
X120205639Y-70372419D01*
X120205639Y-70372419D02*
X120110401Y-70372419D01*
X120110401Y-70372419D02*
X119967544Y-70324800D01*
X119967544Y-70324800D02*
X119919925Y-70277180D01*
X119919925Y-70277180D02*
X119919925Y-69943847D01*
X119919925Y-69943847D02*
X120110401Y-69943847D01*
X119348496Y-70372419D02*
X119443734Y-70324800D01*
X119443734Y-70324800D02*
X119491353Y-70229561D01*
X119491353Y-70229561D02*
X119491353Y-69372419D01*
X118538972Y-70372419D02*
X118538972Y-69848609D01*
X118538972Y-69848609D02*
X118586591Y-69753371D01*
X118586591Y-69753371D02*
X118681829Y-69705752D01*
X118681829Y-69705752D02*
X118872305Y-69705752D01*
X118872305Y-69705752D02*
X118967543Y-69753371D01*
X118538972Y-70324800D02*
X118634210Y-70372419D01*
X118634210Y-70372419D02*
X118872305Y-70372419D01*
X118872305Y-70372419D02*
X118967543Y-70324800D01*
X118967543Y-70324800D02*
X119015162Y-70229561D01*
X119015162Y-70229561D02*
X119015162Y-70134323D01*
X119015162Y-70134323D02*
X118967543Y-70039085D01*
X118967543Y-70039085D02*
X118872305Y-69991466D01*
X118872305Y-69991466D02*
X118634210Y-69991466D01*
X118634210Y-69991466D02*
X118538972Y-69943847D01*
X117634210Y-69705752D02*
X117634210Y-70372419D01*
X118062781Y-69705752D02*
X118062781Y-70229561D01*
X118062781Y-70229561D02*
X118015162Y-70324800D01*
X118015162Y-70324800D02*
X117919924Y-70372419D01*
X117919924Y-70372419D02*
X117777067Y-70372419D01*
X117777067Y-70372419D02*
X117681829Y-70324800D01*
X117681829Y-70324800D02*
X117634210Y-70277180D01*
X116729448Y-70324800D02*
X116824686Y-70372419D01*
X116824686Y-70372419D02*
X117015162Y-70372419D01*
X117015162Y-70372419D02*
X117110400Y-70324800D01*
X117110400Y-70324800D02*
X117158019Y-70277180D01*
X117158019Y-70277180D02*
X117205638Y-70181942D01*
X117205638Y-70181942D02*
X117205638Y-69896228D01*
X117205638Y-69896228D02*
X117158019Y-69800990D01*
X117158019Y-69800990D02*
X117110400Y-69753371D01*
X117110400Y-69753371D02*
X117015162Y-69705752D01*
X117015162Y-69705752D02*
X116824686Y-69705752D01*
X116824686Y-69705752D02*
X116729448Y-69753371D01*
X116158019Y-70372419D02*
X116253257Y-70324800D01*
X116253257Y-70324800D02*
X116300876Y-70277180D01*
X116300876Y-70277180D02*
X116348495Y-70181942D01*
X116348495Y-70181942D02*
X116348495Y-69896228D01*
X116348495Y-69896228D02*
X116300876Y-69800990D01*
X116300876Y-69800990D02*
X116253257Y-69753371D01*
X116253257Y-69753371D02*
X116158019Y-69705752D01*
X116158019Y-69705752D02*
X116015162Y-69705752D01*
X116015162Y-69705752D02*
X115919924Y-69753371D01*
X115919924Y-69753371D02*
X115872305Y-69800990D01*
X115872305Y-69800990D02*
X115824686Y-69896228D01*
X115824686Y-69896228D02*
X115824686Y-70181942D01*
X115824686Y-70181942D02*
X115872305Y-70277180D01*
X115872305Y-70277180D02*
X115919924Y-70324800D01*
X115919924Y-70324800D02*
X116015162Y-70372419D01*
X116015162Y-70372419D02*
X116158019Y-70372419D01*
X114967543Y-69705752D02*
X114967543Y-70372419D01*
X115396114Y-69705752D02*
X115396114Y-70229561D01*
X115396114Y-70229561D02*
X115348495Y-70324800D01*
X115348495Y-70324800D02*
X115253257Y-70372419D01*
X115253257Y-70372419D02*
X115110400Y-70372419D01*
X115110400Y-70372419D02*
X115015162Y-70324800D01*
X115015162Y-70324800D02*
X114967543Y-70277180D01*
X114538971Y-70324800D02*
X114443733Y-70372419D01*
X114443733Y-70372419D02*
X114253257Y-70372419D01*
X114253257Y-70372419D02*
X114158019Y-70324800D01*
X114158019Y-70324800D02*
X114110400Y-70229561D01*
X114110400Y-70229561D02*
X114110400Y-70181942D01*
X114110400Y-70181942D02*
X114158019Y-70086704D01*
X114158019Y-70086704D02*
X114253257Y-70039085D01*
X114253257Y-70039085D02*
X114396114Y-70039085D01*
X114396114Y-70039085D02*
X114491352Y-69991466D01*
X114491352Y-69991466D02*
X114538971Y-69896228D01*
X114538971Y-69896228D02*
X114538971Y-69848609D01*
X114538971Y-69848609D02*
X114491352Y-69753371D01*
X114491352Y-69753371D02*
X114396114Y-69705752D01*
X114396114Y-69705752D02*
X114253257Y-69705752D01*
X114253257Y-69705752D02*
X114158019Y-69753371D01*
X112967543Y-69324800D02*
X113824685Y-70610514D01*
X112634209Y-70372419D02*
X112634209Y-69705752D01*
X112634209Y-69800990D02*
X112586590Y-69753371D01*
X112586590Y-69753371D02*
X112491352Y-69705752D01*
X112491352Y-69705752D02*
X112348495Y-69705752D01*
X112348495Y-69705752D02*
X112253257Y-69753371D01*
X112253257Y-69753371D02*
X112205638Y-69848609D01*
X112205638Y-69848609D02*
X112205638Y-70372419D01*
X112205638Y-69848609D02*
X112158019Y-69753371D01*
X112158019Y-69753371D02*
X112062781Y-69705752D01*
X112062781Y-69705752D02*
X111919924Y-69705752D01*
X111919924Y-69705752D02*
X111824685Y-69753371D01*
X111824685Y-69753371D02*
X111777066Y-69848609D01*
X111777066Y-69848609D02*
X111777066Y-70372419D01*
X110872305Y-70372419D02*
X110872305Y-69848609D01*
X110872305Y-69848609D02*
X110919924Y-69753371D01*
X110919924Y-69753371D02*
X111015162Y-69705752D01*
X111015162Y-69705752D02*
X111205638Y-69705752D01*
X111205638Y-69705752D02*
X111300876Y-69753371D01*
X110872305Y-70324800D02*
X110967543Y-70372419D01*
X110967543Y-70372419D02*
X111205638Y-70372419D01*
X111205638Y-70372419D02*
X111300876Y-70324800D01*
X111300876Y-70324800D02*
X111348495Y-70229561D01*
X111348495Y-70229561D02*
X111348495Y-70134323D01*
X111348495Y-70134323D02*
X111300876Y-70039085D01*
X111300876Y-70039085D02*
X111205638Y-69991466D01*
X111205638Y-69991466D02*
X110967543Y-69991466D01*
X110967543Y-69991466D02*
X110872305Y-69943847D01*
X110443733Y-70324800D02*
X110348495Y-70372419D01*
X110348495Y-70372419D02*
X110158019Y-70372419D01*
X110158019Y-70372419D02*
X110062781Y-70324800D01*
X110062781Y-70324800D02*
X110015162Y-70229561D01*
X110015162Y-70229561D02*
X110015162Y-70181942D01*
X110015162Y-70181942D02*
X110062781Y-70086704D01*
X110062781Y-70086704D02*
X110158019Y-70039085D01*
X110158019Y-70039085D02*
X110300876Y-70039085D01*
X110300876Y-70039085D02*
X110396114Y-69991466D01*
X110396114Y-69991466D02*
X110443733Y-69896228D01*
X110443733Y-69896228D02*
X110443733Y-69848609D01*
X110443733Y-69848609D02*
X110396114Y-69753371D01*
X110396114Y-69753371D02*
X110300876Y-69705752D01*
X110300876Y-69705752D02*
X110158019Y-69705752D01*
X110158019Y-69705752D02*
X110062781Y-69753371D01*
X109158019Y-70324800D02*
X109253257Y-70372419D01*
X109253257Y-70372419D02*
X109443733Y-70372419D01*
X109443733Y-70372419D02*
X109538971Y-70324800D01*
X109538971Y-70324800D02*
X109586590Y-70277180D01*
X109586590Y-70277180D02*
X109634209Y-70181942D01*
X109634209Y-70181942D02*
X109634209Y-69896228D01*
X109634209Y-69896228D02*
X109586590Y-69800990D01*
X109586590Y-69800990D02*
X109538971Y-69753371D01*
X109538971Y-69753371D02*
X109443733Y-69705752D01*
X109443733Y-69705752D02*
X109253257Y-69705752D01*
X109253257Y-69705752D02*
X109158019Y-69753371D01*
X108586590Y-70372419D02*
X108681828Y-70324800D01*
X108681828Y-70324800D02*
X108729447Y-70277180D01*
X108729447Y-70277180D02*
X108777066Y-70181942D01*
X108777066Y-70181942D02*
X108777066Y-69896228D01*
X108777066Y-69896228D02*
X108729447Y-69800990D01*
X108729447Y-69800990D02*
X108681828Y-69753371D01*
X108681828Y-69753371D02*
X108586590Y-69705752D01*
X108586590Y-69705752D02*
X108443733Y-69705752D01*
X108443733Y-69705752D02*
X108348495Y-69753371D01*
X108348495Y-69753371D02*
X108300876Y-69800990D01*
X108300876Y-69800990D02*
X108253257Y-69896228D01*
X108253257Y-69896228D02*
X108253257Y-70181942D01*
X108253257Y-70181942D02*
X108300876Y-70277180D01*
X108300876Y-70277180D02*
X108348495Y-70324800D01*
X108348495Y-70324800D02*
X108443733Y-70372419D01*
X108443733Y-70372419D02*
X108586590Y-70372419D01*
X107967542Y-69705752D02*
X107586590Y-69705752D01*
X107824685Y-69372419D02*
X107824685Y-70229561D01*
X107824685Y-70229561D02*
X107777066Y-70324800D01*
X107777066Y-70324800D02*
X107681828Y-70372419D01*
X107681828Y-70372419D02*
X107586590Y-70372419D01*
X107253256Y-69991466D02*
X106491352Y-69991466D01*
X106015161Y-70372419D02*
X106015161Y-69372419D01*
X105586590Y-70372419D02*
X105586590Y-69848609D01*
X105586590Y-69848609D02*
X105634209Y-69753371D01*
X105634209Y-69753371D02*
X105729447Y-69705752D01*
X105729447Y-69705752D02*
X105872304Y-69705752D01*
X105872304Y-69705752D02*
X105967542Y-69753371D01*
X105967542Y-69753371D02*
X106015161Y-69800990D01*
X104729447Y-70324800D02*
X104824685Y-70372419D01*
X104824685Y-70372419D02*
X105015161Y-70372419D01*
X105015161Y-70372419D02*
X105110399Y-70324800D01*
X105110399Y-70324800D02*
X105158018Y-70229561D01*
X105158018Y-70229561D02*
X105158018Y-69848609D01*
X105158018Y-69848609D02*
X105110399Y-69753371D01*
X105110399Y-69753371D02*
X105015161Y-69705752D01*
X105015161Y-69705752D02*
X104824685Y-69705752D01*
X104824685Y-69705752D02*
X104729447Y-69753371D01*
X104729447Y-69753371D02*
X104681828Y-69848609D01*
X104681828Y-69848609D02*
X104681828Y-69943847D01*
X104681828Y-69943847D02*
X105158018Y-70039085D01*
X103824685Y-70372419D02*
X103824685Y-69848609D01*
X103824685Y-69848609D02*
X103872304Y-69753371D01*
X103872304Y-69753371D02*
X103967542Y-69705752D01*
X103967542Y-69705752D02*
X104158018Y-69705752D01*
X104158018Y-69705752D02*
X104253256Y-69753371D01*
X103824685Y-70324800D02*
X103919923Y-70372419D01*
X103919923Y-70372419D02*
X104158018Y-70372419D01*
X104158018Y-70372419D02*
X104253256Y-70324800D01*
X104253256Y-70324800D02*
X104300875Y-70229561D01*
X104300875Y-70229561D02*
X104300875Y-70134323D01*
X104300875Y-70134323D02*
X104253256Y-70039085D01*
X104253256Y-70039085D02*
X104158018Y-69991466D01*
X104158018Y-69991466D02*
X103919923Y-69991466D01*
X103919923Y-69991466D02*
X103824685Y-69943847D01*
X102919923Y-70372419D02*
X102919923Y-69372419D01*
X102919923Y-70324800D02*
X103015161Y-70372419D01*
X103015161Y-70372419D02*
X103205637Y-70372419D01*
X103205637Y-70372419D02*
X103300875Y-70324800D01*
X103300875Y-70324800D02*
X103348494Y-70277180D01*
X103348494Y-70277180D02*
X103396113Y-70181942D01*
X103396113Y-70181942D02*
X103396113Y-69896228D01*
X103396113Y-69896228D02*
X103348494Y-69800990D01*
X103348494Y-69800990D02*
X103300875Y-69753371D01*
X103300875Y-69753371D02*
X103205637Y-69705752D01*
X103205637Y-69705752D02*
X103015161Y-69705752D01*
X103015161Y-69705752D02*
X102919923Y-69753371D01*
X102443732Y-69991466D02*
X101681828Y-69991466D01*
X101253256Y-70324800D02*
X101158018Y-70372419D01*
X101158018Y-70372419D02*
X100967542Y-70372419D01*
X100967542Y-70372419D02*
X100872304Y-70324800D01*
X100872304Y-70324800D02*
X100824685Y-70229561D01*
X100824685Y-70229561D02*
X100824685Y-70181942D01*
X100824685Y-70181942D02*
X100872304Y-70086704D01*
X100872304Y-70086704D02*
X100967542Y-70039085D01*
X100967542Y-70039085D02*
X101110399Y-70039085D01*
X101110399Y-70039085D02*
X101205637Y-69991466D01*
X101205637Y-69991466D02*
X101253256Y-69896228D01*
X101253256Y-69896228D02*
X101253256Y-69848609D01*
X101253256Y-69848609D02*
X101205637Y-69753371D01*
X101205637Y-69753371D02*
X101110399Y-69705752D01*
X101110399Y-69705752D02*
X100967542Y-69705752D01*
X100967542Y-69705752D02*
X100872304Y-69753371D01*
X100396113Y-70372419D02*
X100396113Y-69705752D01*
X100396113Y-69896228D02*
X100348494Y-69800990D01*
X100348494Y-69800990D02*
X100300875Y-69753371D01*
X100300875Y-69753371D02*
X100205637Y-69705752D01*
X100205637Y-69705752D02*
X100110399Y-69705752D01*
X99777065Y-69991466D02*
X99015161Y-69991466D01*
X98110399Y-70372419D02*
X98110399Y-69372419D01*
X98110399Y-70324800D02*
X98205637Y-70372419D01*
X98205637Y-70372419D02*
X98396113Y-70372419D01*
X98396113Y-70372419D02*
X98491351Y-70324800D01*
X98491351Y-70324800D02*
X98538970Y-70277180D01*
X98538970Y-70277180D02*
X98586589Y-70181942D01*
X98586589Y-70181942D02*
X98586589Y-69896228D01*
X98586589Y-69896228D02*
X98538970Y-69800990D01*
X98538970Y-69800990D02*
X98491351Y-69753371D01*
X98491351Y-69753371D02*
X98396113Y-69705752D01*
X98396113Y-69705752D02*
X98205637Y-69705752D01*
X98205637Y-69705752D02*
X98110399Y-69753371D01*
X97253256Y-70324800D02*
X97348494Y-70372419D01*
X97348494Y-70372419D02*
X97538970Y-70372419D01*
X97538970Y-70372419D02*
X97634208Y-70324800D01*
X97634208Y-70324800D02*
X97681827Y-70229561D01*
X97681827Y-70229561D02*
X97681827Y-69848609D01*
X97681827Y-69848609D02*
X97634208Y-69753371D01*
X97634208Y-69753371D02*
X97538970Y-69705752D01*
X97538970Y-69705752D02*
X97348494Y-69705752D01*
X97348494Y-69705752D02*
X97253256Y-69753371D01*
X97253256Y-69753371D02*
X97205637Y-69848609D01*
X97205637Y-69848609D02*
X97205637Y-69943847D01*
X97205637Y-69943847D02*
X97681827Y-70039085D01*
X96824684Y-70324800D02*
X96729446Y-70372419D01*
X96729446Y-70372419D02*
X96538970Y-70372419D01*
X96538970Y-70372419D02*
X96443732Y-70324800D01*
X96443732Y-70324800D02*
X96396113Y-70229561D01*
X96396113Y-70229561D02*
X96396113Y-70181942D01*
X96396113Y-70181942D02*
X96443732Y-70086704D01*
X96443732Y-70086704D02*
X96538970Y-70039085D01*
X96538970Y-70039085D02*
X96681827Y-70039085D01*
X96681827Y-70039085D02*
X96777065Y-69991466D01*
X96777065Y-69991466D02*
X96824684Y-69896228D01*
X96824684Y-69896228D02*
X96824684Y-69848609D01*
X96824684Y-69848609D02*
X96777065Y-69753371D01*
X96777065Y-69753371D02*
X96681827Y-69705752D01*
X96681827Y-69705752D02*
X96538970Y-69705752D01*
X96538970Y-69705752D02*
X96443732Y-69753371D01*
X95967541Y-70372419D02*
X95967541Y-69705752D01*
X95967541Y-69372419D02*
X96015160Y-69420038D01*
X96015160Y-69420038D02*
X95967541Y-69467657D01*
X95967541Y-69467657D02*
X95919922Y-69420038D01*
X95919922Y-69420038D02*
X95967541Y-69372419D01*
X95967541Y-69372419D02*
X95967541Y-69467657D01*
X95062780Y-69705752D02*
X95062780Y-70515276D01*
X95062780Y-70515276D02*
X95110399Y-70610514D01*
X95110399Y-70610514D02*
X95158018Y-70658133D01*
X95158018Y-70658133D02*
X95253256Y-70705752D01*
X95253256Y-70705752D02*
X95396113Y-70705752D01*
X95396113Y-70705752D02*
X95491351Y-70658133D01*
X95062780Y-70324800D02*
X95158018Y-70372419D01*
X95158018Y-70372419D02*
X95348494Y-70372419D01*
X95348494Y-70372419D02*
X95443732Y-70324800D01*
X95443732Y-70324800D02*
X95491351Y-70277180D01*
X95491351Y-70277180D02*
X95538970Y-70181942D01*
X95538970Y-70181942D02*
X95538970Y-69896228D01*
X95538970Y-69896228D02*
X95491351Y-69800990D01*
X95491351Y-69800990D02*
X95443732Y-69753371D01*
X95443732Y-69753371D02*
X95348494Y-69705752D01*
X95348494Y-69705752D02*
X95158018Y-69705752D01*
X95158018Y-69705752D02*
X95062780Y-69753371D01*
X94586589Y-69705752D02*
X94586589Y-70372419D01*
X94586589Y-69800990D02*
X94538970Y-69753371D01*
X94538970Y-69753371D02*
X94443732Y-69705752D01*
X94443732Y-69705752D02*
X94300875Y-69705752D01*
X94300875Y-69705752D02*
X94205637Y-69753371D01*
X94205637Y-69753371D02*
X94158018Y-69848609D01*
X94158018Y-69848609D02*
X94158018Y-70372419D01*
M02*
