M48
; DRILL file {KiCad 9.0.2} date 2026-03-23T23:45:17-0400
; FORMAT={-:-/ absolute / metric / decimal}
; #@! TF.CreationDate,2026-03-23T23:45:17-04:00
; #@! TF.GenerationSoftware,Kicad,Pcbnew,9.0.2
; #@! TF.FileFunction,Plated,1,2,PTH
FMAT,2
METRIC
; #@! TA.AperFunction,Plated,PTH,ViaDrill
T1C0.300
; #@! TA.AperFunction,Plated,PTH,ComponentDrill
T2C0.700
; #@! TA.AperFunction,Plated,PTH,ComponentDrill
T3C0.800
; #@! TA.AperFunction,Plated,PTH,ComponentDrill
T4C1.000
; #@! TA.AperFunction,Plated,PTH,ComponentDrill
T5C1.300
%
G90
G05
T1
X100.826Y-86.25
X100.838Y-83.82
X100.838Y-85.09
X100.838Y-90.55
X100.838Y-91.948
X100.838Y-93.472
X102.362Y-83.82
X102.362Y-85.09
X102.388Y-86.25
X102.4Y-90.55
X102.4Y-91.948
X102.4Y-93.472
X103.874Y-86.25
X103.886Y-83.82
X103.886Y-85.09
X103.886Y-90.55
X103.886Y-91.948
X103.886Y-93.472
T3
X88.185Y-90.932
X88.653Y-95.333
X91.283Y-84.582
X91.293Y-87.63
X92.964Y-73.914
X92.964Y-81.534
X93.185Y-90.932
X95.765Y-90.21
X95.765Y-92.71
X96.273Y-95.333
X96.283Y-84.582
X96.293Y-87.63
X105.43Y-81.28
X105.688Y-95.87
X106.426Y-76.2
X106.426Y-78.7
X107.93Y-81.28
X108.188Y-95.87
X108.752Y-84.074
X108.752Y-87.122
X108.752Y-90.17
X108.752Y-93.218
X110.292Y-95.867
X111.252Y-84.074
X111.252Y-87.122
X111.252Y-90.17
X111.252Y-93.218
X112.792Y-95.867
X121.392Y-82.336
X121.392Y-87.336
X121.392Y-89.448
X121.392Y-94.448
X124.44Y-82.336
X124.44Y-87.336
X124.44Y-89.448
X124.44Y-94.448
X127.0Y-95.504
X127.508Y-83.566
X127.508Y-91.186
X130.257Y-89.422
X130.257Y-91.922
X130.282Y-84.796
X130.282Y-87.296
X134.62Y-95.504
T4
X80.775Y-75.65
X80.775Y-78.15
X85.351Y-90.17
X85.351Y-92.71
X85.351Y-95.25
X87.117Y-74.422
X87.122Y-79.507
X89.657Y-74.422
X89.662Y-79.507
X99.822Y-74.33
X99.822Y-79.33
X113.284Y-74.33
X113.284Y-79.33
X116.312Y-83.122
X116.312Y-87.122
X116.312Y-90.202
X116.312Y-94.202
X120.142Y-73.66
X122.682Y-73.66
X125.222Y-73.66
X127.762Y-73.66
X132.633Y-73.436
X132.633Y-75.976
X132.633Y-78.516
X132.633Y-81.056
X135.175Y-73.44
X135.175Y-75.98
X135.175Y-78.52
X135.175Y-81.06
X137.715Y-73.44
X137.715Y-75.98
X137.715Y-78.52
X137.715Y-81.06
T5
X81.674Y-64.556
X81.674Y-69.556
X90.424Y-66.04
X95.424Y-66.04
X101.426Y-66.04
X106.426Y-66.04
X111.426Y-66.04
X116.426Y-66.04
X122.508Y-66.04
X127.508Y-66.04
X132.508Y-66.04
X137.273Y-85.892
X137.273Y-90.892
X137.508Y-66.04
T2
X79.902Y-82.382G85X80.702Y-82.382
G05
X82.902Y-82.382G85X83.702Y-82.382
G05
X86.902Y-82.382G85X87.702Y-82.382
G05
X87.902Y-86.782G85X88.702Y-86.782
G05
M30
